<svg width="32" height="30" viewBox="0 0 32 30" fill="none" xmlns="http://www.w3.org/2000/svg">
<g clip-path="url(#clip0_39_118381)">
<path d="M21.0729 8.78368C20.8873 8.77401 20.6999 8.76873 20.5117 8.76873C14.6486 8.76873 9.89561 13.5217 9.89561 19.3848C9.89561 20.0094 9.94927 20.6216 10.054 21.2163C4.4521 20.9251 0 16.2901 0 10.6152C0 4.94033 4.75207 0 10.6152 0C15.8537 0 20.2056 3.79409 21.0729 8.78368Z" fill="white"/>
<path d="M31.1269 19.3848C31.1269 25.2471 26.3739 30 20.5117 30C15.2731 30 10.9213 26.2059 10.054 21.2163C10.2396 21.226 10.4269 21.2313 10.6152 21.2313C16.4783 21.2313 21.2313 16.4783 21.2313 10.6152C21.2313 9.99062 21.1776 9.37836 21.0729 8.78369C26.6739 9.07487 31.1269 13.7099 31.1269 19.3848Z" fill="white"/>
</g>
<defs>
<clipPath id="clip0_39_118381">
<rect width="31.1269" height="30" fill="white"/>
</clipPath>
</defs>
</svg>
