<svg width="2328" height="512" viewBox="0 0 2328 512" fill="none" xmlns="http://www.w3.org/2000/svg">
<g clip-path="url(#clip0_1423_12719)">
<path d="M608.462 184.394C603.307 180.18 598.152 177.053 592.997 175.034C587.842 173.016 582.863 171.996 578.017 171.996C571.892 171.996 566.913 173.46 563.036 176.365C559.181 179.293 557.242 183.085 557.242 187.787C557.242 191.025 558.212 193.709 560.15 195.816C562.089 197.923 564.622 199.742 567.751 201.294C570.901 202.847 574.426 204.177 578.369 205.309C582.312 206.44 586.212 207.66 590.089 208.946C605.554 214.136 616.856 221.056 624.015 229.728C631.175 238.399 634.766 249.711 634.766 263.639C634.766 273.043 633.202 281.56 630.052 289.167C626.923 296.797 622.319 303.317 616.283 308.751C610.247 314.185 602.844 318.399 594.054 321.393C585.286 324.387 575.329 325.895 564.226 325.895C541.204 325.895 519.879 318.998 500.229 305.224L520.518 266.811C527.59 273.132 534.595 277.834 541.535 280.916C548.452 283.999 555.304 285.53 562.067 285.53C569.799 285.53 575.549 283.755 579.338 280.185C583.128 276.614 585.022 272.577 585.022 268.03C585.022 265.28 584.537 262.885 583.568 260.867C582.599 258.848 580.991 256.985 578.744 255.278C576.496 253.57 573.544 251.995 569.932 250.531C566.319 249.068 561.913 247.448 556.78 245.674C550.655 243.722 544.663 241.571 538.781 239.22C532.899 236.869 527.678 233.742 523.074 229.861C518.491 225.979 514.79 221.078 511.97 215.156C509.151 209.234 507.741 201.738 507.741 192.667C507.741 183.595 509.217 175.367 512.213 167.981C515.187 160.596 519.373 154.297 524.77 149.019C530.167 143.74 536.754 139.659 544.575 136.731C552.374 133.826 561.12 132.362 570.769 132.362C579.779 132.362 589.208 133.626 599.033 136.133C608.859 138.639 618.265 142.321 627.298 147.2L608.462 184.394Z" fill="black"/>
<path d="M756.482 177.828V320.794H709.14V177.828H670.257V137.463H795.343V177.828H756.46H756.482Z" fill="black"/>
<path d="M941.225 288.942H873.615L862.754 320.791H812.283L881.59 137.483H933.272L1002.58 320.791H952.108L941.247 288.942H941.225ZM928.668 252.724L907.409 191.71L886.15 252.724H928.646H928.668Z" fill="black"/>
<path d="M1106.19 177.828V320.794H1058.84V177.828H1019.96V137.463H1145.05V177.828H1106.17H1106.19Z" fill="black"/>
<path d="M1235.13 137.463V320.771H1187.79V137.463H1235.13Z" fill="black"/>
<path d="M1286.81 229.128C1286.81 215.51 1289.3 202.824 1294.3 191.069C1299.28 179.314 1306.22 169.067 1315.08 160.307C1323.93 151.546 1334.51 144.715 1346.84 139.769C1359.16 134.823 1372.73 132.361 1387.53 132.361C1402.34 132.361 1415.71 134.845 1428.11 139.769C1440.52 144.715 1451.18 151.568 1460.1 160.307C1469.04 169.067 1476.01 179.314 1480.98 191.069C1485.96 202.824 1488.47 215.51 1488.47 229.128C1488.47 242.746 1485.99 255.432 1480.98 267.187C1475.98 278.942 1469.02 289.188 1460.1 297.949C1451.16 306.71 1440.49 313.541 1428.11 318.487C1415.71 323.433 1402.18 325.894 1387.53 325.894C1372.88 325.894 1359.16 323.41 1346.84 318.487C1334.53 313.563 1323.93 306.687 1315.08 297.949C1306.22 289.188 1299.3 278.942 1294.3 267.187C1289.3 255.432 1286.81 242.746 1286.81 229.128ZM1336.31 229.128C1336.31 236.425 1337.68 243.145 1340.41 249.311C1343.14 255.476 1346.84 260.821 1351.51 265.346C1356.18 269.893 1361.63 273.419 1367.82 275.925C1374.01 278.432 1380.57 279.696 1387.49 279.696C1394.41 279.696 1400.97 278.432 1407.16 275.925C1413.35 273.419 1418.84 269.893 1423.57 265.346C1428.31 260.821 1432.06 255.454 1434.81 249.311C1437.54 243.145 1438.91 236.425 1438.91 229.128C1438.91 221.831 1437.54 215.111 1434.81 208.945C1432.08 202.779 1428.33 197.434 1423.57 192.888C1418.82 188.341 1413.35 184.837 1407.16 182.308C1400.97 179.802 1394.41 178.538 1387.49 178.538C1380.57 178.538 1374.01 179.802 1367.82 182.308C1361.63 184.814 1356.18 188.341 1351.51 192.888C1346.84 197.434 1343.14 202.779 1340.41 208.945C1337.68 215.111 1336.31 221.831 1336.31 229.128Z" fill="black"/>
<path d="M1540.14 320.794V137.463H1587.48L1674.89 249.555V137.463H1721.99V320.771H1674.89L1587.48 208.679V320.771H1540.14V320.794Z" fill="black"/>
<path d="M1781.87 137.463H1851.9C1864.31 137.463 1875.94 139.969 1886.8 145.004C1897.66 150.038 1907.15 156.714 1915.31 165.053C1923.44 173.393 1929.82 183.129 1934.49 194.219C1939.16 205.33 1941.5 216.952 1941.5 229.106C1941.5 241.26 1939.21 252.66 1934.63 263.749C1930.04 274.861 1923.68 284.62 1915.55 293.048C1907.42 301.476 1897.92 308.196 1887.04 313.23C1876.18 318.265 1864.46 320.771 1851.9 320.771H1781.87V137.463ZM1829.21 280.428H1840.07C1848.29 280.428 1855.6 279.142 1862.06 276.547C1868.49 273.952 1873.93 270.381 1878.36 265.856C1882.79 261.332 1886.16 255.942 1888.5 249.688C1890.83 243.456 1892 236.602 1892 229.15C1892 221.698 1890.79 215.045 1888.39 208.724C1885.96 202.403 1882.55 196.969 1878.12 192.422C1873.69 187.898 1868.25 184.327 1861.82 181.732C1855.38 179.137 1848.14 177.851 1840.07 177.851H1829.21V280.45V280.428Z" fill="black"/>
<path d="M2097.03 177.828H2040.77V208.457H2093.9V248.823H2040.77V280.428H2097.03V320.794H1993.42V137.463H2097.03V177.828Z" fill="black"/>
<path d="M2204.98 223.051L2148.23 137.463H2206.68L2231.31 184.881L2261.73 137.463H2320.17L2260.03 223.051L2327.89 320.794H2270.17L2233.71 260.977L2190.97 320.794H2133.73L2204.98 223.051Z" fill="black"/>
<path d="M189.274 111.382V0.155252V0L133.693 55.4251L123.074 66.1153L6.2489 182.51C-1.99034 190.716 -2.10049 204.112 6.0286 212.429L83.5743 291.896L189.274 400.373V400.218V304.272C189.274 294.136 185.353 284.378 178.348 277.103L131.115 227.999C115.364 211.631 115.584 185.571 131.578 169.469L189.274 111.382Z" fill="black"/>
<path d="M200.641 234.43C193.371 227.111 189.274 217.175 189.274 206.818V111.781V111.626L244.855 167.051L255.474 177.741L372.299 294.136C380.539 302.342 380.649 315.738 372.52 324.055L294.974 403.522L189.274 511.999V511.844V400.085L247.455 339.625C263.207 323.257 262.986 297.197 246.992 281.095L200.641 234.43Z" fill="black"/>
</g>
<defs>
<clipPath id="clip0_1423_12719">
<rect width="2327.88" height="512" fill="white"/>
</clipPath>
</defs>
</svg>
