<svg width="2966" height="928" viewBox="0 0 2966 928" fill="none" xmlns="http://www.w3.org/2000/svg">
<rect width="2965.88" height="928" fill="white"/>
<rect width="2965.88" height="928" fill="url(#paint0_linear_1423_12734)"/>
<mask id="mask0_1423_12734" style="mask-type:luminance" maskUnits="userSpaceOnUse" x="319" y="208" width="2328" height="512">
<path d="M2646.88 208H319V720H2646.88V208Z" fill="white"/>
</mask>
<g mask="url(#mask0_1423_12734)">
<path d="M927.463 392.395C922.307 388.181 917.151 385.054 911.995 383.036C906.843 381.017 901.863 379.997 897.016 379.997C890.893 379.997 885.913 381.461 882.037 384.367C878.181 387.294 876.243 391.087 876.243 395.789C876.243 399.027 877.21 401.71 879.149 403.817C881.09 405.924 883.622 407.743 886.752 409.296C889.902 410.848 893.425 412.179 897.369 413.31C901.313 414.441 905.21 415.661 909.09 416.947C924.554 422.137 935.854 429.057 943.016 437.729C950.174 446.401 953.766 457.712 953.766 471.641C953.766 481.044 952.201 489.561 949.051 497.168C945.921 504.798 941.319 511.319 935.284 516.752C929.245 522.186 921.846 526.4 913.054 529.394C904.287 532.388 894.328 533.896 883.225 533.896C860.205 533.896 838.879 526.999 819.229 513.226L839.517 474.812C846.59 481.133 853.596 485.835 860.534 488.918C867.452 492.001 874.305 493.531 881.066 493.531C888.799 493.531 894.549 491.757 898.337 488.186C902.128 484.615 904.022 480.578 904.022 476.032C904.022 473.282 903.537 470.886 902.569 468.868C901.599 466.85 899.99 464.987 897.743 463.279C895.496 461.571 892.543 459.996 888.931 458.533C885.319 457.069 880.914 455.45 875.778 453.676C869.655 451.724 863.664 449.573 857.781 447.222C851.899 444.871 846.679 441.743 842.073 437.862C837.49 433.981 833.791 429.079 830.97 423.157C828.149 417.236 826.741 409.739 826.741 400.668C826.741 391.597 828.217 383.369 831.214 375.983C834.188 368.597 838.373 362.299 843.77 357.02C849.167 351.742 855.755 347.661 863.576 344.733C871.372 341.827 880.119 340.364 889.769 340.364C898.778 340.364 908.207 341.628 918.034 344.134C927.857 346.64 937.266 350.322 946.298 355.201L927.463 392.395Z" fill="white"/>
<path d="M1075.48 385.83V528.795H1028.14V385.83H989.256V345.464H1114.34V385.83H1075.46H1075.48Z" fill="white"/>
<path d="M1260.22 496.944H1192.62L1181.75 528.792H1131.28L1200.59 345.484H1252.27L1321.58 528.792H1271.11L1260.25 496.944H1260.22ZM1247.67 460.725L1226.41 399.712L1205.15 460.725H1247.64H1247.67Z" fill="white"/>
<path d="M1425.19 385.83V528.795H1377.84V385.83H1338.96V345.464H1464.05V385.83H1425.17H1425.19Z" fill="white"/>
<path d="M1554.13 345.464V528.773H1506.79V345.464H1554.13Z" fill="white"/>
<path d="M1605.81 437.129C1605.81 423.511 1608.3 410.825 1613.3 399.07C1618.28 387.316 1625.22 377.069 1634.07 368.308C1642.93 359.548 1653.5 352.716 1665.84 347.771C1678.16 342.825 1691.73 340.363 1706.53 340.363C1721.34 340.363 1734.71 342.847 1747.11 347.771C1759.51 352.716 1770.18 359.57 1779.1 368.308C1788.04 377.069 1795.01 387.316 1799.98 399.07C1804.96 410.825 1807.47 423.511 1807.47 437.129C1807.47 450.747 1804.98 463.434 1799.98 475.188C1794.98 486.943 1788.02 497.19 1779.1 505.951C1770.16 514.711 1759.49 521.542 1747.11 526.488C1734.71 531.434 1721.18 533.896 1706.53 533.896C1691.88 533.896 1678.16 531.412 1665.84 526.488C1653.53 521.564 1642.93 514.689 1634.07 505.951C1625.22 497.19 1618.3 486.943 1613.3 475.188C1608.3 463.434 1605.81 450.747 1605.81 437.129ZM1655.31 437.129C1655.31 444.426 1656.68 451.147 1659.41 457.312C1662.14 463.478 1665.84 468.823 1670.51 473.348C1675.18 477.894 1680.62 481.421 1686.82 483.927C1693.01 486.433 1699.57 487.697 1706.49 487.697C1713.41 487.697 1719.97 486.433 1726.16 483.927C1732.35 481.421 1737.84 477.894 1742.57 473.348C1747.31 468.823 1751.05 463.456 1753.81 457.312C1756.54 451.147 1757.91 444.426 1757.91 437.129C1757.91 429.833 1756.54 423.112 1753.81 416.947C1751.08 410.781 1747.33 405.436 1742.57 400.889C1737.81 396.342 1732.35 392.838 1726.16 390.31C1719.97 387.803 1713.41 386.539 1706.49 386.539C1699.57 386.539 1693.01 387.803 1686.82 390.31C1680.62 392.816 1675.18 396.342 1670.51 400.889C1665.84 405.436 1662.14 410.781 1659.41 416.947C1656.68 423.112 1655.31 429.833 1655.31 437.129Z" fill="white"/>
<path d="M1859.13 528.795V345.464H1906.48L1993.89 457.556V345.464H2040.99V528.773H1993.89L1906.48 416.681V528.773H1859.13V528.795Z" fill="white"/>
<path d="M2100.87 345.464H2170.9C2183.3 345.464 2194.94 347.971 2205.8 353.005C2216.66 358.04 2226.15 364.716 2234.3 373.055C2242.43 381.394 2248.82 391.13 2253.49 402.22C2258.16 413.332 2260.5 424.953 2260.5 437.107C2260.5 449.262 2258.21 460.661 2253.62 471.751C2249.04 482.862 2242.68 492.621 2234.55 501.049C2226.42 509.477 2216.92 516.197 2206.04 521.232C2195.18 526.266 2183.46 528.773 2170.9 528.773H2100.87V345.464ZM2148.21 488.429H2159.07C2167.29 488.429 2174.6 487.143 2181.06 484.548C2187.49 481.953 2192.93 478.382 2197.36 473.858C2201.79 469.333 2205.16 463.944 2207.49 457.689C2209.83 451.457 2210.99 444.604 2210.99 437.152C2210.99 429.7 2209.78 423.046 2207.38 416.725C2204.96 410.404 2201.54 404.97 2197.12 400.424C2192.69 395.899 2187.25 392.328 2180.82 389.733C2174.38 387.138 2167.13 385.852 2159.07 385.852H2148.21V488.452V488.429Z" fill="white"/>
<path d="M2416.03 385.83H2359.77V416.459H2412.9V456.824H2359.77V488.429H2416.03V528.795H2312.42V345.464H2416.03V385.83Z" fill="white"/>
<path d="M2523.98 431.053L2467.23 345.464H2525.67L2550.3 392.883L2580.73 345.464H2639.17L2579.03 431.053L2646.88 528.795H2589.16L2552.71 468.978L2509.97 528.795H2452.73L2523.98 431.053Z" fill="white"/>
<path d="M508.274 319.382V208.155V208L452.692 263.425L442.074 274.115L325.249 390.51C317.01 398.716 316.9 412.112 325.029 420.429L402.574 499.896L508.274 608.372V608.219V512.272C508.274 502.136 504.353 492.377 497.348 485.103L450.115 435.999C434.364 419.631 434.584 393.571 450.578 377.469L508.274 319.382Z" fill="white"/>
<path d="M519.641 442.43C512.371 435.111 508.273 425.175 508.273 414.818V319.781V319.626L563.855 375.051L574.474 385.741L691.301 502.136C699.539 510.342 699.647 523.738 691.518 532.055L613.974 611.522L508.273 720V719.844V608.083L566.455 547.624C582.206 531.257 581.986 505.196 565.992 489.095L519.641 442.43Z" fill="white"/>
</g>
<defs>
<linearGradient id="paint0_linear_1423_12734" x1="2965.88" y1="928" x2="957.19" y2="-567.769" gradientUnits="userSpaceOnUse">
<stop stop-color="#017BFF"/>
<stop offset="1" stop-color="#5524E1"/>
</linearGradient>
</defs>
</svg>
