<svg width="200" height="200" viewBox="0 0 200 200" fill="none" xmlns="http://www.w3.org/2000/svg">
<g clip-path="url(#clip0_1442_5995)">
<circle cx="100" cy="100" r="100" fill="white"/>
<path d="M100.127 49.3676V9.19732V9.14014L79.9758 29.1579L76.1272 33.0177L33.7678 75.0545C30.7785 78.0198 30.746 82.8558 33.6905 85.8619L61.8038 114.563L100.127 153.745V153.688V119.036C100.127 115.372 98.7058 111.851 96.1645 109.221L79.035 91.4862C73.3252 85.576 73.4026 76.1655 79.202 70.3493L100.123 49.3676H100.127Z" fill="black"/>
<path d="M104.249 93.8074C101.61 91.1607 100.127 87.5746 100.127 83.8333V49.5037V49.4465L120.278 69.4643L124.127 73.3241L166.486 115.361C169.476 118.326 169.508 123.162 166.564 126.168L138.451 154.87L100.127 194.051V193.994V153.628L121.219 131.793C126.929 125.882 126.852 116.472 121.052 110.656L104.249 93.8034V93.8074Z" fill="black"/>
</g>
<defs>
<clipPath id="clip0_1442_5995">
<rect width="200" height="200" fill="white"/>
</clipPath>
</defs>
</svg>
