<svg width="512" height="512" viewBox="0 0 512 512" fill="none" xmlns="http://www.w3.org/2000/svg">
<g clip-path="url(#clip0_895_4833)">
<circle cx="256" cy="256" r="256" fill="black"/>
<path d="M255.676 126.381V23.5448V23.3984L204.088 74.6439L194.236 84.5249L85.796 192.139C78.1434 199.73 78.06 212.111 85.5979 219.806L157.568 293.281L255.676 393.587V393.441V304.731C255.676 295.352 252.037 286.339 245.531 279.605L201.68 234.204C187.063 219.074 187.261 194.983 202.107 180.094L255.665 126.381H255.676Z" fill="#FFFAFA"/>
<path d="M266.227 240.147C259.471 233.371 255.676 224.191 255.676 214.613V126.729V126.583L307.263 177.828L317.116 187.709L425.556 295.324C433.208 302.915 433.292 315.295 425.754 322.991L353.784 396.466L255.676 496.772V496.625V393.287L309.672 337.389C324.289 322.259 324.091 298.168 309.244 283.278L266.227 240.136V240.147Z" fill="#FFFAFA"/>
</g>
<defs>
<clipPath id="clip0_895_4833">
<rect width="512" height="512" fill="white"/>
</clipPath>
</defs>
</svg>
