<svg width="200" height="200" viewBox="0 0 200 200" fill="none" xmlns="http://www.w3.org/2000/svg">
<g clip-path="url(#clip0_1442_6005)">
<circle cx="100" cy="100" r="100" fill="#EEECEC"/>
<circle cx="100" cy="100" r="100" fill="url(#paint0_linear_1442_6005)"/>
<path d="M99.8733 49.3676V9.19732V9.14014L79.722 29.1579L75.8734 33.0177L33.5141 75.0545C30.5248 78.0198 30.4922 82.8558 33.4367 85.8619L61.55 114.563L99.8733 153.745V153.688V119.036C99.8733 115.372 98.452 111.851 95.9107 109.221L78.7812 91.4862C73.0714 85.576 73.1488 76.1655 78.9482 70.3493L99.8693 49.3676H99.8733Z" fill="white"/>
<path d="M103.995 93.8074C101.356 91.1607 99.8733 87.5746 99.8733 83.8333V49.5037V49.4465L120.025 69.4643L123.873 73.3241L166.233 115.361C169.222 118.326 169.254 123.162 166.31 126.168L138.197 154.87L99.8733 194.051V193.994V153.628L120.965 131.793C126.675 125.882 126.598 116.472 120.798 110.656L103.995 93.8034V93.8074Z" fill="white"/>
</g>
<defs>
<linearGradient id="paint0_linear_1442_6005" x1="200" y1="200" x2="0.279845" y2="153.466" gradientUnits="userSpaceOnUse">
<stop stop-color="#017BFF"/>
<stop offset="1" stop-color="#5524E1"/>
</linearGradient>
<clipPath id="clip0_1442_6005">
<rect width="200" height="200" fill="white"/>
</clipPath>
</defs>
</svg>
