<svg width="512" height="512" viewBox="0 0 512 512" fill="none" xmlns="http://www.w3.org/2000/svg">
<g clip-path="url(#clip0_895_4828)">
<circle cx="256" cy="256" r="256" fill="white"/>
<path d="M256.325 126.381V23.5448V23.3984L204.738 74.6439L194.886 84.5249L86.4457 192.139C78.793 199.73 78.7096 212.111 86.2476 219.806L158.218 293.281L256.325 393.587V393.441V304.731C256.325 295.352 252.687 286.339 246.181 279.605L202.33 234.204C187.713 219.074 187.911 194.983 202.757 180.094L256.315 126.381H256.325Z" fill="black"/>
<path d="M266.876 240.147C260.12 233.371 256.325 224.191 256.325 214.613V126.729V126.583L307.913 177.828L317.765 187.709L426.205 295.324C433.858 302.915 433.941 315.295 426.403 322.991L354.433 396.466L256.325 496.772V496.625V393.287L310.321 337.389C324.938 322.259 324.74 298.168 309.894 283.278L266.876 240.136V240.147Z" fill="black"/>
</g>
<defs>
<clipPath id="clip0_895_4828">
<rect width="512" height="512" fill="white"/>
</clipPath>
</defs>
</svg>
