<svg width="38" height="49" viewBox="0 0 38 49" fill="none" xmlns="http://www.w3.org/2000/svg">
<path d="M19.0001 10.6601V0.0151529V0L13.6601 5.3046L12.6402 6.32742L1.41518 17.467C0.62303 18.2528 0.614396 19.5343 1.39468 20.3309L8.84456 27.9366L19.0001 38.3196V38.3044V29.1217C19.0001 28.1509 18.6234 27.2179 17.95 26.5208L13.4108 21.8213C11.8977 20.2551 11.9182 17.7614 13.455 16.2201L18.999 10.6601H19.0001Z" fill="#EEECEC"/>
<path d="M20.0925 22.4358C19.3931 21.7345 19.0003 20.7842 19.0003 19.7927V10.6956V10.6804L24.3403 15.985L25.3602 17.0078L36.5852 28.1474C37.3773 28.9332 37.386 30.2147 36.6057 31.0113L29.1558 38.617L19.0003 49V48.9848V38.2879L24.5896 32.5017C26.1027 30.9355 26.0822 28.4418 24.5454 26.9005L20.0925 22.4348V22.4358Z" fill="#EEECEC"/>
</svg>
