<svg width="182" height="40" viewBox="0 0 182 40" fill="none" xmlns="http://www.w3.org/2000/svg">
<g clip-path="url(#clip0_670_894)">
<path d="M47.5368 14.406C47.134 14.0768 46.7313 13.8325 46.3286 13.6748C45.9258 13.5172 45.5369 13.4374 45.1582 13.4374C44.6798 13.4374 44.2908 13.5518 43.9879 13.7788C43.6867 14.0075 43.5352 14.3038 43.5352 14.6711C43.5352 14.9241 43.611 15.1338 43.7624 15.2984C43.9139 15.463 44.1118 15.6051 44.3562 15.7264C44.6023 15.8477 44.8777 15.9516 45.1858 16.04C45.4938 16.1284 45.7985 16.2237 46.1014 16.3242C47.3096 16.7296 48.1925 17.2702 48.7519 17.9477C49.3112 18.6252 49.5918 19.5089 49.5918 20.5971C49.5918 21.3318 49.4696 21.9971 49.2235 22.5914C48.9791 23.1875 48.6193 23.6969 48.1478 24.1214C47.6762 24.546 47.0979 24.8752 46.4112 25.1091C45.7262 25.343 44.9482 25.4608 44.0808 25.4608C42.2823 25.4608 40.6162 24.922 39.081 23.8459L40.6662 20.8449C41.2186 21.3387 41.7659 21.706 42.3081 21.9469C42.8485 22.1877 43.3838 22.3073 43.9121 22.3073C44.5162 22.3073 44.9655 22.1687 45.2615 21.8897C45.5575 21.6107 45.7055 21.2954 45.7055 20.9402C45.7055 20.7253 45.6677 20.5382 45.5919 20.3805C45.5162 20.2228 45.3906 20.0773 45.215 19.9438C45.0395 19.8104 44.8088 19.6874 44.5266 19.573C44.2443 19.4587 43.9001 19.3322 43.4991 19.1936C43.0206 19.0411 42.5525 18.873 42.0929 18.6893C41.6334 18.5057 41.2255 18.2614 40.8658 17.9581C40.5078 17.6549 40.2187 17.272 39.9984 16.8093C39.7781 16.3467 39.6679 15.761 39.6679 15.0523C39.6679 14.3437 39.7832 13.7008 40.0173 13.1238C40.2496 12.5468 40.5767 12.0547 40.9983 11.6423C41.42 11.23 41.9346 10.9111 42.5456 10.6824C43.1549 10.4554 43.8381 10.3411 44.592 10.3411C45.2959 10.3411 46.0325 10.4398 46.8001 10.6356C47.5678 10.8314 48.3027 11.1191 49.0083 11.5003L47.5368 14.406Z" fill="black"/>
<path d="M59.1011 13.8928V25.062H55.4024V13.8928H52.3647V10.7393H62.1371V13.8928H59.0993H59.1011Z" fill="black"/>
<path d="M73.534 22.5738H68.252L67.4035 25.062H63.4604L68.875 10.741H72.9127L78.3273 25.062H74.3843L73.5358 22.5738H73.534ZM72.553 19.7442L70.8921 14.9775L69.2313 19.7442H72.5513H72.553Z" fill="black"/>
<path d="M86.4216 13.8928V25.062H82.723V13.8928H79.6852V10.7393H89.4576V13.8928H86.4199H86.4216Z" fill="black"/>
<path d="M96.4952 10.7393V25.0602H92.7966V10.7393H96.4952Z" fill="black"/>
<path d="M100.533 17.901C100.533 16.8371 100.728 15.8459 101.118 14.9276C101.507 14.0092 102.049 13.2087 102.741 12.5243C103.433 11.8399 104.259 11.3062 105.223 10.9198C106.185 10.5334 107.245 10.3411 108.402 10.3411C109.558 10.3411 110.603 10.5351 111.572 10.9198C112.541 11.3062 113.374 11.8416 114.071 12.5243C114.77 13.2087 115.314 14.0092 115.703 14.9276C116.092 15.8459 116.288 16.8371 116.288 17.901C116.288 18.9648 116.093 19.956 115.703 20.8743C115.312 21.7927 114.768 22.5932 114.071 23.2776C113.372 23.962 112.539 24.4957 111.572 24.8821C110.603 25.2685 109.546 25.4608 108.402 25.4608C107.257 25.4608 106.185 25.2668 105.223 24.8821C104.261 24.4974 103.433 23.9603 102.741 23.2776C102.049 22.5932 101.509 21.7927 101.118 20.8743C100.728 19.956 100.533 18.9648 100.533 17.901ZM104.4 17.901C104.4 18.471 104.507 18.996 104.72 19.4777C104.934 19.9594 105.223 20.377 105.588 20.7305C105.953 21.0857 106.378 21.3612 106.861 21.557C107.345 21.7528 107.858 21.8516 108.398 21.8516C108.939 21.8516 109.452 21.7528 109.935 21.557C110.419 21.3612 110.848 21.0857 111.218 20.7305C111.588 20.377 111.88 19.9577 112.095 19.4777C112.309 18.996 112.415 18.471 112.415 17.901C112.415 17.3309 112.309 16.8059 112.095 16.3242C111.882 15.8425 111.589 15.4249 111.218 15.0697C110.846 14.7145 110.419 14.4407 109.935 14.2432C109.452 14.0474 108.939 13.9486 108.398 13.9486C107.858 13.9486 107.345 14.0474 106.861 14.2432C106.378 14.439 105.953 14.7145 105.588 15.0697C105.223 15.4249 104.934 15.8425 104.72 16.3242C104.507 16.8059 104.4 17.3309 104.4 17.901Z" fill="black"/>
<path d="M120.324 25.062V10.7393H124.022L130.852 19.4965V10.7393H134.532V25.0602H130.852L124.022 16.303V25.0602H120.324V25.062Z" fill="black"/>
<path d="M139.209 10.7393H144.681C145.65 10.7393 146.558 10.9351 147.407 11.3284C148.255 11.7217 148.997 12.2433 149.634 12.8948C150.269 13.5463 150.768 14.3069 151.133 15.1733C151.498 16.0414 151.68 16.9494 151.68 17.8989C151.68 18.8484 151.501 19.739 151.143 20.6054C150.785 21.4735 150.288 22.2359 149.653 22.8943C149.018 23.5528 148.276 24.0778 147.426 24.4711C146.577 24.8644 145.662 25.0602 144.681 25.0602H139.209V10.7393ZM142.908 21.9084H143.756C144.398 21.9084 144.97 21.8079 145.474 21.6052C145.977 21.4025 146.402 21.1235 146.748 20.77C147.094 20.4165 147.357 19.9955 147.539 19.5069C147.722 19.02 147.813 18.4845 147.813 17.9024C147.813 17.3202 147.718 16.8003 147.531 16.3065C147.342 15.8127 147.075 15.3882 146.729 15.033C146.383 14.6795 145.958 14.4005 145.455 14.1978C144.953 13.9951 144.386 13.8946 143.756 13.8946H142.908V21.9101V21.9084Z" fill="black"/>
<path d="M163.831 13.8928H159.436V16.2857H163.587V19.4393H159.436V21.9084H163.831V25.062H155.737V10.7393H163.831V13.8928Z" fill="black"/>
<path d="M172.265 17.4258L167.831 10.7393H172.397L174.322 14.4438L176.698 10.7393H181.264L176.566 17.4258L181.867 25.062H177.358L174.509 20.3888L171.17 25.062H166.699L172.265 17.4258Z" fill="black"/>
<path d="M14.7879 8.70175V0.0121291V0L10.4456 4.33008L9.616 5.16526L0.489019 14.2586C-0.154671 14.8997 -0.163277 15.9463 0.471808 16.5961L6.53007 22.8044L14.7879 31.2792V31.2671V23.7713C14.7879 22.9794 14.4815 22.217 13.9342 21.6487L10.2442 17.8124C9.01362 16.5337 9.03083 14.4977 10.2803 13.2398L14.7879 8.70175Z" fill="black"/>
<path d="M15.6758 18.3148C15.1078 17.743 14.7877 16.9668 14.7877 16.1576V8.73283V8.7207L19.13 13.0508L19.9596 13.886L29.0866 22.9793C29.7303 23.6204 29.7389 24.667 29.1038 25.3168L23.0455 31.5251L14.7877 39.9999V39.9878V31.2565L19.3331 26.5331C20.5637 25.2544 20.5465 23.2184 19.297 21.9605L15.6758 18.3148Z" fill="black"/>
</g>
<defs>
<clipPath id="clip0_670_894">
<rect width="181.867" height="40" fill="white"/>
</clipPath>
</defs>
</svg>
