<svg width="203" height="44" viewBox="0 0 203 44" fill="none" xmlns="http://www.w3.org/2000/svg">
<g clip-path="url(#clip0_721_8295)">
<path d="M53.0606 15.8465C52.6111 15.4843 52.1616 15.2156 51.712 15.0421C51.2625 14.8687 50.8283 14.781 50.4057 14.781C49.8716 14.781 49.4375 14.9068 49.0993 15.1565C48.7632 15.4081 48.5941 15.734 48.5941 16.1381C48.5941 16.4164 48.6786 16.647 48.8477 16.8281C49.0167 17.0091 49.2377 17.1654 49.5105 17.2988C49.7852 17.4323 50.0926 17.5466 50.4364 17.6438C50.7803 17.741 51.1203 17.8459 51.4584 17.9564C52.8071 18.4024 53.7926 18.9971 54.4169 19.7423C55.0413 20.4876 55.3544 21.4596 55.3544 22.6566C55.3544 23.4648 55.218 24.1967 54.9433 24.8504C54.6705 25.5061 54.269 26.0664 53.7426 26.5334C53.2163 27.0004 52.5708 27.3625 51.8042 27.6198C51.0397 27.8771 50.1713 28.0068 49.2031 28.0068C47.1955 28.0068 45.3359 27.414 43.6223 26.2304L45.3916 22.9292C46.0083 23.4724 46.6192 23.8765 47.2244 24.1414C47.8276 24.4063 48.425 24.5378 49.0148 24.5378C49.6891 24.5378 50.1905 24.3854 50.521 24.0785C50.8514 23.7716 51.0166 23.4247 51.0166 23.034C51.0166 22.7977 50.9743 22.5918 50.8898 22.4184C50.8053 22.2449 50.665 22.0848 50.4691 21.938C50.2731 21.7913 50.0157 21.656 49.7007 21.5302C49.3856 21.4044 49.0014 21.2652 48.5538 21.1128C48.0197 20.945 47.4972 20.7601 46.9842 20.5581C46.4713 20.3561 46.016 20.0873 45.6145 19.7538C45.2149 19.4202 44.8922 18.999 44.6463 18.4901C44.4004 17.9812 44.2774 17.337 44.2774 16.5574C44.2774 15.7779 44.4061 15.0707 44.6674 14.436C44.9267 13.8013 45.2917 13.26 45.7624 12.8064C46.2331 12.3528 46.8075 12.0021 47.4895 11.7505C48.1695 11.5008 48.9322 11.375 49.7737 11.375C50.5594 11.375 51.3816 11.4836 52.2384 11.699C53.0952 11.9144 53.9155 12.2308 54.7032 12.6501L53.0606 15.8465Z" fill="#EEECEC"/>
<path d="M65.9687 15.2819V27.568H61.8403V15.2819H58.4496V11.813H69.3576V15.2819H65.9668H65.9687Z" fill="#EEECEC"/>
<path d="M82.0789 24.831H76.183L75.2359 27.568H70.8347L76.8785 11.8149H81.3854L87.4291 27.568H83.0279L82.0808 24.831H82.0789ZM80.9839 21.7185L79.13 16.4751L77.2761 21.7185H80.9819H80.9839Z" fill="#EEECEC"/>
<path d="M96.464 15.2819V27.568H92.3356V15.2819H88.9448V11.813H99.8528V15.2819H96.4621H96.464Z" fill="#EEECEC"/>
<path d="M107.708 11.813V27.5661H103.58V11.813H107.708Z" fill="#EEECEC"/>
<path d="M112.215 19.6909C112.215 18.5206 112.432 17.4304 112.868 16.4202C113.303 15.41 113.908 14.5294 114.68 13.7766C115.452 13.0237 116.374 12.4366 117.45 12.0116C118.524 11.5866 119.707 11.375 120.998 11.375C122.289 11.375 123.456 11.5885 124.537 12.0116C125.619 12.4366 126.548 13.0256 127.327 13.7766C128.106 14.5294 128.714 15.41 129.148 16.4202C129.582 17.4304 129.801 18.5206 129.801 19.6909C129.801 20.8612 129.584 21.9514 129.148 22.9616C128.712 23.9718 128.105 24.8523 127.327 25.6052C126.547 26.3581 125.617 26.9451 124.537 27.3701C123.456 27.7952 122.276 28.0068 120.998 28.0068C119.721 28.0068 118.524 27.7933 117.45 27.3701C116.376 26.947 115.452 26.3562 114.68 25.6052C113.908 24.8523 113.304 23.9718 112.868 22.9616C112.432 21.9514 112.215 20.8612 112.215 19.6909ZM116.532 19.6909C116.532 20.3179 116.651 20.8955 116.889 21.4253C117.127 21.9552 117.45 22.4145 117.857 22.8034C118.265 23.1941 118.739 23.4972 119.279 23.7125C119.819 23.9279 120.391 24.0366 120.995 24.0366C121.598 24.0366 122.17 23.9279 122.71 23.7125C123.25 23.4972 123.728 23.1941 124.141 22.8034C124.554 22.4145 124.881 21.9533 125.121 21.4253C125.359 20.8955 125.478 20.3179 125.478 19.6909C125.478 19.0638 125.359 18.4863 125.121 17.9564C124.883 17.4265 124.556 16.9672 124.141 16.5765C123.726 16.1857 123.25 15.8846 122.71 15.6673C122.17 15.4519 121.598 15.3433 120.995 15.3433C120.391 15.3433 119.819 15.4519 119.279 15.6673C118.739 15.8827 118.265 16.1857 117.857 16.5765C117.45 16.9672 117.127 17.4265 116.889 17.9564C116.651 18.4863 116.532 19.0638 116.532 19.6909Z" fill="#EEECEC"/>
<path d="M134.306 27.568V11.813H138.434L146.057 21.4459V11.813H150.164V27.5661H146.057L138.434 17.9332V27.5661H134.306V27.568Z" fill="#EEECEC"/>
<path d="M155.386 11.813H161.493C162.574 11.813 163.589 12.0284 164.536 12.461C165.483 12.8937 166.311 13.4674 167.022 14.1841C167.731 14.9007 168.288 15.7374 168.695 16.6904C169.102 17.6453 169.306 18.6441 169.306 19.6886C169.306 20.7331 169.106 21.7127 168.707 22.6657C168.307 23.6207 167.752 24.4593 167.043 25.1836C166.334 25.9079 165.506 26.4854 164.557 26.918C163.61 27.3507 162.588 27.5661 161.493 27.5661H155.386V11.813ZM159.514 24.0991H160.461C161.178 24.0991 161.816 23.9885 162.379 23.7655C162.939 23.5425 163.414 23.2356 163.8 22.8468C164.186 22.458 164.48 21.9948 164.684 21.4573C164.887 20.9218 164.989 20.3328 164.989 19.6924C164.989 19.052 164.884 18.4802 164.674 17.937C164.463 17.3938 164.165 16.9268 163.779 16.5361C163.393 16.1472 162.918 15.8404 162.357 15.6174C161.796 15.3944 161.164 15.2838 160.461 15.2838H159.514V24.101V24.0991Z" fill="#EEECEC"/>
<path d="M182.869 15.2819H177.963V17.9141H182.596V21.383H177.963V24.0991H182.869V27.568H173.834V11.813H182.869V15.2819Z" fill="#EEECEC"/>
<path d="M192.282 19.1682L187.334 11.813H192.43L194.578 15.888L197.231 11.813H202.328L197.083 19.1682L203 27.568H197.967L194.788 22.4275L191.061 27.568H186.07L192.282 19.1682Z" fill="#EEECEC"/>
<path d="M16.5067 9.57193V0.013342V0L11.6598 4.76309L10.7338 5.68178L0.546267 15.6845C-0.172222 16.3897 -0.181827 17.5409 0.527056 18.2557L7.2893 25.0849L16.5067 34.4071V34.3938V26.1484C16.5067 25.2774 16.1648 24.4387 15.5538 23.8136L11.435 19.5937C10.0614 18.187 10.0807 15.9475 11.4754 14.5637L16.5067 9.57193Z" fill="#EEECEC"/>
<path d="M17.4973 20.1463C16.8633 19.5173 16.506 18.6634 16.506 17.7733V9.60612V9.59277L21.3529 14.3559L22.2789 15.2746L32.4664 25.2772C33.1849 25.9825 33.1945 27.1337 32.4856 27.8484L25.7234 34.6776L16.506 43.9999V43.9865V34.3822L21.5796 29.1864C22.9532 27.7798 22.934 25.5403 21.5392 24.1565L17.4973 20.1463Z" fill="#EEECEC"/>
</g>
<defs>
<clipPath id="clip0_721_8295">
<rect width="203" height="44" fill="white"/>
</clipPath>
</defs>
</svg>
