<svg width="381" height="512" viewBox="0 0 381 512" fill="none" xmlns="http://www.w3.org/2000/svg">
<g clip-path="url(#clip0_1423_13101)">
<path d="M190.012 111.386V0.158332V0L134.215 55.4273L123.558 66.1147L6.26897 182.511C-2.00814 190.722 -2.09835 204.112 6.05472 212.436L83.8979 291.907L190.012 400.398V400.239V304.291C190.012 294.146 186.076 284.397 179.04 277.114L131.61 228.009C115.8 211.644 116.014 185.587 132.072 169.483L190.001 111.386H190.012Z" fill="black"/>
<path d="M201.423 234.433C194.116 227.105 190.011 217.175 190.011 206.816V111.76V111.602L245.808 167.029L256.465 177.717L373.754 294.113C382.031 302.323 382.121 315.714 373.968 324.037L296.125 403.509L190.011 512V511.841V400.071L248.413 339.611C264.223 323.246 264.009 297.189 247.951 281.084L201.423 234.422V234.433Z" fill="black"/>
</g>
<defs>
<clipPath id="clip0_1423_13101">
<rect width="380.023" height="512" fill="white"/>
</clipPath>
</defs>
</svg>
