<svg width="207" height="70" viewBox="0 0 207 70" fill="none" xmlns="http://www.w3.org/2000/svg">
<g clip-path="url(#clip0_526_158)">
<path d="M48.2481 0.239258H0.239258V36.8076H48.2481V0.239258Z" fill="#1C0E4F"/>
<path d="M11.0645 26.5785V8.66309H14.8483V23.4561H22.5213V26.5785H11.0645Z" fill="#6240E2"/>
<path d="M24.9231 26.5786V23.8489L31.2949 17.9442C31.8355 17.4174 32.2947 16.9481 32.6631 16.5266C33.0314 16.1052 33.3136 15.6934 33.505 15.2911C33.6963 14.884 33.792 14.4482 33.792 13.9741C33.792 13.4473 33.6724 12.9972 33.4332 12.6141C33.1941 12.2309 32.8688 11.9388 32.4526 11.7329C32.0364 11.527 31.5724 11.4216 31.0462 11.4216C30.52 11.4216 30.0225 11.5318 29.6111 11.7521C29.2045 11.9723 28.8888 12.2932 28.6687 12.7051C28.4487 13.1169 28.3386 13.6102 28.3386 14.1848H24.7461C24.7461 13.0115 25.0092 11.9963 25.5402 11.1295C26.0712 10.2675 26.8126 9.59703 27.7694 9.12771C28.7261 8.6536 29.8263 8.41895 31.0749 8.41895C32.3234 8.41895 33.4715 8.64403 34.4282 9.09898C35.385 9.55393 36.1217 10.1765 36.6526 10.9762C37.1836 11.776 37.4467 12.6907 37.4467 13.7251C37.4467 14.4003 37.3128 15.0708 37.0497 15.7269C36.7866 16.3877 36.313 17.1157 35.6385 17.9202C34.964 18.72 34.0121 19.6825 32.7827 20.8032L30.1708 23.3652V23.4898H37.6859V26.5882H24.9279L24.9231 26.5786Z" fill="#6240E2"/>
<path d="M5.73091 36.8076H0.239258V0.239258H5.73091" stroke="#5524E1" stroke-miterlimit="10"/>
<path d="M42.7568 0.239258H48.2485V36.8076H42.7568" stroke="#5524E1" stroke-miterlimit="10"/>
<path opacity="0.11" d="M104.321 0.239258H56.3125V36.8076H104.321V0.239258Z" fill="white"/>
<path d="M61.8041 36.8076H56.3125V0.239258H61.8041" stroke="white" stroke-miterlimit="10"/>
<path d="M98.8301 0.239258H104.322V36.8076H98.8301" stroke="white" stroke-miterlimit="10"/>
<path d="M72.6002 28.1817C72.026 28.1817 71.5314 27.9759 71.1207 27.5597C70.71 27.1435 70.5068 26.6468 70.5068 26.0605V11.212C70.5068 10.6303 70.71 10.1291 71.1207 9.71286C71.5314 9.29668 72.0216 9.09082 72.6002 9.09082H87.2533C87.8274 9.09082 88.3221 9.29668 88.7328 9.71286C89.1435 10.1291 89.3466 10.6258 89.3466 11.212H80.9734C79.7368 11.212 78.7255 11.6058 77.9527 12.3935C77.1798 13.1811 76.7868 14.2014 76.7868 15.4545V21.8181C76.7868 23.0711 77.1754 24.0959 77.9527 24.8791C78.7299 25.6667 79.7368 26.0605 80.9734 26.0605H89.3466C89.3466 26.6423 89.1435 27.1435 88.7328 27.5597C88.3221 27.9759 87.8319 28.1817 87.2533 28.1817H72.6002ZM80.9734 23.9393C80.3993 23.9393 79.9047 23.7335 79.4939 23.3173C79.0832 22.9011 78.8801 22.4043 78.8801 21.8181V15.4545C78.8801 14.8727 79.0832 14.3715 79.4939 13.9553C79.9047 13.5391 80.3949 13.3332 80.9734 13.3332H88.3C88.8741 13.3332 89.3687 13.5391 89.7794 13.9553C90.1902 14.3715 90.3933 14.8682 90.3933 15.4545V21.8181C90.3933 22.3999 90.1902 22.9011 89.7794 23.3173C89.3687 23.7335 88.8785 23.9393 88.3 23.9393H80.9734ZM84.1134 20.2249C84.5682 20.2249 84.9436 20.0728 85.2395 19.773C85.5354 19.4731 85.6856 19.0927 85.6856 18.6318C85.6856 18.1709 85.5354 17.7905 85.2395 17.4906C84.9436 17.1908 84.5682 17.0387 84.1134 17.0387C83.6585 17.0387 83.2831 17.1908 82.9872 17.4906C82.6913 17.7905 82.5412 18.1709 82.5412 18.6318C82.5412 19.0927 82.6913 19.4731 82.9872 19.773C83.2831 20.0728 83.6585 20.2249 84.1134 20.2249Z" fill="white"/>
<path opacity="0.11" d="M206.096 0H112.991V36.3636H206.096V0Z" fill="white"/>
<path d="M118.109 36.8076H112.617V0.239258H118.109" stroke="white" stroke-miterlimit="10"/>
<path d="M200 0.239258H206.075V36.8076H200" stroke="white" stroke-miterlimit="10"/>
<path d="M130.449 22.6708C129.817 22.6708 129.281 22.5032 128.832 22.1728C128.387 21.8423 128.042 21.3634 127.808 20.7313C127.574 20.0992 127.454 19.3425 127.454 18.4518C127.454 17.561 127.574 16.8092 127.813 16.177C128.052 15.5497 128.392 15.0708 128.841 14.7403C129.291 14.4099 129.827 14.2471 130.449 14.2471C131.071 14.2471 131.611 14.4147 132.056 14.7451C132.501 15.0756 132.845 15.5545 133.084 16.1818C133.324 16.8092 133.443 17.5658 133.443 18.4518C133.443 19.3377 133.324 20.1039 133.089 20.7361C132.855 21.3634 132.51 21.8471 132.066 22.1776C131.621 22.508 131.08 22.6756 130.453 22.6756L130.449 22.6708ZM130.449 21.6029C131.004 21.6029 131.434 21.3347 131.745 20.7936C132.056 20.2524 132.214 19.4718 132.214 18.4518C132.214 17.7717 132.142 17.1971 131.999 16.7277C131.855 16.2584 131.654 15.8993 131.386 15.6598C131.123 15.4156 130.807 15.2958 130.444 15.2958C129.894 15.2958 129.463 15.5688 129.148 16.11C128.832 16.6511 128.674 17.4365 128.674 18.4566C128.674 19.1366 128.746 19.7113 128.889 20.1854C129.033 20.6547 129.234 21.0091 129.497 21.2533C129.76 21.4927 130.076 21.6125 130.444 21.6125L130.449 21.6029Z" fill="white"/>
<path d="M139.733 21.1764L135.145 16.5886L135.901 15.8319L140.489 20.4245L139.733 21.1812V21.1764ZM135.896 21.1764L135.141 20.4197L139.728 15.8271L140.484 16.5838L135.896 21.1716V21.1764Z" fill="white"/>
<path d="M145.101 22.6467C144.527 22.6467 144.025 22.5461 143.589 22.3498C143.154 22.1534 142.809 21.8805 142.561 21.5357C142.312 21.1909 142.192 20.7934 142.192 20.3528C142.192 20.008 142.259 19.6871 142.408 19.395C142.551 19.1029 142.752 18.8586 143.001 18.6623C143.25 18.4659 143.532 18.3414 143.838 18.2888V18.2409C143.431 18.1403 143.106 17.9248 142.862 17.5848C142.618 17.2448 142.499 16.8569 142.499 16.4163C142.499 15.9996 142.609 15.6261 142.833 15.2957C143.058 14.9652 143.369 14.7066 143.761 14.5199C144.154 14.3331 144.603 14.2373 145.106 14.2373C145.608 14.2373 146.048 14.3331 146.44 14.5246C146.833 14.7162 147.143 14.9748 147.368 15.3052C147.593 15.6357 147.708 16.0044 147.713 16.4211C147.713 16.8616 147.584 17.2496 147.34 17.5896C147.091 17.9296 146.77 18.1451 146.373 18.2457V18.2935C146.679 18.3462 146.957 18.4707 147.201 18.6671C147.445 18.8634 147.646 19.1077 147.789 19.3998C147.938 19.6919 148.014 20.008 148.014 20.3576C148.014 20.7982 147.885 21.1956 147.641 21.5404C147.392 21.8852 147.053 22.1582 146.612 22.3546C146.177 22.5509 145.675 22.6515 145.106 22.6515L145.101 22.6467ZM145.101 21.6362C145.44 21.6362 145.732 21.5788 145.976 21.4686C146.22 21.3585 146.416 21.1956 146.55 20.9945C146.684 20.7886 146.756 20.5539 146.756 20.2762C146.756 19.9936 146.679 19.7398 146.536 19.5195C146.392 19.2992 146.196 19.1316 145.948 19.0023C145.699 18.8778 145.417 18.8155 145.096 18.8155C144.776 18.8155 144.489 18.8778 144.24 19.0023C143.991 19.1268 143.795 19.2992 143.651 19.5195C143.508 19.7398 143.436 19.9888 143.441 20.2762C143.441 20.5491 143.503 20.7886 143.637 20.9945C143.771 21.1956 143.962 21.3585 144.216 21.4686C144.465 21.5835 144.761 21.6362 145.101 21.6362ZM145.101 17.829C145.374 17.829 145.613 17.7763 145.823 17.6662C146.034 17.556 146.201 17.4076 146.321 17.2112C146.44 17.0149 146.502 16.7898 146.507 16.5264C146.507 16.2726 146.445 16.0475 146.325 15.856C146.206 15.6644 146.043 15.516 145.833 15.4106C145.622 15.3052 145.378 15.2526 145.101 15.2526C144.823 15.2526 144.575 15.3052 144.359 15.4106C144.144 15.516 143.981 15.6644 143.867 15.856C143.752 16.0475 143.694 16.2726 143.694 16.5264C143.694 16.785 143.752 17.0149 143.871 17.2112C143.991 17.4076 144.158 17.556 144.369 17.6662C144.579 17.7763 144.823 17.829 145.101 17.829Z" fill="white"/>
<path d="M152.147 14.2227C152.511 14.2227 152.87 14.2897 153.224 14.4238C153.578 14.5531 153.898 14.7686 154.185 15.0655C154.472 15.3624 154.702 15.7647 154.869 16.2675C155.037 16.7704 155.127 17.3977 155.132 18.1544C155.132 18.8727 155.056 19.5097 154.917 20.0652C154.773 20.6255 154.568 21.0948 154.3 21.4779C154.032 21.861 153.707 22.1531 153.329 22.3543C152.951 22.5554 152.52 22.656 152.047 22.656C151.573 22.656 151.128 22.5602 150.75 22.3686C150.373 22.1771 150.066 21.9089 149.827 21.5737C149.593 21.2337 149.444 20.8458 149.382 20.4004H150.597C150.679 20.75 150.841 21.0373 151.085 21.2528C151.329 21.4683 151.65 21.5785 152.042 21.5785C152.64 21.5785 153.109 21.3151 153.444 20.7931C153.778 20.2711 153.946 19.5384 153.951 18.5998H153.889C153.75 18.8296 153.578 19.026 153.372 19.1888C153.166 19.3516 152.937 19.4809 152.678 19.5719C152.42 19.6629 152.152 19.706 151.86 19.706C151.391 19.706 150.961 19.5911 150.573 19.3564C150.186 19.1265 149.88 18.8057 149.65 18.4034C149.421 17.9963 149.311 17.5366 149.311 17.0146C149.311 16.4926 149.43 16.0185 149.665 15.5971C149.899 15.1757 150.229 14.8404 150.655 14.5962C151.081 14.352 151.578 14.2274 152.147 14.2322V14.2227ZM152.152 15.2619C151.841 15.2619 151.559 15.3385 151.31 15.4917C151.061 15.645 150.865 15.8557 150.722 16.1143C150.578 16.3729 150.506 16.665 150.506 16.9907C150.506 17.3163 150.578 17.5941 150.717 17.8527C150.856 18.1113 151.047 18.3172 151.291 18.4657C151.535 18.6141 151.812 18.6907 152.128 18.6907C152.363 18.6907 152.583 18.6476 152.783 18.5567C152.984 18.4657 153.161 18.3411 153.31 18.1783C153.458 18.0155 153.578 17.8335 153.664 17.6276C153.75 17.4217 153.793 17.2062 153.793 16.9811C153.793 16.6746 153.721 16.392 153.578 16.1287C153.434 15.8701 153.243 15.6593 152.994 15.5013C152.745 15.3433 152.463 15.2619 152.147 15.2619H152.152Z" fill="white"/>
<path d="M157.07 22.6084C156.85 22.6084 156.664 22.5318 156.506 22.3737C156.348 22.2157 156.271 22.0289 156.271 21.8086C156.271 21.5883 156.348 21.4016 156.506 21.2483C156.664 21.0903 156.85 21.0137 157.07 21.0137C157.29 21.0137 157.477 21.0903 157.635 21.2483C157.793 21.4064 157.869 21.5931 157.869 21.8086C157.869 21.9571 157.831 22.0864 157.759 22.2109C157.687 22.3306 157.592 22.4264 157.472 22.4982C157.353 22.5701 157.219 22.6084 157.075 22.6084H157.07Z" fill="white"/>
<path d="M160.251 22.6084C160.031 22.6084 159.844 22.5318 159.687 22.3737C159.529 22.2157 159.452 22.0289 159.452 21.8086C159.452 21.5883 159.529 21.4016 159.687 21.2483C159.844 21.0903 160.031 21.0137 160.251 21.0137C160.471 21.0137 160.658 21.0903 160.815 21.2483C160.973 21.4064 161.05 21.5931 161.05 21.8086C161.05 21.9571 161.012 22.0864 160.94 22.2109C160.868 22.3306 160.772 22.4264 160.653 22.4982C160.533 22.5701 160.399 22.6084 160.256 22.6084H160.251Z" fill="white"/>
<path d="M163.432 22.6084C163.212 22.6084 163.025 22.5318 162.867 22.3737C162.709 22.2157 162.633 22.0289 162.633 21.8086C162.633 21.5883 162.709 21.4016 162.867 21.2483C163.025 21.0903 163.212 21.0137 163.432 21.0137C163.652 21.0137 163.838 21.0903 163.996 21.2483C164.154 21.4064 164.231 21.5931 164.231 21.8086C164.231 21.9571 164.192 22.0864 164.121 22.2109C164.049 22.3306 163.953 22.4264 163.834 22.4982C163.714 22.5701 163.58 22.6084 163.436 22.6084H163.432Z" fill="white"/>
<path d="M168.565 22.5369H165.92V14.3574H168.647C169.445 14.3574 170.134 14.5202 170.708 14.8459C171.282 15.1715 171.723 15.6409 172.029 16.2491C172.335 16.8573 172.488 17.5852 172.488 18.4376C172.488 19.29 172.335 20.0227 172.024 20.6357C171.713 21.2487 171.268 21.718 170.68 22.0485C170.091 22.3789 169.388 22.5417 168.556 22.5417L168.565 22.5369ZM167.154 21.4546H168.498C169.12 21.4546 169.637 21.3349 170.048 21.1003C170.46 20.8656 170.771 20.5208 170.971 20.0754C171.177 19.6253 171.278 19.0793 171.278 18.4328C171.278 17.7863 171.177 17.2452 170.971 16.7998C170.766 16.3544 170.464 16.0144 170.063 15.7797C169.661 15.5499 169.163 15.4301 168.565 15.4301H167.145V21.4498L167.154 21.4546Z" fill="white"/>
<path d="M175.712 22.6714C175.324 22.6714 174.97 22.5996 174.66 22.4559C174.344 22.3123 174.1 22.1015 173.913 21.8238C173.732 21.546 173.641 21.206 173.641 20.8037C173.641 20.4589 173.708 20.1716 173.842 19.9513C173.975 19.7262 174.152 19.549 174.382 19.4197C174.607 19.2904 174.86 19.1899 175.138 19.1228C175.415 19.0558 175.702 19.0079 175.989 18.9696C176.358 18.9265 176.654 18.893 176.884 18.8642C177.114 18.8355 177.281 18.7924 177.381 18.7253C177.482 18.6583 177.539 18.5577 177.539 18.4141V18.3853C177.539 18.0357 177.444 17.7675 177.248 17.576C177.051 17.3844 176.76 17.2887 176.377 17.2887C175.994 17.2887 175.659 17.3796 175.43 17.552C175.2 17.7292 175.042 17.9256 174.951 18.1411L173.832 17.8873C173.966 17.5137 174.162 17.212 174.416 16.9822C174.674 16.7523 174.97 16.5847 175.305 16.4793C175.64 16.374 175.994 16.3213 176.363 16.3213C176.607 16.3213 176.865 16.35 177.142 16.4075C177.42 16.465 177.673 16.5703 177.917 16.7188C178.161 16.8672 178.357 17.0875 178.51 17.3653C178.663 17.6478 178.74 18.0118 178.74 18.4572V22.5325H177.578V21.6945H177.53C177.453 21.8477 177.338 22.001 177.181 22.1494C177.027 22.2979 176.827 22.4224 176.587 22.523C176.348 22.6235 176.056 22.6714 175.717 22.6714H175.712ZM175.97 21.7136C176.3 21.7136 176.583 21.6466 176.817 21.5173C177.051 21.388 177.233 21.2156 177.358 21.0049C177.482 20.7942 177.544 20.5643 177.544 20.3248V19.5347C177.501 19.5778 177.42 19.6161 177.3 19.6544C177.181 19.6927 177.042 19.7214 176.889 19.7454C176.736 19.7693 176.583 19.7933 176.439 19.8124C176.291 19.8316 176.171 19.8507 176.071 19.8603C175.841 19.8891 175.631 19.9369 175.439 20.0088C175.248 20.0758 175.1 20.1764 174.985 20.3057C174.87 20.435 174.817 20.6074 174.817 20.8181C174.817 21.115 174.927 21.3353 175.143 21.4886C175.358 21.6418 175.64 21.7136 175.975 21.7136H175.97Z" fill="white"/>
<path d="M183.242 16.4016V17.3594H179.778V16.4016H183.242ZM180.725 22.5363V15.6929C180.725 15.3097 180.812 14.9889 180.979 14.7351C181.146 14.4813 181.367 14.2897 181.644 14.1652C181.921 14.0407 182.223 13.9736 182.543 13.9736C182.782 13.9736 182.988 13.9928 183.156 14.0311C183.328 14.0694 183.452 14.1029 183.534 14.1365L183.256 15.1038C183.199 15.0895 183.127 15.0703 183.041 15.0464C182.955 15.0224 182.845 15.0128 182.72 15.0128C182.428 15.0128 182.223 15.0847 182.098 15.2283C181.974 15.372 181.912 15.5779 181.912 15.8509V22.5363H180.721H180.725Z" fill="white"/>
<path d="M184.561 22.5369V14.3574H187.551C188.13 14.3574 188.613 14.4532 188.991 14.6448C189.369 14.8363 189.656 15.0901 189.842 15.4158C190.029 15.7414 190.125 16.1054 190.125 16.5077C190.125 16.8477 190.063 17.135 189.938 17.3697C189.814 17.6043 189.646 17.7911 189.436 17.93C189.225 18.0689 188.996 18.1694 188.747 18.2365V18.3179C189.02 18.3322 189.283 18.4184 189.541 18.5813C189.799 18.7441 190.015 18.9692 190.187 19.2661C190.359 19.563 190.44 19.9222 190.44 20.3436C190.44 20.765 190.345 21.1386 190.149 21.469C189.953 21.7994 189.651 22.0628 189.245 22.2544C188.838 22.4459 188.317 22.5417 187.685 22.5417H184.552L184.561 22.5369ZM185.796 17.8965H187.446C187.723 17.8965 187.972 17.8438 188.192 17.7384C188.412 17.6331 188.589 17.4798 188.723 17.2883C188.857 17.0967 188.919 16.8668 188.919 16.6034C188.919 16.2634 188.8 15.9809 188.565 15.751C188.331 15.5211 187.967 15.4062 187.475 15.4062H185.791V17.8917L185.796 17.8965ZM185.796 21.4786H187.575C188.163 21.4786 188.589 21.3636 188.843 21.1338C189.096 20.9039 189.225 20.6166 189.225 20.2766C189.225 20.018 189.158 19.7833 189.029 19.5678C188.9 19.3523 188.714 19.1799 188.474 19.0506C188.235 18.9213 187.948 18.859 187.618 18.859H185.796V21.4786Z" fill="white"/>
<path d="M2.73621 54.3407L0.46875 46.166H1.76512L3.35809 52.5018H3.43462L5.08977 46.166H6.37658L8.03173 52.5018H8.10827L9.69645 46.166H10.9976L8.73014 54.3455H7.49117L5.77384 48.2205H5.71165L3.99431 54.3455H2.75056L2.73621 54.3407Z" fill="white"/>
<path d="M13.208 54.479C12.8206 54.479 12.4666 54.4072 12.1556 54.2635C11.8399 54.1199 11.596 53.9092 11.4094 53.6314C11.2276 53.3536 11.1367 53.0136 11.1367 52.6114C11.1367 52.2666 11.2037 51.9792 11.3376 51.7589C11.4716 51.5338 11.6486 51.3567 11.8782 51.2274C12.103 51.0981 12.3566 50.9975 12.634 50.9304C12.9115 50.8634 13.1985 50.8155 13.4855 50.7772C13.8538 50.7341 14.1504 50.7006 14.38 50.6718C14.6097 50.6431 14.7771 50.6 14.8775 50.533C14.978 50.4659 15.0354 50.3653 15.0354 50.2217V50.1929C15.0354 49.8433 14.9397 49.5752 14.7436 49.3836C14.5475 49.1921 14.2557 49.0963 13.873 49.0963C13.4903 49.0963 13.1554 49.1873 12.9258 49.3597C12.6962 49.5369 12.5383 49.7332 12.4474 49.9487L11.3281 49.6949C11.462 49.3214 11.6581 49.0196 11.9117 48.7898C12.17 48.5599 12.4666 48.3923 12.8014 48.2869C13.1363 48.1816 13.4903 48.1289 13.8586 48.1289C14.1026 48.1289 14.3609 48.1576 14.6384 48.2151C14.9158 48.2726 15.1694 48.3779 15.4133 48.5264C15.6573 48.6748 15.8534 48.8951 16.0065 49.1729C16.1596 49.4554 16.2361 49.8194 16.2361 50.2648V54.3402H15.0737V53.5021H15.0258C14.9493 53.6553 14.8345 53.8086 14.6766 53.9571C14.5236 54.1055 14.3226 54.23 14.0835 54.3306C13.8443 54.4312 13.5525 54.479 13.2128 54.479H13.208ZM13.4664 53.5213C13.7964 53.5213 14.0787 53.4542 14.3131 53.3249C14.5475 53.1956 14.7293 53.0232 14.8536 52.8125C14.978 52.6018 15.0402 52.3719 15.0402 52.1325V51.3423C14.9971 51.3854 14.9158 51.4237 14.7962 51.462C14.6766 51.5003 14.5379 51.5291 14.3848 51.553C14.2318 51.5769 14.0787 51.6009 13.9352 51.62C13.7869 51.6392 13.6673 51.6584 13.5668 51.6679C13.3372 51.6967 13.1267 51.7446 12.9354 51.8164C12.744 51.8834 12.5957 51.984 12.4809 52.1133C12.3661 52.2426 12.3135 52.415 12.3135 52.6257C12.3135 52.9226 12.4235 53.1429 12.6388 53.2962C12.8541 53.4494 13.1363 53.5213 13.4711 53.5213H13.4664Z" fill="white"/>
<path d="M17.8192 54.3408V48.2061H18.9721V49.1783H19.0343C19.1443 48.8479 19.3452 48.5892 19.6275 48.3977C19.9097 48.2061 20.2302 48.1104 20.589 48.1104C20.6655 48.1104 20.7516 48.1104 20.8521 48.1199C20.9525 48.1247 21.0339 48.1295 21.0913 48.1391V49.2789C21.0434 49.2645 20.9573 49.2501 20.8377 49.231C20.7134 49.2118 20.5938 49.207 20.4694 49.207C20.1872 49.207 19.9384 49.2645 19.7184 49.3842C19.4983 49.5039 19.3261 49.6668 19.1969 49.8775C19.0678 50.0882 19.0056 50.3228 19.0056 50.591V54.336H17.8145L17.8192 54.3408Z" fill="white"/>
<path d="M22.1338 56.6436V48.2103H23.301V49.2064H23.4015C23.4684 49.0771 23.5689 48.9287 23.7028 48.761C23.832 48.5934 24.0138 48.445 24.2434 48.3205C24.473 48.196 24.7792 48.1289 25.1619 48.1289C25.6546 48.1289 26.0994 48.2534 26.4869 48.5024C26.8744 48.7515 27.1806 49.1154 27.4006 49.5847C27.6207 50.0541 27.7355 50.6239 27.7355 51.2848C27.7355 51.9457 27.6254 52.5156 27.4054 52.9897C27.1853 53.4638 26.8792 53.8277 26.4965 54.0816C26.109 54.3354 25.6689 54.4647 25.1762 54.4647C24.8031 54.4647 24.5017 54.4024 24.2625 54.2779C24.0233 54.1534 23.8416 54.0049 23.7076 53.8373C23.5737 53.6697 23.4732 53.5213 23.4015 53.392H23.3297V56.6484H22.1386L22.1338 56.6436ZM23.301 51.2752C23.301 51.7062 23.3632 52.0846 23.4876 52.4102C23.6119 52.7359 23.7937 52.9897 24.0281 53.1717C24.2625 53.3536 24.5543 53.4446 24.8987 53.4446C25.2432 53.4446 25.5541 53.3489 25.7933 53.1573C26.0325 52.9657 26.2143 52.7071 26.3386 52.3815C26.463 52.0558 26.5252 51.6871 26.5252 51.2752C26.5252 50.8634 26.463 50.509 26.3434 50.1834C26.2238 49.8625 26.042 49.6087 25.8029 49.4219C25.5637 49.2352 25.2623 49.1442 24.9035 49.1442C24.5448 49.1442 24.2673 49.2352 24.0281 49.4123C23.7889 49.5895 23.6119 49.8386 23.4876 50.1594C23.3632 50.4803 23.3058 50.8538 23.3058 51.2752H23.301Z" fill="white"/>
<path d="M34.7821 54.3397H32.1367V46.1602H34.8634C35.6623 46.1602 36.3511 46.323 36.9252 46.6486C37.4992 46.9743 37.9393 47.4436 38.2455 48.0518C38.5516 48.66 38.7047 49.3879 38.7047 50.2403C38.7047 51.0928 38.5516 51.8255 38.2407 52.4385C37.9297 53.0514 37.4849 53.5208 36.8965 53.8512C36.3081 54.1816 35.6049 54.3445 34.7725 54.3445L34.7821 54.3397ZM33.3709 53.2622H34.7151C35.337 53.2622 35.8536 53.1424 36.265 52.9078C36.6764 52.6731 36.9874 52.3283 37.1883 51.8829C37.394 51.4328 37.4944 50.8868 37.4944 50.2403C37.4944 49.5938 37.394 49.0527 37.1883 48.6073C36.9826 48.1619 36.6812 47.8219 36.2794 47.5873C35.8775 47.3574 35.38 47.2377 34.7821 47.2377H33.3613V53.2574L33.3709 53.2622Z" fill="white"/>
<path d="M40.1493 54.3408V48.2061H41.3022V49.1783H41.3644C41.4744 48.8479 41.6753 48.5892 41.9575 48.3977C42.2398 48.2061 42.5603 48.1104 42.9191 48.1104C42.9956 48.1104 43.0817 48.1104 43.1822 48.1199C43.2826 48.1247 43.3639 48.1295 43.4213 48.1391V49.2789C43.3735 49.2645 43.2874 49.2501 43.1678 49.231C43.0434 49.2118 42.9238 49.207 42.7995 49.207C42.5172 49.207 42.2685 49.2645 42.0484 49.3842C41.8284 49.5039 41.6562 49.6668 41.527 49.8775C41.3979 50.0882 41.3357 50.3228 41.3357 50.591V54.336H40.1445L40.1493 54.3408Z" fill="white"/>
<path d="M45.0665 47.262C44.8608 47.262 44.6838 47.1901 44.5355 47.0513C44.3872 46.9124 44.3154 46.7448 44.3154 46.5484C44.3154 46.3521 44.3872 46.1845 44.5355 46.0408C44.6838 45.9019 44.8608 45.8301 45.0665 45.8301C45.2722 45.8301 45.4492 45.9019 45.5975 46.0408C45.7457 46.1797 45.8175 46.3473 45.8175 46.5484C45.8175 46.7496 45.7457 46.9076 45.5975 47.0513C45.4492 47.1901 45.2722 47.262 45.0665 47.262ZM44.4637 54.34V48.2054H45.6549V54.34H44.4637Z" fill="white"/>
<path d="M52.5006 48.21L50.2809 54.3446H49.0037L46.7793 48.21H48.0613L49.6112 52.9319H49.6734L51.2233 48.21H52.5053H52.5006Z" fill="white"/>
<path d="M56.0508 54.4648C55.4481 54.4648 54.9267 54.3355 54.4914 54.0769C54.0561 53.8183 53.7212 53.4495 53.4868 52.9802C53.2524 52.5109 53.1328 51.9554 53.1328 51.3184C53.1328 50.6815 53.2524 50.1356 53.4868 49.6567C53.7212 49.1778 54.0513 48.8042 54.477 48.5361C54.9028 48.2679 55.3955 48.1338 55.9647 48.1338C56.3092 48.1338 56.644 48.1913 56.9693 48.3062C57.2946 48.4211 57.5864 48.5983 57.8447 48.8473C58.103 49.0916 58.304 49.4076 58.457 49.8003C58.6101 50.193 58.6819 50.6623 58.6819 51.2179V51.6393H53.8121V50.7438H57.5147C57.5147 50.4277 57.4525 50.1499 57.3233 49.9057C57.1941 49.6615 57.0172 49.4699 56.7875 49.331C56.5579 49.1921 56.29 49.1203 55.9791 49.1203C55.6442 49.1203 55.3524 49.2017 55.1037 49.3645C54.8549 49.5274 54.6636 49.7429 54.5296 50.0015C54.3957 50.2649 54.3287 50.5474 54.3287 50.8539V51.5531C54.3287 51.9649 54.4005 52.3097 54.544 52.5971C54.6875 52.8844 54.8932 53.1047 55.1515 53.2532C55.4098 53.4016 55.716 53.4782 56.0652 53.4782C56.29 53.4782 56.4957 53.4447 56.6823 53.3825C56.8689 53.3202 57.0315 53.2196 57.1654 53.0903C57.2994 52.961 57.4046 52.7982 57.4764 52.6067L58.6053 52.8126C58.5144 53.1478 58.3518 53.4351 58.1222 53.6842C57.8878 53.9332 57.596 54.1248 57.2468 54.2636C56.8976 54.4025 56.5005 54.4696 56.0508 54.4696V54.4648Z" fill="white"/>
<path d="M60.7911 49.9531C60.571 49.9531 60.3844 49.8765 60.2266 49.7185C60.0687 49.5604 59.9922 49.3737 59.9922 49.1534C59.9922 48.9331 60.0687 48.7463 60.2266 48.5931C60.3844 48.435 60.571 48.3584 60.7911 48.3584C61.0111 48.3584 61.1977 48.435 61.3555 48.5931C61.5134 48.7511 61.5899 48.9379 61.5899 49.1534C61.5899 49.3018 61.5517 49.4359 61.4799 49.5556C61.4082 49.6754 61.3125 49.7711 61.1929 49.843C61.0733 49.9148 60.9394 49.9531 60.7958 49.9531H60.7911ZM60.7911 54.4164C60.571 54.4164 60.3844 54.3398 60.2266 54.1818C60.0687 54.0237 59.9922 53.8369 59.9922 53.6167C59.9922 53.3964 60.0687 53.2096 60.2266 53.0564C60.3844 52.8983 60.571 52.8217 60.7911 52.8217C61.0111 52.8217 61.1977 52.8983 61.3555 53.0564C61.5134 53.2144 61.5899 53.4012 61.5899 53.6167C61.5899 53.7651 61.5517 53.8944 61.4799 54.0189C61.4082 54.1387 61.3125 54.2344 61.1929 54.3063C61.0733 54.3781 60.9394 54.4164 60.7958 54.4164H60.7911Z" fill="white"/>
<path d="M1.13857 69.8758V61.6963H6.20448V62.7594H2.36798V65.2497H5.83613V66.308H2.36798V69.8758H1.13379H1.13857Z" fill="white"/>
<path d="M11.1228 67.3329V63.7412H12.3187V69.8758H11.1467V68.8127H11.0845C10.9458 69.1383 10.7162 69.4113 10.4101 69.6316C10.1039 69.8519 9.71642 69.9573 9.25719 69.9573C8.86493 69.9573 8.51572 69.8711 8.21435 69.6939C7.91298 69.5215 7.67379 69.2629 7.50636 68.9181C7.33894 68.5733 7.24805 68.1518 7.24805 67.6442V63.7412H8.43918V67.5005C8.43918 67.9172 8.55399 68.2524 8.78839 68.4966C9.02279 68.7409 9.31938 68.8702 9.68772 68.8702C9.91255 68.8702 10.1326 68.8127 10.3574 68.7026C10.5823 68.5924 10.764 68.42 10.9123 68.1949C11.0606 67.9698 11.1324 67.6825 11.1276 67.3329H11.1228Z" fill="white"/>
<path d="M16.5567 70.0009C15.954 70.0009 15.4325 69.8716 14.9972 69.613C14.5619 69.3544 14.2271 68.9857 13.9927 68.5163C13.7583 68.047 13.6387 67.4915 13.6387 66.8546C13.6387 66.2176 13.7583 65.6717 13.9927 65.1928C14.2271 64.7139 14.5571 64.3404 14.9829 64.0722C15.4086 63.804 15.9013 63.6699 16.4706 63.6699C16.815 63.6699 17.1499 63.7274 17.4752 63.8423C17.8005 63.9573 18.0923 64.1345 18.3506 64.3835C18.6089 64.6277 18.8098 64.9438 18.9629 65.3365C19.116 65.7292 19.1877 66.1985 19.1877 66.754V67.1754H14.318V66.2799H18.0205C18.0205 65.9638 17.9583 65.6861 17.8292 65.4418C17.7 65.1976 17.523 65.006 17.2934 64.8672C17.0638 64.7283 16.7959 64.6564 16.485 64.6564C16.1501 64.6564 15.8583 64.7379 15.6095 64.9007C15.3608 65.0635 15.1694 65.279 15.0355 65.5376C14.9016 65.801 14.8346 66.0836 14.8346 66.39V67.0892C14.8346 67.5011 14.9063 67.8459 15.0499 68.1332C15.1934 68.4206 15.3991 68.6408 15.6574 68.7893C15.9157 68.9378 16.2219 69.0144 16.5711 69.0144C16.7959 69.0144 17.0016 68.9809 17.1882 68.9186C17.3747 68.8564 17.5374 68.7558 17.6713 68.6265C17.8052 68.4972 17.9105 68.3344 17.9822 68.1428L19.1112 68.3487C19.0203 68.6839 18.8577 68.9713 18.628 69.2203C18.3936 69.4693 18.1018 69.6609 17.7526 69.7998C17.4034 69.9387 17.0064 70.0057 16.5567 70.0057V70.0009Z" fill="white"/>
<path d="M21.7077 61.6963V69.8758H20.5166V61.6963H21.7077Z" fill="white"/>
<path d="M33.1704 64.3539H31.9266C31.8788 64.0858 31.7879 63.8511 31.6587 63.65C31.5296 63.4488 31.3669 63.2764 31.1804 63.1328C30.9938 62.9939 30.7785 62.8837 30.5489 62.8119C30.3145 62.7401 30.0705 62.7018 29.8074 62.7018C29.3386 62.7018 28.9177 62.8215 28.5446 63.0561C28.1714 63.2908 27.8796 63.6404 27.6691 64.1001C27.4539 64.5599 27.3486 65.1154 27.3486 65.7763C27.3486 66.4371 27.4539 67.0022 27.6691 67.462C27.8844 67.9217 28.1762 68.2665 28.5493 68.5012C28.9225 68.7358 29.3386 68.8508 29.8074 68.8508C30.0658 68.8508 30.3097 68.8172 30.5441 68.7454C30.7785 68.6736 30.989 68.5682 31.1756 68.4341C31.3621 68.3 31.5248 68.1276 31.6539 67.9265C31.7831 67.7254 31.8788 67.4955 31.9266 67.2321H33.1704C33.1034 67.6392 32.9742 68.0079 32.7877 68.3431C32.6011 68.6784 32.3524 68.9705 32.0558 69.2147C31.7592 69.459 31.4195 69.6457 31.0416 69.7798C30.6637 69.9139 30.2475 69.981 29.7979 69.981C29.0899 69.981 28.4585 69.8133 27.9083 69.4781C27.3582 69.1429 26.9181 68.6592 26.6024 68.0319C26.2867 67.4045 26.124 66.6526 26.124 65.7858C26.124 64.919 26.2819 64.1624 26.6024 63.535C26.9229 62.9077 27.3582 62.4288 27.9131 62.0888C28.468 61.7535 29.0947 61.5859 29.7979 61.5859C30.2332 61.5859 30.635 61.6482 31.0129 61.7727C31.3908 61.8972 31.7257 62.0792 32.0271 62.3139C32.3284 62.5485 32.5772 62.8406 32.7733 63.1854C32.9695 63.5255 33.1034 63.9182 33.1704 64.3587V64.3539Z" fill="white"/>
<path d="M37.1885 70.0009C36.5858 70.0009 36.0644 69.8716 35.6291 69.613C35.1938 69.3544 34.8589 68.9857 34.6245 68.5163C34.3901 68.047 34.2705 67.4915 34.2705 66.8546C34.2705 66.2176 34.3901 65.6717 34.6245 65.1928C34.8589 64.7139 35.189 64.3404 35.6147 64.0722C36.0405 63.804 36.5332 63.6699 37.1024 63.6699C37.4469 63.6699 37.7817 63.7274 38.107 63.8423C38.4323 63.9573 38.7241 64.1345 38.9824 64.3835C39.2407 64.6277 39.4417 64.9438 39.5947 65.3365C39.7478 65.7292 39.8196 66.1985 39.8196 66.754V67.1754H34.9498V66.2799H38.6523C38.6523 65.9638 38.5902 65.6861 38.461 65.4418C38.3318 65.1976 38.1548 65.006 37.9252 64.8672C37.6956 64.7283 37.4277 64.6564 37.1168 64.6564C36.7819 64.6564 36.4901 64.7379 36.2414 64.9007C35.9926 65.0635 35.8013 65.279 35.6673 65.5376C35.5334 65.801 35.4664 66.0836 35.4664 66.39V67.0892C35.4664 67.5011 35.5382 67.8459 35.6817 68.1332C35.8252 68.4206 36.0309 68.6408 36.2892 68.7893C36.5475 68.9378 36.8537 69.0144 37.2029 69.0144C37.4277 69.0144 37.6334 68.9809 37.82 68.9186C38.0066 68.8564 38.1692 68.7558 38.3031 68.6265C38.4371 68.4972 38.5423 68.3344 38.6141 68.1428L39.743 68.3487C39.6521 68.6839 39.4895 68.9713 39.2599 69.2203C39.0255 69.4693 38.7337 69.6609 38.3845 69.7998C38.0353 69.9387 37.6382 70.0057 37.1885 70.0057V70.0009Z" fill="white"/>
<path d="M42.3405 61.6963V69.8758H41.1494V61.6963H42.3405Z" fill="white"/>
<path d="M45.1345 61.6963V69.8758H43.9434V61.6963H45.1345Z" fill="white"/>
<path d="M51.329 65.2399L50.2478 65.4314C50.2048 65.2925 50.133 65.1632 50.0326 65.0339C49.9321 64.9046 49.803 64.8041 49.6403 64.7275C49.4777 64.6508 49.2672 64.6077 49.0232 64.6077C48.6836 64.6077 48.4014 64.6844 48.1765 64.8328C47.9517 64.9813 47.8369 65.1776 47.8369 65.4123C47.8369 65.6182 47.9134 65.781 48.0665 65.9055C48.2196 66.03 48.4635 66.1354 48.7984 66.212L49.7695 66.4371C50.334 66.5664 50.7549 66.7675 51.0324 67.0405C51.3098 67.3135 51.4486 67.6631 51.4486 68.0989C51.4486 68.4676 51.3433 68.7933 51.1328 69.0806C50.9223 69.3679 50.6258 69.593 50.2526 69.7558C49.8747 69.9187 49.4394 70.0001 48.9467 70.0001C48.2626 70.0001 47.7029 69.8516 47.2676 69.5595C46.8323 69.2674 46.5692 68.8459 46.4688 68.3048L47.6216 68.1276C47.6934 68.4293 47.8417 68.6544 48.0665 68.8076C48.2913 68.9609 48.5831 69.0375 48.9419 69.0375C49.3342 69.0375 49.6451 68.9561 49.8795 68.7933C50.1139 68.6304 50.2287 68.4293 50.2287 68.1946C50.2287 68.0031 50.157 67.8403 50.0134 67.711C49.8699 67.5817 49.6547 67.4811 49.3629 67.4141L48.3248 67.1842C47.7508 67.0549 47.3298 66.8442 47.0571 66.5616C46.7845 66.2743 46.6505 65.9151 46.6505 65.4793C46.6505 65.1154 46.751 64.7993 46.9519 64.5311C47.1528 64.2581 47.4351 64.0474 47.789 63.8942C48.143 63.7409 48.5544 63.6643 49.0137 63.6643C49.6738 63.6643 50.1952 63.808 50.5779 64.0953C50.9606 64.3826 51.2094 64.7658 51.3337 65.2447L51.329 65.2399Z" fill="white"/>
<path d="M53.544 65.4844C53.3239 65.4844 53.1374 65.4077 52.9795 65.2497C52.8217 65.0917 52.7451 64.9049 52.7451 64.6846C52.7451 64.4643 52.8217 64.2775 52.9795 64.1243C53.1374 63.9663 53.3239 63.8896 53.544 63.8896C53.764 63.8896 53.9506 63.9663 54.1085 64.1243C54.2663 64.2823 54.3429 64.4691 54.3429 64.6846C54.3429 64.8331 54.3046 64.9672 54.2328 65.0869C54.1611 65.2066 54.0654 65.3024 53.9458 65.3742C53.8262 65.4461 53.6923 65.4844 53.5488 65.4844H53.544ZM53.544 69.9525C53.3239 69.9525 53.1374 69.8758 52.9795 69.7178C52.8217 69.5598 52.7451 69.373 52.7451 69.1527C52.7451 68.9324 52.8217 68.7456 52.9795 68.5924C53.1374 68.4344 53.3239 68.3577 53.544 68.3577C53.764 68.3577 53.9506 68.4344 54.1085 68.5924C54.2663 68.7504 54.3429 68.9372 54.3429 69.1527C54.3429 69.3012 54.3046 69.4305 54.2328 69.555C54.1611 69.6747 54.0654 69.7705 53.9458 69.8423C53.8262 69.9141 53.6923 69.9525 53.5488 69.9525H53.544Z" fill="white"/>
<path d="M62.8001 63.1377C63.2354 63.1377 63.6325 63.2 63.9961 63.3293C64.3596 63.4538 64.6849 63.6214 64.9767 63.8225C65.2685 64.0237 65.5268 64.2296 65.7469 64.4451C65.8713 64.56 65.9813 64.6749 66.0817 64.7851C66.1822 64.8952 66.2779 65.0054 66.3688 65.1203C66.4549 65.0102 66.541 64.9 66.6319 64.7947C66.7227 64.6893 66.8376 64.5744 66.9715 64.4451C67.3064 64.1194 67.7177 63.8225 68.2153 63.5495C68.708 63.2766 69.2868 63.1425 69.9374 63.1425C70.5497 63.1425 71.1046 63.2909 71.6069 63.5879C72.1092 63.8848 72.511 64.2823 72.8076 64.7803C73.1042 65.2784 73.2525 65.8291 73.2525 66.4325C73.2525 66.8922 73.1663 67.3232 72.9941 67.7207C72.8219 68.1182 72.5827 68.4726 72.2814 68.7695C71.98 69.0664 71.626 69.3059 71.2242 69.4735C70.8223 69.6459 70.3918 69.7273 69.9326 69.7273C69.4734 69.7273 69.0954 69.665 68.7319 69.5405C68.3683 69.416 68.0383 69.258 67.7464 69.0616C67.4546 68.8653 67.1963 68.6641 66.9763 68.4582C66.8519 68.3337 66.7371 68.214 66.6414 68.099C66.5457 67.9841 66.4549 67.874 66.3688 67.7638C66.2731 67.874 66.1774 67.9889 66.077 68.1038C65.9765 68.2188 65.8665 68.3385 65.7421 68.4582C65.522 68.6641 65.2685 68.8653 64.9767 69.0568C64.6849 69.2484 64.3596 69.4112 63.9961 69.5357C63.6325 69.6602 63.2354 69.7273 62.8001 69.7273C62.183 69.7273 61.6186 69.5788 61.1211 69.2867C60.6188 68.9898 60.2217 68.5971 59.9204 68.0943C59.6238 67.5962 59.4707 67.0407 59.4707 66.4277C59.4707 65.9728 59.5568 65.5465 59.7242 65.1491C59.8964 64.7516 60.1308 64.402 60.437 64.1003C60.7432 63.7986 61.0924 63.5639 61.499 63.3915C61.9008 63.2191 62.3361 63.1377 62.8001 63.1377ZM61.0589 66.4277C61.0589 66.7438 61.1354 67.0359 61.2933 67.2945C61.4511 67.5531 61.6616 67.7638 61.9247 67.9123C62.1878 68.0607 62.4796 68.1421 62.8001 68.1421C63.1589 68.1421 63.489 68.0607 63.7904 67.9027C64.0917 67.7399 64.374 67.5387 64.6323 67.2945C64.7949 67.1365 64.9384 66.988 65.058 66.8396C65.1776 66.6959 65.2781 66.557 65.369 66.4277C65.2781 66.3032 65.1681 66.1691 65.0437 66.0159C64.9193 65.8626 64.7806 65.7189 64.6323 65.5801C64.3883 65.3406 64.1109 65.1347 63.7999 64.9671C63.489 64.7995 63.1541 64.718 62.7954 64.718C62.4748 64.718 62.183 64.7947 61.9199 64.9527C61.6568 65.1107 61.4464 65.3167 61.2885 65.5705C61.1306 65.8291 61.0541 66.1116 61.0541 66.4229L61.0589 66.4277ZM71.6547 66.4277C71.6547 66.1164 71.5782 65.8339 71.4203 65.5753C71.2624 65.3167 71.0567 65.1107 70.7984 64.9575C70.5401 64.8042 70.2483 64.7228 69.9326 64.7228C69.6886 64.7228 69.4542 64.7611 69.2342 64.8378C69.0141 64.9144 68.8036 65.0197 68.6123 65.1491C68.4209 65.2784 68.244 65.4268 68.0813 65.5848C67.9091 65.7477 67.756 65.9105 67.6269 66.0733C67.4977 66.2361 67.402 66.3559 67.3446 66.4277C67.4403 66.5618 67.5455 66.7007 67.6651 66.8443C67.7847 66.988 67.9234 67.1365 68.0765 67.2945C68.3348 67.5387 68.6123 67.7447 68.9185 67.9027C69.2246 68.0655 69.5595 68.1421 69.9326 68.1421C70.2483 68.1421 70.5401 68.0655 70.7984 67.9123C71.0567 67.759 71.2672 67.5531 71.4203 67.2945C71.5734 67.0359 71.6547 66.7438 71.6547 66.4277Z" fill="#15D133"/>
<path d="M68.0763 54.46H66.7656L69.7076 46.2805H71.1331L74.0751 54.46H72.7643L70.4538 47.7651H70.3916L68.0763 54.46ZM68.2964 51.261H72.5395V52.3002H68.2964V51.261Z" fill="#15D133"/>
<path d="M79.6295 48.3301L77.4099 54.4647H76.1326L73.9082 48.3301H75.1902L76.7401 53.052H76.8023L78.3522 48.3301H79.6343H79.6295Z" fill="#15D133"/>
<path d="M82.3506 54.5992C81.9631 54.5992 81.6092 54.5273 81.2982 54.3837C80.9825 54.24 80.7385 54.0293 80.552 53.7515C80.3702 53.4738 80.2793 53.1337 80.2793 52.7315C80.2793 52.3867 80.3463 52.0993 80.4802 51.879C80.6142 51.654 80.7911 51.4768 81.0208 51.3475C81.2456 51.2182 81.4991 51.1176 81.7766 51.0506C82.054 50.9835 82.3411 50.9356 82.6281 50.8973C82.9964 50.8542 83.293 50.8207 83.5226 50.792C83.7522 50.7632 83.9197 50.7201 84.0201 50.6531C84.1206 50.586 84.178 50.4855 84.178 50.3418V50.3131C84.178 49.9635 84.0823 49.6953 83.8862 49.5037C83.69 49.3122 83.3982 49.2164 83.0155 49.2164C82.6329 49.2164 82.298 49.3074 82.0684 49.4798C81.8388 49.657 81.6809 49.8533 81.59 50.0688L80.4706 49.815C80.6046 49.4415 80.8007 49.1398 81.0542 48.9099C81.3126 48.68 81.6092 48.5124 81.944 48.4071C82.2789 48.3017 82.6329 48.249 83.0012 48.249C83.2452 48.249 83.5035 48.2778 83.7809 48.3352C84.0584 48.3927 84.3119 48.498 84.5559 48.6465C84.7999 48.795 84.996 49.0153 85.1491 49.293C85.3021 49.5756 85.3787 49.9395 85.3787 50.3849V54.4603H84.2163V53.6222H84.1684C84.0919 53.7755 83.9771 53.9287 83.8192 54.0772C83.6661 54.2256 83.4652 54.3501 83.226 54.4507C82.9868 54.5513 82.695 54.5992 82.3554 54.5992H82.3506ZM82.6089 53.6414C82.939 53.6414 83.2213 53.5743 83.4557 53.445C83.6901 53.3157 83.8718 53.1433 83.9962 52.9326C84.1206 52.7219 84.1828 52.492 84.1828 52.2526V51.4624C84.1397 51.5055 84.0584 51.5438 83.9388 51.5821C83.8192 51.6204 83.6805 51.6492 83.5274 51.6731C83.3743 51.6971 83.2212 51.721 83.0777 51.7402C82.9294 51.7593 82.8099 51.7785 82.7094 51.7881C82.4798 51.8168 82.2693 51.8647 82.078 51.9365C81.8866 52.0036 81.7383 52.1041 81.6235 52.2334C81.5087 52.3627 81.4561 52.5351 81.4561 52.7458C81.4561 53.0428 81.5661 53.263 81.7814 53.4163C81.9966 53.5695 82.2789 53.6414 82.6137 53.6414H82.6089Z" fill="#15D133"/>
<path d="M87.5606 47.3821C87.3549 47.3821 87.1779 47.3103 87.0296 47.1714C86.8813 47.0325 86.8096 46.8649 86.8096 46.6685C86.8096 46.4722 86.8813 46.3046 87.0296 46.1609C87.1779 46.022 87.3549 45.9502 87.5606 45.9502C87.7663 45.9502 87.9433 46.022 88.0916 46.1609C88.2399 46.2998 88.3116 46.4674 88.3116 46.6685C88.3116 46.8697 88.2399 47.0277 88.0916 47.1714C87.9433 47.3103 87.7663 47.3821 87.5606 47.3821ZM86.9626 54.4602V48.3255H88.1538V54.4602H86.9626Z" fill="#15D133"/>
<path d="M90.947 46.2861V54.4657H89.7559V46.2861H90.947Z" fill="#15D133"/>
<path d="M94.334 54.5992C93.9465 54.5992 93.5926 54.5273 93.2816 54.3837C92.9659 54.24 92.7219 54.0293 92.5354 53.7515C92.3536 53.4738 92.2627 53.1337 92.2627 52.7315C92.2627 52.3867 92.3297 52.0993 92.4636 51.879C92.5976 51.654 92.7745 51.4768 93.0042 51.3475C93.229 51.2182 93.4825 51.1176 93.76 51.0506C94.0374 50.9835 94.3245 50.9356 94.6115 50.8973C94.9798 50.8542 95.2764 50.8207 95.506 50.792C95.7356 50.7632 95.9031 50.7201 96.0035 50.6531C96.104 50.586 96.1614 50.4855 96.1614 50.3418V50.3131C96.1614 49.9635 96.0657 49.6953 95.8696 49.5037C95.6735 49.3122 95.3816 49.2164 94.999 49.2164C94.6163 49.2164 94.2814 49.3074 94.0518 49.4798C93.8222 49.657 93.6643 49.8533 93.5734 50.0688L92.454 49.815C92.588 49.4415 92.7841 49.1398 93.0377 48.9099C93.296 48.68 93.5926 48.5124 93.9274 48.4071C94.2623 48.3017 94.6163 48.249 94.9846 48.249C95.2286 48.249 95.4869 48.2778 95.7643 48.3352C96.0418 48.3927 96.2953 48.498 96.5393 48.6465C96.7833 48.795 96.9794 49.0153 97.1325 49.293C97.2856 49.5756 97.3621 49.9395 97.3621 50.3849V54.4603H96.1997V53.6222H96.1518C96.0753 53.7755 95.9605 53.9287 95.8026 54.0772C95.6495 54.2256 95.4486 54.3501 95.2094 54.4507C94.9703 54.5513 94.6785 54.5992 94.3388 54.5992H94.334ZM94.5971 53.6414C94.9272 53.6414 95.2094 53.5743 95.4438 53.445C95.6782 53.3157 95.86 53.1433 95.9844 52.9326C96.1088 52.7219 96.171 52.492 96.171 52.2526V51.4624C96.1279 51.5055 96.0466 51.5438 95.927 51.5821C95.8074 51.6204 95.6687 51.6492 95.5156 51.6731C95.3625 51.6971 95.2094 51.721 95.0659 51.7402C94.9176 51.7593 94.798 51.7785 94.6976 51.7881C94.468 51.8168 94.2575 51.8647 94.0661 51.9365C93.8748 52.0036 93.7265 52.1041 93.6117 52.2334C93.4969 52.3627 93.4443 52.5351 93.4443 52.7458C93.4443 53.0428 93.5543 53.263 93.7696 53.4163C93.9848 53.5695 94.2671 53.6414 94.6019 53.6414H94.5971Z" fill="#15D133"/>
<path d="M99.041 54.4598V46.2803H100.232V49.3213H100.304C100.371 49.192 100.471 49.0435 100.605 48.8759C100.734 48.7083 100.916 48.5598 101.146 48.4353C101.375 48.3108 101.682 48.2437 102.064 48.2437C102.557 48.2437 103.002 48.3683 103.389 48.6173C103.777 48.8663 104.083 49.2303 104.303 49.6996C104.523 50.1689 104.638 50.7388 104.638 51.3997C104.638 52.0605 104.528 52.6304 104.308 53.1045C104.088 53.5786 103.782 53.9426 103.399 54.1964C103.011 54.4502 102.571 54.5795 102.079 54.5795C101.706 54.5795 101.404 54.5173 101.165 54.3927C100.931 54.2682 100.744 54.1198 100.61 53.9522C100.476 53.7846 100.376 53.6361 100.304 53.5068H100.203V54.4598H99.041ZM100.213 51.3949C100.213 51.8259 100.275 52.2042 100.4 52.5298C100.524 52.8555 100.706 53.1093 100.94 53.2913C101.175 53.4733 101.466 53.5643 101.811 53.5643C102.155 53.5643 102.466 53.4685 102.705 53.2769C102.944 53.0854 103.126 52.8268 103.251 52.5011C103.375 52.1755 103.437 51.8067 103.437 51.3949C103.437 50.983 103.375 50.6286 103.255 50.303C103.136 49.9821 102.954 49.7283 102.715 49.5415C102.476 49.3548 102.174 49.2638 101.816 49.2638C101.457 49.2638 101.179 49.3548 100.94 49.532C100.701 49.7092 100.524 49.9582 100.4 50.279C100.275 50.5999 100.218 50.9734 100.218 51.3949H100.213Z" fill="#15D133"/>
<path d="M107.169 46.2861V54.4657H105.978V46.2861H107.169Z" fill="#15D133"/>
<path d="M111.412 54.5849C110.809 54.5849 110.288 54.4556 109.853 54.197C109.417 53.9384 109.083 53.5696 108.848 53.1003C108.614 52.631 108.494 52.0755 108.494 51.4386C108.494 50.8016 108.614 50.2557 108.848 49.7768C109.083 49.2979 109.413 48.9244 109.838 48.6562C110.264 48.388 110.757 48.2539 111.326 48.2539C111.67 48.2539 112.005 48.3114 112.331 48.4263C112.656 48.5412 112.948 48.7184 113.206 48.9675C113.464 49.2117 113.665 49.5278 113.818 49.9205C113.971 50.3132 114.043 50.7825 114.043 51.338V51.7594H109.173V50.8639H112.876C112.876 50.5478 112.814 50.2701 112.685 50.0258C112.555 49.7816 112.378 49.59 112.149 49.4511C111.919 49.3123 111.651 49.2404 111.34 49.2404C111.006 49.2404 110.714 49.3218 110.465 49.4847C110.216 49.6475 110.025 49.863 109.891 50.1216C109.757 50.385 109.69 50.6675 109.69 50.974V51.6732C109.69 52.0851 109.762 52.4299 109.905 52.7172C110.049 53.0045 110.255 53.2248 110.513 53.3733C110.771 53.5217 111.077 53.5984 111.427 53.5984C111.651 53.5984 111.857 53.5648 112.044 53.5026C112.23 53.4403 112.393 53.3398 112.527 53.2105C112.661 53.0812 112.766 52.9183 112.838 52.7268L113.967 52.9327C113.876 53.2679 113.713 53.5553 113.484 53.8043C113.249 54.0533 112.957 54.2449 112.608 54.3838C112.259 54.5226 111.862 54.5897 111.412 54.5897V54.5849Z" fill="#15D133"/>
<path d="M122.495 46.4199V54.5994H121.261V47.6603H121.213L119.257 48.9389V47.756L121.295 46.4199H122.495Z" fill="#15D133"/>
<path d="M127.547 54.7336C126.916 54.7336 126.38 54.566 125.93 54.2355C125.486 53.9051 125.141 53.4262 124.907 52.794C124.672 52.1619 124.553 51.4053 124.553 50.5145C124.553 49.6238 124.672 48.8719 124.912 48.2398C125.151 47.6124 125.49 47.1335 125.94 46.8031C126.39 46.4726 126.925 46.3098 127.547 46.3098C128.169 46.3098 128.71 46.4774 129.155 46.8079C129.6 47.1383 129.944 47.6172 130.183 48.2445C130.422 48.8719 130.542 49.6286 130.542 50.5145C130.542 51.4005 130.422 52.1667 130.188 52.7988C129.953 53.4262 129.609 53.9099 129.164 54.2403C128.719 54.5707 128.179 54.7384 127.552 54.7384L127.547 54.7336ZM127.547 53.6656C128.102 53.6656 128.533 53.3975 128.844 52.8563C129.155 52.3152 129.312 51.5346 129.312 50.5145C129.312 49.8345 129.241 49.2598 129.097 48.7905C128.954 48.3212 128.753 47.962 128.485 47.7226C128.222 47.4783 127.906 47.3586 127.543 47.3586C126.992 47.3586 126.562 47.6316 126.246 48.1727C125.93 48.7139 125.773 49.4993 125.773 50.5193C125.773 51.1993 125.844 51.774 125.988 52.2481C126.131 52.7174 126.332 53.0718 126.595 53.316C126.858 53.5555 127.174 53.6752 127.543 53.6752L127.547 53.6656Z" fill="#15D133"/>
<path d="M134.804 54.7336C134.173 54.7336 133.637 54.566 133.187 54.2355C132.742 53.9051 132.398 53.4262 132.164 52.794C131.929 52.1619 131.81 51.4053 131.81 50.5145C131.81 49.6238 131.929 48.8719 132.168 48.2398C132.408 47.6124 132.747 47.1335 133.197 46.8031C133.646 46.4726 134.182 46.3098 134.804 46.3098C135.426 46.3098 135.967 46.4774 136.411 46.8079C136.856 47.1383 137.201 47.6172 137.44 48.2445C137.679 48.8719 137.799 49.6286 137.799 50.5145C137.799 51.4005 137.679 52.1667 137.445 52.7988C137.21 53.4262 136.866 53.9099 136.421 54.2403C135.976 54.5707 135.436 54.7384 134.809 54.7384L134.804 54.7336ZM134.804 53.6656C135.359 53.6656 135.79 53.3975 136.101 52.8563C136.411 52.3152 136.569 51.5346 136.569 50.5145C136.569 49.8345 136.498 49.2598 136.354 48.7905C136.211 48.3212 136.01 47.962 135.742 47.7226C135.479 47.4783 135.163 47.3586 134.799 47.3586C134.249 47.3586 133.819 47.6316 133.503 48.1727C133.187 48.7139 133.029 49.4993 133.029 50.5193C133.029 51.1993 133.101 51.774 133.245 52.2481C133.388 52.7174 133.589 53.0718 133.852 53.316C134.115 53.5555 134.431 53.6752 134.799 53.6752L134.804 53.6656Z" fill="#15D133"/>
<path d="M142.342 46.0361L139.711 55.8295H138.645L141.276 46.0361H142.342Z" fill="#15D133"/>
<path d="M146.443 46.4199V54.5994H145.208V47.6603H145.161L143.204 48.9389V47.756L145.242 46.4199H146.443Z" fill="#15D133"/>
<path d="M151.498 54.7333C150.867 54.7333 150.331 54.5657 149.882 54.2353C149.437 53.9048 149.092 53.4259 148.858 52.7938C148.623 52.1617 148.504 51.405 148.504 50.5143C148.504 49.6235 148.623 48.8717 148.863 48.2395C149.102 47.6122 149.442 47.1333 149.891 46.8028C150.341 46.4724 150.877 46.3096 151.498 46.3096C152.12 46.3096 152.661 46.4772 153.106 46.8076C153.551 47.1381 153.895 47.617 154.134 48.2443C154.373 48.8717 154.493 49.6283 154.493 50.5143C154.493 51.4002 154.373 52.1665 154.139 52.7986C153.905 53.4259 153.56 53.9096 153.115 54.2401C152.67 54.5705 152.13 54.7381 151.503 54.7381L151.498 54.7333ZM151.498 53.6654C152.053 53.6654 152.484 53.3972 152.795 52.8561C153.106 52.3149 153.264 51.5343 153.264 50.5143C153.264 49.8342 153.192 49.2596 153.048 48.7902C152.905 48.3209 152.704 47.9618 152.436 47.7223C152.173 47.4781 151.857 47.3584 151.494 47.3584C150.944 47.3584 150.513 47.6313 150.197 48.1725C149.882 48.7136 149.724 49.499 149.724 50.5191C149.724 51.1991 149.795 51.7738 149.939 52.2479C150.083 52.7172 150.283 53.0716 150.547 53.3158C150.81 53.5552 151.125 53.675 151.494 53.675L151.498 53.6654Z" fill="#15D133"/>
<path d="M158.756 54.7333C158.125 54.7333 157.589 54.5657 157.139 54.2353C156.695 53.9048 156.35 53.4259 156.116 52.7938C155.881 52.1617 155.762 51.405 155.762 50.5143C155.762 49.6235 155.881 48.8717 156.12 48.2395C156.36 47.6122 156.699 47.1333 157.149 46.8028C157.599 46.4724 158.134 46.3096 158.756 46.3096C159.378 46.3096 159.919 46.4772 160.364 46.8076C160.809 47.1381 161.153 47.617 161.392 48.2443C161.631 48.8717 161.751 49.6283 161.751 50.5143C161.751 51.4002 161.631 52.1665 161.397 52.7986C161.162 53.4259 160.818 53.9096 160.373 54.2401C159.928 54.5705 159.388 54.7381 158.761 54.7381L158.756 54.7333ZM158.756 53.6654C159.311 53.6654 159.742 53.3972 160.053 52.8561C160.364 52.3149 160.521 51.5343 160.521 50.5143C160.521 49.8342 160.45 49.2596 160.306 48.7902C160.163 48.3209 159.962 47.9618 159.694 47.7223C159.431 47.4781 159.115 47.3584 158.752 47.3584C158.201 47.3584 157.771 47.6313 157.455 48.1725C157.139 48.7136 156.982 49.499 156.982 50.5191C156.982 51.1991 157.053 51.7738 157.197 52.2479C157.34 52.7172 157.541 53.0716 157.804 53.3158C158.067 53.5552 158.383 53.675 158.752 53.675L158.756 53.6654Z" fill="#15D133"/>
</g>
<defs>
<clipPath id="clip0_526_158">
<rect width="207" height="70" fill="white"/>
</clipPath>
</defs>
</svg>
