<svg width="246" height="52" viewBox="0 0 246 52" fill="none" xmlns="http://www.w3.org/2000/svg">
<g filter="url(#filter0_b_526_285)">
<path d="M245.048 1H1V51H245.048V1Z" fill="white" fill-opacity="0.11"/>
</g>
<path d="M8.51417 50.8669H1V1H8.51417" stroke="white" stroke-miterlimit="10"/>
<path d="M237.904 1H245.418V50.8669H237.904" stroke="white" stroke-miterlimit="10"/>
<path d="M44.4252 19.6364V32H42.7108L36.4263 22.9325H36.3116V32H34.4462V19.6364H36.1728L42.4632 28.7159H42.5779V19.6364H44.4252ZM50.998 32.1871C50.0844 32.1871 49.2976 31.992 48.6375 31.6016C47.9815 31.2071 47.4744 30.6538 47.1162 29.9414C46.762 29.225 46.585 28.3859 46.585 27.424C46.585 26.4742 46.762 25.6371 47.1162 24.9126C47.4744 24.1882 47.9735 23.6228 48.6134 23.2163C49.2573 22.8098 50.0099 22.6065 50.8712 22.6065C51.3944 22.6065 51.9015 22.6931 52.3925 22.8661C52.8835 23.0392 53.3242 23.3108 53.7146 23.6811C54.105 24.0514 54.4128 24.5323 54.6382 25.1239C54.8636 25.7115 54.9763 26.4259 54.9763 27.267V27.907H47.6052V26.5547H53.2075C53.2075 26.0798 53.1109 25.6592 52.9177 25.293C52.7245 24.9227 52.4529 24.6309 52.1027 24.4176C51.7566 24.2043 51.3501 24.0977 50.8833 24.0977C50.3762 24.0977 49.9334 24.2224 49.5551 24.4719C49.1808 24.7174 48.8911 25.0394 48.6858 25.4379C48.4846 25.8323 48.384 26.2609 48.384 26.7237V27.7802C48.384 28.4 48.4926 28.9272 48.71 29.3619C48.9313 29.7965 49.2392 30.1286 49.6336 30.358C50.028 30.5833 50.4888 30.696 51.0161 30.696C51.3582 30.696 51.6701 30.6477 51.9518 30.5511C52.2335 30.4505 52.477 30.3016 52.6823 30.1044C52.8875 29.9072 53.0445 29.6637 53.1531 29.3739L54.8616 29.6818C54.7248 30.1849 54.4793 30.6256 54.1251 31.0039C53.7749 31.3782 53.3343 31.67 52.803 31.8793C52.2758 32.0845 51.6741 32.1871 50.998 32.1871ZM58.9727 32L56.2441 22.7273H58.1095L59.9266 29.5369H60.0171L61.8403 22.7273H63.7057L65.5168 29.5067H65.6073L67.4124 22.7273H69.2778L66.5551 32H64.7139L62.8303 25.305H62.6915L60.808 32H58.9727ZM75.6347 19.6364H77.8985L81.8346 29.2472H81.9795L85.9156 19.6364H88.1794V32H86.4046V23.0533H86.2899L82.6436 31.9819H81.1705L77.5242 23.0472H77.4095V32H75.6347V19.6364ZM90.7466 32V22.7273H92.5517V32H90.7466ZM91.6582 21.2965C91.3443 21.2965 91.0746 21.1919 90.8493 20.9826C90.6279 20.7693 90.5172 20.5157 90.5172 20.2219C90.5172 19.9241 90.6279 19.6706 90.8493 19.4613C91.0746 19.248 91.3443 19.1413 91.6582 19.1413C91.9721 19.1413 92.2398 19.248 92.4611 19.4613C92.6865 19.6706 92.7992 19.9241 92.7992 20.2219C92.7992 20.5157 92.6865 20.7693 92.4611 20.9826C92.2398 21.1919 91.9721 21.2965 91.6582 21.2965ZM101.929 24.9911L100.293 25.2809C100.224 25.0716 100.115 24.8724 99.9665 24.6832C99.8216 24.4941 99.6244 24.3391 99.3749 24.2184C99.1254 24.0977 98.8135 24.0373 98.4392 24.0373C97.9281 24.0373 97.5015 24.152 97.1594 24.3814C96.8173 24.6068 96.6462 24.8986 96.6462 25.2567C96.6462 25.5666 96.7609 25.8162 96.9903 26.0053C97.2197 26.1945 97.59 26.3494 98.1011 26.4702L99.5741 26.8082C100.427 27.0054 101.063 27.3093 101.482 27.7198C101.9 28.1303 102.11 28.6636 102.11 29.3196C102.11 29.875 101.949 30.37 101.627 30.8047C101.309 31.2353 100.864 31.5734 100.293 31.8189C99.7251 32.0644 99.067 32.1871 98.3184 32.1871C97.2801 32.1871 96.4329 31.9658 95.7769 31.5231C95.1209 31.0763 94.7184 30.4425 94.5695 29.6214L96.3142 29.3558C96.4229 29.8106 96.6462 30.1547 96.9843 30.3881C97.3224 30.6175 97.7631 30.7322 98.3064 30.7322C98.898 30.7322 99.3709 30.6095 99.7251 30.364C100.079 30.1145 100.256 29.8106 100.256 29.4524C100.256 29.1626 100.148 28.9192 99.9303 28.7219C99.717 28.5247 99.389 28.3758 98.9463 28.2752L97.3767 27.9311C96.5114 27.7339 95.8715 27.42 95.4569 26.9893C95.0464 26.5587 94.8412 26.0134 94.8412 25.3533C94.8412 24.806 94.9941 24.3271 95.3 23.9165C95.6059 23.506 96.0284 23.1861 96.5677 22.9567C97.107 22.7232 97.7248 22.6065 98.4211 22.6065C99.4232 22.6065 100.212 22.8239 100.788 23.2585C101.363 23.6892 101.743 24.2667 101.929 24.9911ZM111.043 24.9911L109.407 25.2809C109.338 25.0716 109.23 24.8724 109.081 24.6832C108.936 24.4941 108.739 24.3391 108.489 24.2184C108.24 24.0977 107.928 24.0373 107.553 24.0373C107.042 24.0373 106.616 24.152 106.274 24.3814C105.932 24.6068 105.76 24.8986 105.76 25.2567C105.76 25.5666 105.875 25.8162 106.105 26.0053C106.334 26.1945 106.704 26.3494 107.215 26.4702L108.688 26.8082C109.542 27.0054 110.177 27.3093 110.596 27.7198C111.015 28.1303 111.224 28.6636 111.224 29.3196C111.224 29.875 111.063 30.37 110.741 30.8047C110.423 31.2353 109.978 31.5734 109.407 31.8189C108.839 32.0644 108.181 32.1871 107.433 32.1871C106.394 32.1871 105.547 31.9658 104.891 31.5231C104.235 31.0763 103.833 30.4425 103.684 29.6214L105.428 29.3558C105.537 29.8106 105.76 30.1547 106.099 30.3881C106.437 30.6175 106.877 30.7322 107.421 30.7322C108.012 30.7322 108.485 30.6095 108.839 30.364C109.193 30.1145 109.371 29.8106 109.371 29.4524C109.371 29.1626 109.262 28.9192 109.045 28.7219C108.831 28.5247 108.503 28.3758 108.061 28.2752L106.491 27.9311C105.626 27.7339 104.986 27.42 104.571 26.9893C104.161 26.5587 103.955 26.0134 103.955 25.3533C103.955 24.806 104.108 24.3271 104.414 23.9165C104.72 23.506 105.143 23.1861 105.682 22.9567C106.221 22.7232 106.839 22.6065 107.535 22.6065C108.537 22.6065 109.326 22.8239 109.902 23.2585C110.477 23.6892 110.858 24.2667 111.043 24.9911ZM113.209 32V22.7273H115.014V32H113.209ZM114.12 21.2965C113.806 21.2965 113.537 21.1919 113.311 20.9826C113.09 20.7693 112.979 20.5157 112.979 20.2219C112.979 19.9241 113.09 19.6706 113.311 19.4613C113.537 19.248 113.806 19.1413 114.12 19.1413C114.434 19.1413 114.702 19.248 114.923 19.4613C115.148 19.6706 115.261 19.9241 115.261 20.2219C115.261 20.5157 115.148 20.7693 114.923 20.9826C114.702 21.1919 114.434 21.2965 114.12 21.2965ZM121.348 32.1871C120.479 32.1871 119.72 31.9879 119.072 31.5895C118.424 31.1911 117.921 30.6336 117.563 29.9173C117.204 29.2009 117.025 28.3638 117.025 27.4059C117.025 26.444 117.204 25.6029 117.563 24.8825C117.921 24.162 118.424 23.6026 119.072 23.2042C119.72 22.8058 120.479 22.6065 121.348 22.6065C122.217 22.6065 122.976 22.8058 123.624 23.2042C124.272 23.6026 124.775 24.162 125.133 24.8825C125.491 25.6029 125.67 26.444 125.67 27.4059C125.67 28.3638 125.491 29.2009 125.133 29.9173C124.775 30.6336 124.272 31.1911 123.624 31.5895C122.976 31.9879 122.217 32.1871 121.348 32.1871ZM121.354 30.6719C121.917 30.6719 122.384 30.523 122.754 30.2251C123.125 29.9273 123.398 29.5309 123.575 29.0359C123.757 28.5408 123.847 27.9955 123.847 27.3999C123.847 26.8082 123.757 26.2649 123.575 25.7699C123.398 25.2708 123.125 24.8704 122.754 24.5685C122.384 24.2667 121.917 24.1158 121.354 24.1158C120.786 24.1158 120.316 24.2667 119.941 24.5685C119.571 24.8704 119.295 25.2708 119.114 25.7699C118.937 26.2649 118.849 26.8082 118.849 27.3999C118.849 27.9955 118.937 28.5408 119.114 29.0359C119.295 29.5309 119.571 29.9273 119.941 30.2251C120.316 30.523 120.786 30.6719 121.354 30.6719ZM129.49 26.4943V32H127.685V22.7273H129.418V24.2365H129.532C129.746 23.7455 130.08 23.3511 130.535 23.0533C130.993 22.7554 131.571 22.6065 132.267 22.6065C132.899 22.6065 133.452 22.7393 133.927 23.005C134.402 23.2666 134.77 23.657 135.032 24.1761C135.294 24.6953 135.424 25.3372 135.424 26.1019V32H133.619V26.3192C133.619 25.6471 133.444 25.1219 133.094 24.7436C132.744 24.3613 132.263 24.1701 131.651 24.1701C131.233 24.1701 130.861 24.2607 130.535 24.4418C130.213 24.6229 129.957 24.8885 129.768 25.2386C129.583 25.5848 129.49 26.0033 129.49 26.4943ZM143.534 32H141.553L146.003 19.6364H148.158L152.607 32H150.627L147.132 21.8821H147.035L143.534 32ZM143.866 27.1584H150.289V28.728H143.866V27.1584ZM161.018 22.7273L157.655 32H155.724L152.355 22.7273H154.293L156.641 29.8629H156.738L159.08 22.7273H161.018ZM165.147 32.2053C164.56 32.2053 164.028 32.0966 163.554 31.8793C163.079 31.6579 162.702 31.3379 162.425 30.9194C162.151 30.5008 162.014 29.9877 162.014 29.38C162.014 28.8568 162.115 28.4261 162.316 28.0881C162.517 27.75 162.789 27.4824 163.131 27.2852C163.473 27.0879 163.855 26.939 164.278 26.8384C164.701 26.7378 165.131 26.6613 165.57 26.609C166.125 26.5446 166.576 26.4923 166.922 26.4521C167.268 26.4078 167.52 26.3374 167.677 26.2408C167.834 26.1442 167.912 25.9872 167.912 25.7699V25.7276C167.912 25.2004 167.763 24.7919 167.465 24.5021C167.172 24.2124 166.733 24.0675 166.149 24.0675C165.542 24.0675 165.063 24.2023 164.713 24.4719C164.367 24.7376 164.127 25.0334 163.994 25.3594L162.298 24.973C162.499 24.4096 162.793 23.9548 163.179 23.6087C163.57 23.2585 164.018 23.005 164.525 22.848C165.033 22.687 165.566 22.6065 166.125 22.6065C166.496 22.6065 166.888 22.6508 167.302 22.7393C167.721 22.8239 168.111 22.9808 168.474 23.2102C168.84 23.4396 169.14 23.7676 169.373 24.1942C169.607 24.6168 169.723 25.1662 169.723 25.8423V32H167.96V30.7322H167.888C167.771 30.9657 167.596 31.1951 167.363 31.4205C167.129 31.6458 166.83 31.833 166.463 31.9819C166.097 32.1308 165.658 32.2053 165.147 32.2053ZM165.54 30.7564C166.039 30.7564 166.465 30.6578 166.82 30.4606C167.178 30.2634 167.449 30.0058 167.634 29.6879C167.824 29.3659 167.918 29.0218 167.918 28.6555V27.4602C167.854 27.5246 167.729 27.585 167.544 27.6413C167.363 27.6937 167.156 27.7399 166.922 27.7802C166.689 27.8164 166.461 27.8506 166.24 27.8828C166.019 27.911 165.833 27.9351 165.685 27.9553C165.334 27.9995 165.014 28.074 164.725 28.1786C164.439 28.2833 164.21 28.4342 164.036 28.6314C163.867 28.8246 163.783 29.0821 163.783 29.4041C163.783 29.8509 163.948 30.1889 164.278 30.4183C164.608 30.6437 165.029 30.7564 165.54 30.7564ZM172.127 32V22.7273H173.933V32H172.127ZM173.039 21.2965C172.725 21.2965 172.455 21.1919 172.23 20.9826C172.009 20.7693 171.898 20.5157 171.898 20.2219C171.898 19.9241 172.009 19.6706 172.23 19.4613C172.455 19.248 172.725 19.1413 173.039 19.1413C173.353 19.1413 173.621 19.248 173.842 19.4613C174.067 19.6706 174.18 19.9241 174.18 20.2219C174.18 20.5157 174.067 20.7693 173.842 20.9826C173.621 21.1919 173.353 21.2965 173.039 21.2965ZM178.166 19.6364V32H176.361V19.6364H178.166ZM183.293 32.2053C182.705 32.2053 182.174 32.0966 181.699 31.8793C181.224 31.6579 180.848 31.3379 180.57 30.9194C180.296 30.5008 180.16 29.9877 180.16 29.38C180.16 28.8568 180.26 28.4261 180.461 28.0881C180.663 27.75 180.934 27.4824 181.276 27.2852C181.619 27.0879 182.001 26.939 182.423 26.8384C182.846 26.7378 183.277 26.6613 183.715 26.609C184.271 26.5446 184.722 26.4923 185.068 26.4521C185.414 26.4078 185.665 26.3374 185.822 26.2408C185.979 26.1442 186.058 25.9872 186.058 25.7699V25.7276C186.058 25.2004 185.909 24.7919 185.611 24.5021C185.317 24.2124 184.878 24.0675 184.295 24.0675C183.687 24.0675 183.208 24.2023 182.858 24.4719C182.512 24.7376 182.273 25.0334 182.14 25.3594L180.443 24.973C180.645 24.4096 180.938 23.9548 181.325 23.6087C181.715 23.2585 182.164 23.005 182.671 22.848C183.178 22.687 183.711 22.6065 184.271 22.6065C184.641 22.6065 185.033 22.6508 185.448 22.7393C185.867 22.8239 186.257 22.9808 186.619 23.2102C186.985 23.4396 187.285 23.7676 187.519 24.1942C187.752 24.6168 187.869 25.1662 187.869 25.8423V32H186.106V30.7322H186.034C185.917 30.9657 185.742 31.1951 185.508 31.4205C185.275 31.6458 184.975 31.833 184.609 31.9819C184.243 32.1308 183.804 32.2053 183.293 32.2053ZM183.685 30.7564C184.184 30.7564 184.611 30.6578 184.965 30.4606C185.323 30.2634 185.595 30.0058 185.78 29.6879C185.969 29.3659 186.064 29.0218 186.064 28.6555V27.4602C185.999 27.5246 185.875 27.585 185.689 27.6413C185.508 27.6937 185.301 27.7399 185.068 27.7802C184.834 27.8164 184.607 27.8506 184.385 27.8828C184.164 27.911 183.979 27.9351 183.83 27.9553C183.48 27.9995 183.16 28.074 182.87 28.1786C182.584 28.2833 182.355 28.4342 182.182 28.6314C182.013 28.8246 181.928 29.0821 181.928 29.4041C181.928 29.8509 182.093 30.1889 182.423 30.4183C182.753 30.6437 183.174 30.7564 183.685 30.7564ZM190.418 32V19.6364H192.223V24.2305H192.332C192.436 24.0373 192.587 23.8139 192.784 23.5604C192.982 23.3068 193.255 23.0855 193.605 22.8963C193.956 22.7031 194.418 22.6065 194.994 22.6065C195.742 22.6065 196.411 22.7957 196.998 23.174C197.586 23.5523 198.047 24.0977 198.381 24.81C198.719 25.5224 198.888 26.3796 198.888 27.3817C198.888 28.3839 198.721 29.2431 198.387 29.9595C198.053 30.6719 197.594 31.2212 197.01 31.6076C196.427 31.9899 195.761 32.1811 195.012 32.1811C194.449 32.1811 193.988 32.0865 193.63 31.8974C193.275 31.7082 192.998 31.4869 192.796 31.2333C192.595 30.9798 192.44 30.7544 192.332 30.5572H192.181V32H190.418ZM192.187 27.3636C192.187 28.0156 192.281 28.5871 192.47 29.0781C192.66 29.5691 192.933 29.9535 193.291 30.2312C193.65 30.5049 194.088 30.6417 194.608 30.6417C195.147 30.6417 195.598 30.4988 195.96 30.2131C196.322 29.9233 196.596 29.5309 196.781 29.0359C196.97 28.5408 197.065 27.9834 197.065 27.3636C197.065 26.7519 196.972 26.2025 196.787 25.7156C196.606 25.2286 196.332 24.8442 195.966 24.5625C195.604 24.2808 195.151 24.1399 194.608 24.1399C194.084 24.1399 193.642 24.2747 193.279 24.5444C192.921 24.814 192.65 25.1903 192.464 25.6733C192.279 26.1562 192.187 26.7197 192.187 27.3636ZM202.72 19.6364V32H200.915V19.6364H202.72ZM209.144 32.1871C208.231 32.1871 207.444 31.992 206.784 31.6016C206.128 31.2071 205.621 30.6538 205.263 29.9414C204.909 29.225 204.731 28.3859 204.731 27.424C204.731 26.4742 204.909 25.6371 205.263 24.9126C205.621 24.1882 206.12 23.6228 206.76 23.2163C207.404 22.8098 208.156 22.6065 209.018 22.6065C209.541 22.6065 210.048 22.6931 210.539 22.8661C211.03 23.0392 211.471 23.3108 211.861 23.6811C212.251 24.0514 212.559 24.5323 212.785 25.1239C213.01 25.7115 213.123 26.4259 213.123 27.267V27.907H205.752V26.5547H211.354C211.354 26.0798 211.257 25.6592 211.064 25.293C210.871 24.9227 210.599 24.6309 210.249 24.4176C209.903 24.2043 209.497 24.0977 209.03 24.0977C208.523 24.0977 208.08 24.2224 207.702 24.4719C207.327 24.7174 207.038 25.0394 206.832 25.4379C206.631 25.8323 206.53 26.2609 206.53 26.7237V27.7802C206.53 28.4 206.639 28.9272 206.856 29.3619C207.078 29.7965 207.386 30.1286 207.78 30.358C208.175 30.5833 208.635 30.696 209.163 30.696C209.505 30.696 209.817 30.6477 210.098 30.5511C210.38 30.4505 210.623 30.3016 210.829 30.1044C211.034 29.9072 211.191 29.6637 211.3 29.3739L213.008 29.6818C212.871 30.1849 212.626 30.6256 212.272 31.0039C211.921 31.3782 211.481 31.67 210.949 31.8793C210.422 32.0845 209.821 32.1871 209.144 32.1871Z" fill="white"/>
<defs>
<filter id="filter0_b_526_285" x="-24" y="-24" width="294.048" height="100" filterUnits="userSpaceOnUse" color-interpolation-filters="sRGB">
<feFlood flood-opacity="0" result="BackgroundImageFix"/>
<feGaussianBlur in="BackgroundImageFix" stdDeviation="12.5"/>
<feComposite in2="SourceAlpha" operator="in" result="effect1_backgroundBlur_526_285"/>
<feBlend mode="normal" in="SourceGraphic" in2="effect1_backgroundBlur_526_285" result="shape"/>
</filter>
</defs>
</svg>
