<svg width="91" height="50" viewBox="0 0 91 50" fill="none" xmlns="http://www.w3.org/2000/svg">
<g clip-path="url(#clip0_1849_11222)">
<path fill-rule="evenodd" clip-rule="evenodd" d="M26.1229 2.14863C26.1229 2.24467 26.1229 2.34071 26.1229 2.43675C26.1229 3.20504 26.3771 3.39711 27.1679 3.28736C27.5915 3.21876 28.0293 3.19132 28.467 3.16388C29.9639 3.04041 30.0204 2.99925 29.978 1.51754C29.978 1.44894 29.978 1.39406 29.978 1.32546C29.9357 0.900154 29.7238 0.653202 29.2578 0.694361C28.4388 0.762959 27.6198 0.804118 26.8007 0.900155C26.3771 0.955033 26.1088 1.22942 26.1229 1.68217C26.1229 1.83308 26.1229 1.99772 26.1229 2.14863ZM37.9707 21.0542C37.3352 22.8103 36.7139 24.5664 36.0643 26.3911C37.4199 26.2814 38.705 26.1716 40.0465 26.0618C39.3828 24.3469 38.7332 22.6868 38.0978 21.0405L37.9707 21.0542ZM8.49956 25.9932C9.05029 25.9521 9.57277 25.9384 10.0811 25.8835C10.8013 25.8012 11.5215 25.7326 12.2276 25.5817C12.8489 25.4582 13.3008 25.0603 13.4702 24.4566C13.7809 23.3728 13.4844 22.5496 12.2699 22.4948C11.0131 22.4399 9.75635 22.5634 8.48543 22.6045V25.9932H8.49956ZM22.056 25.1289C23.0162 25.0466 23.9624 25.0054 24.8802 24.8682C25.5157 24.7585 26.1653 24.5801 26.7442 24.292C27.3656 23.9902 27.5774 23.1807 27.3797 22.4124C27.2244 21.8225 26.6736 21.3423 25.9958 21.3423C24.6825 21.356 23.3834 21.4521 22.056 21.5069V25.1289ZM12.7218 27.7905C11.7616 27.7082 10.7872 27.8042 9.82696 27.8317C9.3892 27.8454 8.93732 27.9003 8.49956 27.9414V31.7006C9.5869 31.6183 10.6177 31.5771 11.6486 31.4399C12.2135 31.3576 12.7924 31.1792 13.2867 30.9323C14.0775 30.5207 14.2328 29.7661 14.1339 28.9704C14.0351 28.2844 13.6256 27.8591 12.7218 27.7905ZM77.708 19.4216C78.3434 19.6685 79.0353 19.7783 79.7132 19.9155C81.4077 20.2722 83.2152 20.3545 84.4014 21.8637V17.4734C84.3732 17.4734 84.3591 17.4734 84.3308 17.4597C84.2461 17.6929 84.1614 17.9399 84.0484 18.1731C83.653 18.9825 82.4103 19.2158 81.9585 18.3103C81.8455 18.1045 81.7466 17.8713 81.5913 17.7066C81.2665 17.3774 80.9558 16.9246 80.5322 16.7874C79.4166 16.417 78.3152 16.5953 77.3973 17.3499C76.6065 18.0222 76.7477 19.0374 77.708 19.4216ZM55.2692 17.0618C53.2923 17.2264 51.2306 17.4048 49.1265 17.5831C51.1176 20.3408 53.0663 23.0573 55.0151 25.7737C55.0574 25.76 55.0857 25.76 55.128 25.7463V25.2524C55.128 23.1396 55.1139 21.0268 55.128 18.9139C55.1421 18.3103 55.2128 17.7066 55.2692 17.0618ZM29.5403 5.79804C29.4979 5.37273 29.2014 5.09834 28.7636 5.1395C28.2835 5.18066 27.8033 5.22182 27.3232 5.30413C26.7584 5.40017 26.6313 5.57853 26.6313 6.12731C26.6313 7.86969 26.6313 9.59836 26.6313 11.3407C26.6313 13.1106 26.6313 14.8804 26.6313 16.6502C26.6313 17.1167 26.8572 17.3499 27.295 17.3362C27.7327 17.3088 28.1564 17.2402 28.5941 17.2127C29.3849 17.1716 29.5544 16.76 29.5544 16.0877C29.5403 12.7676 29.5544 9.46116 29.5544 6.14103C29.5403 6.01755 29.5403 5.9078 29.5403 5.79804ZM63.4172 27.2143C64.3492 27.1182 65.2389 27.0085 66.1426 26.9399C67.7383 26.8301 68.628 25.9246 69.0657 24.5252C69.5176 23.1259 69.5317 21.699 69.1646 20.2859C68.7974 18.8591 67.8654 18.1868 66.3544 18.2005C65.5495 18.2005 64.7305 18.2828 63.9256 18.2828C63.4878 18.2828 63.3749 18.4338 63.389 18.8316C63.4031 21.4658 63.4031 24.0999 63.4031 26.7341C63.389 26.8987 63.4031 27.0359 63.4172 27.2143ZM73.062 13.0968C74.6013 13.3575 76.084 13.0282 77.5385 12.6167C79.0636 12.1776 78.7529 12.0542 78.7671 10.984C78.7812 10.1609 78.5411 10.0374 77.6938 10.202C76.5924 10.4215 75.4768 10.6136 74.3612 10.7234C73.5563 10.8057 73.0197 10.2295 73.0197 9.44744C73.0197 8.72031 73.0197 7.99317 73.0197 7.26603C73.0197 6.62121 73.0762 5.96268 73.0056 5.33158C72.9067 4.37121 73.7116 3.49315 74.8837 3.52059C75.9146 3.54803 76.9595 3.53431 77.9904 3.54803C78.527 3.54803 78.7529 3.32852 78.7671 2.80717C78.7671 2.53278 78.7529 2.27211 78.7671 1.99772C78.7953 1.55869 78.5976 1.32546 78.1598 1.24314C76.6347 0.927594 75.0814 0.955032 73.5845 1.29802C71.537 1.76449 70.1389 3.41083 70.0966 5.30413C70.0542 6.78585 70.0683 8.26756 70.0966 9.74927C70.1531 11.5054 71.311 12.795 73.062 13.0968ZM13.2726 17.638C13.2726 18.324 13.5267 18.5435 14.2328 18.5024C14.5576 18.4749 14.8824 18.4338 15.193 18.4063C15.9132 18.3652 16.1815 18.1182 16.1815 17.4185C16.1815 15.0039 16.1815 12.5892 16.1815 10.1746C16.1815 9.33769 16.7887 8.63799 17.5795 8.55567C18.1726 8.5008 18.7657 8.4322 19.3588 8.37732C20.3191 8.28128 20.9545 8.83006 20.9545 9.76299C20.9545 10.1471 20.9545 10.5176 20.9545 10.9017C20.9545 12.9322 20.9545 14.9764 20.9545 17.0069C20.9545 17.6655 21.2793 17.9124 21.943 17.8301C22.2254 17.7889 22.522 17.7752 22.8185 17.7478C23.6093 17.6792 23.92 17.4048 23.8918 16.6639C23.8494 15.4429 23.8776 14.2356 23.8776 13.0145C23.8776 11.8346 23.8776 10.641 23.8776 9.46116C23.8776 7.75994 22.8609 6.42914 21.1381 6.11359C19.4577 5.79804 17.7631 5.94895 16.1674 6.51146C14.5293 7.08768 13.4279 8.25384 13.3008 10.0374C13.2161 11.3682 13.2584 12.7127 13.2443 14.0572C13.2584 15.2371 13.2584 16.4307 13.2726 17.638ZM7.65228 16.4033C7.65228 16.4993 7.3981 16.6639 7.24276 16.6777C6.31076 16.7737 5.36463 16.8423 4.43263 16.8972C3.58535 16.952 3.03462 16.5953 2.90753 15.9094C2.78044 15.1822 3.23232 14.4414 3.99487 14.2356C4.39026 14.1258 4.82802 14.1258 5.23754 14.0709C5.63294 14.0298 6.04245 13.9886 6.45197 13.9475C6.83325 13.92 7.22864 13.9063 7.68052 13.8789C7.6664 14.7432 7.68052 15.5801 7.65228 16.4033ZM10.5471 17.7752C10.5471 15.4566 10.5471 13.138 10.5471 10.8194C10.5471 10.4627 10.5471 10.0923 10.4624 9.73555C10.0811 8.21268 8.65489 7.08768 7.03094 7.14256C5.84476 7.18372 4.64445 7.34835 3.47238 7.55414C2.39916 7.74622 2.31444 7.92457 2.31444 8.98098C2.31444 9.10445 2.31444 9.22793 2.31444 9.36513C2.34268 9.91391 2.56862 10.0785 3.11935 9.99623C4.0796 9.84531 5.03984 9.77671 5.98597 9.58464C7.04506 9.36513 7.93471 10.2843 7.58167 11.4642C6.76264 11.5328 5.91536 11.6289 5.08221 11.6837C3.72656 11.766 2.48389 12.0679 1.39655 12.9322C-0.227395 14.2356 -0.566306 16.6365 0.746974 18.1182C1.79195 19.2981 3.20408 19.4764 4.68681 19.3393C6.28252 19.2021 7.87822 19.0237 9.47392 18.9002C10.3636 18.8042 10.5471 18.6533 10.5471 17.7752ZM88.073 9.5572C87.2116 9.63952 86.3784 9.70812 85.5453 9.77671C85.1922 9.80415 84.8251 9.88647 84.4862 9.84531C83.7942 9.77671 83.3282 9.25537 83.3 8.61055C83.2717 7.99317 83.8507 7.22487 84.5003 7.14256C85.6724 6.99164 86.8444 6.90932 88.073 6.79957V9.5572ZM90.9678 3.34224C90.9537 1.68217 89.6546 0.323932 87.96 0.118139C86.6044 -0.0602156 85.2911 0.200456 83.9778 0.474847C82.7351 0.749239 82.7351 0.790398 82.7492 2.02516C82.7492 2.1212 82.7492 2.21723 82.7492 2.31327C82.7775 2.83461 83.0599 2.99925 83.5965 2.91693C84.6556 2.7523 85.7288 2.60138 86.8021 2.50534C87.0704 2.4779 87.3951 2.64254 87.6211 2.80717C88.1436 3.1776 88.1153 3.75382 88.0589 4.37121C87.2681 4.4398 86.5055 4.49468 85.743 4.56328C84.7121 4.65932 83.6813 4.72791 82.7492 5.22182C81.0688 6.09987 80.2215 7.60902 80.4192 9.43372C80.6028 11.0938 82.4245 12.4109 84.4156 12.26C86.3361 12.1228 88.2566 11.9307 90.177 11.7661C90.756 11.7112 90.9678 11.4917 90.9678 10.9154C90.982 8.39104 90.982 5.86664 90.9678 3.34224ZM32.2092 16.1563C32.2092 16.1838 32.2233 16.2249 32.2233 16.2523C32.2515 16.6639 32.5057 16.8423 32.9011 16.8149C33.3389 16.7874 33.7766 16.7325 34.2144 16.7051C34.8922 16.6502 35.0899 16.4444 35.0899 15.7859C35.0899 13.3987 35.0899 11.0115 35.0899 8.63799C35.0899 7.65018 35.7113 6.95048 36.6715 6.86817C37.194 6.82701 37.7024 6.79957 38.2248 6.77213C39.4393 6.70353 39.8912 7.11512 39.8912 8.295C39.8912 10.5724 39.8912 12.8362 39.8912 15.1136C39.8912 15.2645 39.877 15.4292 39.9053 15.5801C39.9618 15.9642 40.1453 16.1838 40.5831 16.1563C41.0067 16.1152 41.4163 16.0877 41.8399 16.0603C42.5036 16.0191 42.786 15.7447 42.786 15.0862C42.786 12.7127 42.786 10.3529 42.786 7.97945C42.786 6.8956 43.4356 6.25078 44.5371 6.19591C44.9748 6.18219 45.4126 6.14103 45.8503 6.08615C47.0507 5.96268 47.6155 6.44286 47.6155 7.60902C47.6155 9.59836 47.6155 11.5877 47.6155 13.577C47.6155 14.0023 47.6155 14.4276 47.6296 14.853C47.6437 15.2783 47.8697 15.4978 48.3074 15.4703C48.8158 15.4429 49.3101 15.4292 49.8043 15.3606C50.2985 15.292 50.4821 15.0313 50.4821 14.4825C50.4821 11.9581 50.468 9.43373 50.4821 6.90933C50.4962 5.30414 49.3242 4.23401 48.025 3.82242C47.1071 3.53431 46.1751 3.65779 45.229 3.71267C43.8169 3.79498 42.4612 4.0145 41.4163 4.91999C40.8373 4.72791 40.3572 4.45352 39.877 4.41236C38.9592 4.34376 38.0413 4.35749 37.1234 4.4398C36.4032 4.5084 35.6689 4.61816 35.0052 4.87883C33.3671 5.50993 32.2657 6.66237 32.2233 8.44592C32.1809 11.0115 32.2233 13.5908 32.2092 16.1563ZM60.5224 10.449C61.0025 10.4627 61.3273 10.792 61.3273 11.2584C61.3131 11.7935 60.8895 12.1776 60.3105 12.1639C59.8587 12.1502 59.5339 11.8346 59.5339 11.3819C59.548 10.8606 59.9857 10.4353 60.5224 10.449ZM63.6149 10.1609C64.0386 10.1746 64.4198 10.545 64.4198 10.9429C64.4339 11.4231 63.9256 11.9307 63.4313 11.917C62.9936 11.917 62.5841 11.5191 62.5982 11.0938C62.5982 10.6273 63.1207 10.1471 63.6149 10.1609ZM51.4141 4.12425C51.7813 4.08309 52.1202 3.89102 52.3603 3.79498C53.3487 4.67303 54.3372 5.55109 55.4246 6.51146C54.7185 6.74469 54.1678 6.92304 53.6312 7.1014C53.2781 6.58005 52.911 6.42914 52.4167 6.56634C52.0213 6.67609 51.6966 7.1014 51.6683 7.51299C51.6401 7.95201 51.8378 8.24012 52.2332 8.40476C52.7133 8.59683 53.1087 8.40476 53.6735 7.69134C54.1254 7.89713 54.5914 8.11665 55.0715 8.30872C55.3398 8.40476 55.3822 8.56939 55.3963 8.81634C55.4104 9.22793 55.4387 9.63952 55.5517 10.0237C56.3989 13.1792 59.3644 14.9353 62.6688 14.359C66.4674 13.7005 69.4753 9.88647 68.5432 5.96267C67.8231 2.88949 65.0129 1.25686 62.1322 1.47638C60.8471 1.57241 59.6468 1.984 58.5877 2.72486C58.3759 2.87577 58.2206 2.90321 57.9946 2.72486C57.6275 2.43675 57.2321 2.20351 56.8649 1.95656C57.105 1.18827 57.0203 0.845276 56.5825 0.557166C56.2154 0.323933 55.707 0.365091 55.3257 0.653202C54.9727 0.927593 54.8032 1.4901 54.9727 1.88796C55.1704 2.35443 55.5234 2.49162 56.3848 2.39559C56.4837 3.01297 56.5825 3.63035 56.6955 4.31633C55.3963 3.89102 54.196 3.50687 53.0098 3.09529C52.8969 3.05413 52.7839 2.87577 52.7415 2.73858C52.558 2.02516 52.0778 1.70961 51.3435 1.83308C50.7081 1.94284 50.2562 2.56022 50.3268 3.23248C50.355 3.75382 50.8352 4.19285 51.4141 4.12425ZM83.7942 26.3774C82.1844 28.3256 78.3293 28.7509 76.2535 27.8591C75.0108 27.324 74.0505 25.9658 74.0929 24.7996C74.107 24.2509 74.5165 23.757 75.0531 23.6335C75.6745 23.4826 76.0981 23.6609 76.4229 24.2371C76.6347 24.6076 76.8183 24.9917 77.016 25.3621C77.2843 25.856 77.7362 26.1442 78.2728 26.2402C79.3037 26.4185 80.3063 26.3225 81.1959 25.7189C81.8455 25.2798 82.2126 24.6762 82.0856 23.9079C81.9585 23.1533 81.3654 22.824 80.6734 22.6731C79.5578 22.4399 78.4281 22.2615 77.3126 22.0008C76.3382 21.7813 75.4344 21.3835 74.8413 20.5329C74.0647 19.4078 74.2059 17.5831 75.2085 16.5542C75.731 16.0191 76.3806 15.6075 76.9172 15.1959C74.0082 15.4429 70.9721 15.7036 67.9219 15.978C67.9501 16.0054 67.9643 16.0191 67.9643 16.0328C68.049 16.0603 68.1196 16.074 68.2043 16.0877C70.0683 16.4719 71.2122 17.6106 71.777 19.3255C72.3984 21.2051 72.3701 23.1121 71.7629 24.978C71.071 27.1182 69.6165 28.5314 67.2864 28.9292C66.1991 29.1076 65.1118 29.2036 64.0103 29.2997C63.2901 29.3683 62.5558 29.3957 61.8215 29.3957C61.1719 29.3957 60.8754 29.1487 60.7483 28.5314C60.6918 28.2844 60.6636 28.0375 60.6636 27.7905C60.6636 24.7173 60.6636 21.6304 60.6494 18.5572C60.6494 17.8164 60.6353 17.0892 61.3696 16.5405C59.9999 16.6639 58.7148 16.7737 57.5004 16.8834C57.571 17.4048 57.684 17.885 57.684 18.3652C57.6981 21.4932 57.6981 24.6213 57.684 27.7493C57.684 28.1061 57.6699 28.4765 57.6275 28.8332C57.5569 29.4506 57.2321 29.8759 56.6108 30.0817C55.7635 30.3561 55.0292 30.0817 54.4078 29.2173C53.2781 27.667 52.1767 26.0893 51.0611 24.539C50.3833 23.5923 49.7196 22.6457 48.957 21.5893V24.4704C48.957 26.1167 48.957 27.7493 48.957 29.3957C48.957 30.2463 48.3639 30.8362 47.5731 30.8362C46.8247 30.8362 46.4434 30.3972 46.4152 29.4643C46.4152 29.3271 46.4152 29.1762 46.4152 29.039C46.4152 25.9246 46.4011 22.824 46.4293 19.7097C46.4293 19.0923 46.5705 18.4749 46.6411 17.8301C44.3394 18.0222 41.9246 18.228 39.524 18.4338C39.75 18.8453 39.9759 19.2158 40.1453 19.6136C40.9785 21.5344 41.8117 23.4551 42.6307 25.3759C43.2097 26.7478 43.7886 28.1198 44.3252 29.5192C44.5794 30.164 44.1417 30.8637 43.4356 31.1381C42.7437 31.3988 42.2071 31.193 41.854 30.4795C41.5434 29.8347 41.2468 29.1625 40.9926 28.4902C40.8797 28.1884 40.7384 28.0786 40.3995 28.1061C38.7191 28.257 37.0387 28.3804 35.3582 28.5176C35.3159 28.6548 35.2735 28.7783 35.217 28.9155C34.8922 29.7387 34.5816 30.5481 34.2285 31.3576C34.0167 31.8378 33.5931 32.0299 33.0423 32.0161C32.5481 32.0024 32.1245 31.7966 32.0115 31.3713C31.9126 30.9597 31.9409 30.4658 32.0821 30.068C32.4351 29.0115 32.8729 27.9826 33.2824 26.9399C34.3697 24.196 35.4571 21.4658 36.5444 18.7082C33.819 18.9414 31.023 19.1746 28.0575 19.4353C29.9639 20.2036 30.4723 21.603 30.2181 23.2905C29.9498 25.0466 28.58 25.8423 26.9984 26.3637C27.0267 26.4185 27.0267 26.4597 27.0549 26.4734C28.7071 27.4887 29.6815 28.9978 30.4017 30.6991C30.5005 30.946 30.5005 31.289 30.4158 31.5497C30.2322 32.0847 29.7238 32.2905 29.2014 32.3454C28.5941 32.414 28.1423 32.071 27.8316 31.6045C27.2244 30.7128 26.6595 29.7936 26.0523 28.9155C25.7275 28.449 25.3886 27.9826 24.9791 27.5847C24.1601 26.7753 23.1151 27.0771 22.0842 27.0771C22.0842 28.353 22.0983 29.574 22.0842 30.8088C22.0842 31.2067 22.056 31.6045 21.9854 31.975C21.8442 32.6198 21.1805 33.0588 20.4462 33.0177C19.8107 32.9765 19.4435 32.5924 19.3588 31.8515C19.3306 31.6183 19.3165 31.385 19.3165 31.1381C19.3165 28.01 19.3023 24.882 19.3306 21.7539C19.3306 21.2188 19.4718 20.6838 19.5424 20.135C17.9749 20.2722 16.3227 20.4094 14.5576 20.5603C16.9441 21.7265 17.0288 24.9506 14.5858 26.2539C15.1366 26.6106 15.8709 26.8987 16.3369 27.4201C17.3395 28.5725 17.1983 29.9033 16.5346 31.1655C15.7438 32.6609 14.3034 33.1686 12.6936 33.3606C11.3944 33.5116 10.0811 33.6625 8.78198 33.7174C7.92058 33.7585 7.0027 34.1152 6.16955 33.539C6.02833 33.9369 6.21191 34.0466 6.56494 34.1289C15.4896 36.3927 24.4284 38.6701 33.353 40.9338C45.0454 43.911 56.752 46.8881 68.4444 49.879C68.7692 49.9613 68.9386 49.9202 69.1081 49.6458C74.1776 41.8668 79.2613 34.1015 84.3308 26.3225C84.4579 26.1167 84.5003 25.856 84.585 25.6228C84.1896 25.856 84.006 26.1167 83.7942 26.3774Z" fill="white"/>
</g>
<defs>
<clipPath id="clip0_1849_11222">
<rect width="91" height="50" fill="white"/>
</clipPath>
</defs>
</svg>
