<svg width="189" height="18" viewBox="0 0 189 18" fill="none" xmlns="http://www.w3.org/2000/svg">
<path d="M18.9115 4.72788C15.5186 4.72788 12.8487 7.34212 12.8487 10.7907C12.8487 14.2393 15.463 16.8535 18.9115 16.8535C22.4157 16.8535 25.03 14.2393 25.03 10.7907C25.03 7.34212 22.4157 4.72788 18.9115 4.72788ZM18.9115 14.2949C16.9648 14.2949 15.5186 12.7931 15.5186 10.7351C15.5186 8.67706 16.9091 7.17526 18.8559 7.17526C20.8027 7.17526 22.2489 8.73268 22.2489 10.7351C22.2489 12.7375 20.8583 14.2949 18.9115 14.2949ZM25.7531 7.34212H27.4217V16.5754H30.1472V4.95037H25.7531V7.34212ZM6.00719 7.23088C7.45337 7.23088 8.56581 8.12083 9.01079 9.40014H11.9031C11.4025 6.61904 9.06641 4.72788 6.06282 4.72788C2.66986 4.72788 0 7.34212 0 10.7907C0 14.2393 2.61424 16.8535 6.06282 16.8535C9.01079 16.8535 11.3469 14.9624 11.8475 12.1256H9.01079C8.62144 13.4049 7.45337 14.3505 6.06282 14.3505C4.11604 14.3505 2.72549 12.8487 2.72549 10.7907C2.66986 8.73268 4.0048 7.23088 6.00719 7.23088ZM77.3148 9.62263L75.3124 9.34452C74.3668 9.23328 73.6994 8.89954 73.6994 8.17646C73.6994 7.34212 74.5893 6.95277 75.7574 6.95277C77.0923 6.95277 77.9266 7.50899 78.0935 8.45457H80.7078C80.4296 6.11844 78.5941 4.72788 75.813 4.72788C72.9207 4.72788 71.0295 6.17406 71.0295 8.2877C71.0295 10.2901 72.2532 11.4025 74.7562 11.7919L76.7586 12.07C77.7042 12.1813 78.2604 12.5706 78.2604 13.2937C78.2604 14.2393 77.3148 14.573 75.9799 14.573C74.3668 14.573 73.4769 13.9055 73.31 12.9043H70.6401C70.8626 15.1848 72.6982 16.7979 75.9242 16.7979C78.8722 16.7979 80.8746 15.463 80.8746 13.1268C80.9859 11.0688 79.5397 9.95637 77.3148 9.62263ZM28.8123 0.111244C27.8111 0.111244 27.088 0.834332 27.088 1.83553C27.088 2.83673 27.8111 3.55982 28.8123 3.55982C29.8135 3.55982 30.5366 2.83673 30.5366 1.83553C30.5366 0.834332 29.8135 0.111244 28.8123 0.111244ZM68.6377 8.89954C68.6377 6.39655 67.0803 4.67226 63.8542 4.67226C60.795 4.67226 59.0707 6.22968 58.737 8.62143H61.4069C61.5181 7.67586 62.2412 6.95277 63.7986 6.95277C65.1892 6.95277 65.8566 7.56461 65.8566 8.2877C65.8566 9.23328 64.6329 9.51139 63.0755 9.67825C61.0175 9.90074 58.4033 10.6238 58.4033 13.3493C58.4033 15.463 59.9607 16.7979 62.4637 16.7979C64.4105 16.7979 65.6342 15.9636 66.246 14.6842C66.3572 15.8523 67.1916 16.5754 68.4153 16.5754H69.9727V14.1836H68.6377V8.89954ZM65.9679 11.8475C65.9679 13.4049 64.6329 14.573 62.9643 14.573C61.9631 14.573 61.0731 14.128 61.0731 13.2381C61.0731 12.07 62.4637 11.7919 63.743 11.625C64.9667 11.5138 65.6342 11.2357 65.9679 10.7351V11.8475ZM51.5617 4.72788C50.0599 4.72788 48.7806 5.33973 47.8907 6.39655V0H45.1652V16.5754H47.8351V15.018C48.725 16.1304 50.0043 16.7979 51.5617 16.7979C54.8434 16.7979 57.2908 14.2393 57.2908 10.7351C57.2908 7.23088 54.7878 4.72788 51.5617 4.72788ZM51.1724 14.2949C49.2256 14.2949 47.7794 12.7931 47.7794 10.7351C47.7794 8.67706 49.2256 7.17526 51.1724 7.17526C53.1192 7.17526 54.5097 8.67706 54.5097 10.7351C54.5097 12.7931 53.1192 14.2949 51.1724 14.2949ZM38.6574 4.72788C36.8775 4.72788 35.765 5.45097 35.042 6.45217V4.95037H32.3721V16.5754H35.0976V10.2345C35.0976 8.45457 36.21 7.17526 37.8787 7.17526C39.4361 7.17526 40.4373 8.2877 40.4373 9.90074V16.5754H43.1628V9.73388C43.1628 6.7859 41.661 4.72788 38.6574 4.72788ZM93.8902 10.4013C93.8902 7.06401 91.4428 4.72788 88.1611 4.72788C84.6569 4.72788 82.0983 7.34212 82.0983 10.7907C82.0983 14.4061 84.8238 16.8535 88.1611 16.8535C90.9979 16.8535 93.2227 15.1848 93.779 12.7931H90.9422C90.5529 13.8499 89.5517 14.4061 88.2168 14.4061C86.4925 14.4061 85.1575 13.3493 84.8794 11.4582H93.8346L93.8902 10.4013ZM85.1019 9.45577C85.5469 7.84272 86.7706 7.06401 88.1611 7.06401C89.7185 7.06401 90.8866 7.95397 91.1647 9.45577H85.1019Z" fill="white"/>
<path d="M105.294 14.5181L101.901 4.89551H100.066L104.293 16.6874H106.24L110.467 4.89551H108.631L105.294 14.5181Z" fill="white"/>
<path d="M152.961 12.2367C152.961 12.4035 153.017 12.5148 153.017 12.6816C153.017 12.8485 153.017 12.9597 152.961 13.1266C152.739 14.4615 151.571 15.5184 150.18 15.5184C148.623 15.5184 147.343 14.2391 147.343 12.6816V4.89453H145.619V12.4591C145.619 13.9053 146.287 15.1846 147.343 16.019C148.122 16.6308 149.123 17.0202 150.18 17.0202C151.237 17.0202 152.183 16.6864 152.961 16.0746C153.907 15.3515 154.574 14.2391 154.686 13.0154V4.89453H152.961V12.2367Z" fill="white"/>
<path d="M112.303 4.89551V6.56417V9.79026V11.4589V15.0187V16.6874H114.027H120.257V15.0187H114.027V11.4589H120.257V9.79026H114.027V6.56417H120.257V4.89551H114.027H112.303Z" fill="white"/>
<path d="M138.278 4.89453H134.385V6.39633H138.278V16.6864H140.003V6.39633H143.896V4.89453H140.003H138.278Z" fill="white"/>
<path d="M169.481 4.89453V6.5632V9.78928V11.4579V15.0178V16.6864H171.261H177.491V15.0178H171.261V11.4579H177.491V9.78928H171.261V6.5632H177.491V4.89453H171.261H169.481Z" fill="white"/>
<path d="M130.602 13.9619L125.04 4.89551H124.65H122.926V16.6874H124.65V7.62099L130.213 16.6874H130.602H132.326V4.89551H130.602V13.9619Z" fill="white"/>
<path d="M163.419 11.9039C164.587 11.9039 165.644 11.3477 166.255 10.4577C166.645 9.9015 166.923 9.17841 166.923 8.3997C166.923 7.62099 166.7 6.95353 166.255 6.34168C165.644 5.45173 164.587 4.89551 163.419 4.89551H159.636H157.912V6.34168V10.4021V11.8483V16.6874H159.636V11.8483L164.976 16.6874H167.479L162.139 11.8483H163.419V11.9039ZM159.636 6.34168H163.141C164.253 6.34168 165.199 7.23164 165.199 8.3997C165.199 9.56777 164.309 10.4577 163.141 10.4577H159.636V6.34168Z" fill="white"/>
<path d="M186.892 10.6801C186.558 10.4576 186.113 10.2907 185.724 10.1795C185.445 10.1239 185.167 10.0126 184.889 10.0126C184.5 9.957 184.055 9.90138 183.666 9.90138C183.332 9.90138 182.942 9.84575 182.609 9.73451C181.886 9.51202 181.274 8.90018 181.274 8.06585C181.274 6.9534 182.498 6.06345 183.999 6.06345C185.445 6.06345 186.614 6.89778 186.725 7.9546H188.338C188.171 6.17469 186.28 4.72852 183.944 4.72852C181.496 4.72852 179.55 6.28594 179.55 8.12147C179.55 8.67769 179.716 9.23391 180.05 9.73451C180.384 10.2351 180.884 10.6801 181.385 10.9026C181.83 11.1251 182.275 11.2363 182.72 11.3476C183.276 11.4588 183.888 11.4588 184.444 11.5144C185.001 11.57 185.612 11.7369 186.057 12.0706C186.558 12.4044 186.836 12.9606 186.78 13.5724C186.725 14.0174 186.391 14.4624 186.057 14.7405C185.445 15.2411 184.667 15.4636 183.944 15.4636C182.331 15.4636 181.051 14.518 181.051 13.2943V13.2387H179.216V13.2943C179.216 15.2411 181.329 16.7985 183.888 16.7985C186.502 16.7985 188.56 15.2411 188.56 13.2943C188.616 12.2931 187.948 11.2919 186.892 10.6801Z" fill="white"/>
</svg>
