<svg width="186" height="39" viewBox="0 0 186 39" fill="none" xmlns="http://www.w3.org/2000/svg">
<path d="M13.9837 0L6.98363 4.73606V4.75244V4.73606L0 9.4885V36.2661L6.98363 31.53V18.1412L13.9837 13.3888V0Z" fill="white"/>
<path d="M40.3774 18.1418L16.8691 13.5204V0.115234L40.3774 18.1418Z" fill="white"/>
<path d="M40.3774 4.73658V18.1418L16.8691 0.115234L40.3774 4.73658Z" fill="#DBDBDB"/>
<path d="M33.3766 36.266L9.88477 31.6446V18.2559L33.3766 36.266Z" fill="white"/>
<path d="M33.3766 22.8772V36.266L9.88477 18.2559L33.3766 22.8772Z" fill="#DBDBDB"/>
<path d="M50.2952 2.81934H60.5247V6.17882H52.9182V9.5547H59.7706V12.7667H52.9182V19.7315H52.8198H52.869H52.7706H52.8198H52.7214H52.7706H52.6886H52.7214H52.6395H52.6886H52.5903H52.6395H52.5411H52.5903H52.4919H52.5411H52.4591H52.4919H52.41H52.4591H52.3608H52.41H52.3116H52.3608H52.2624H52.3116H52.2296H52.2624H52.1804H52.2296H52.1313H52.1804H52.0821H52.1313H52.0657H52.0985H52.0165H52.0657H51.9837H52.0165H51.9345H51.9837H51.8854H51.9345H51.8362H51.8854H51.8034H51.8362H51.7542H51.8034H51.705H51.7542H51.6559H51.705H51.6231H51.6559H51.5739H51.6231H51.5247H51.5739H51.4755H51.5247H51.4264H51.4755H51.41H51.4427H51.3608H51.41H51.3116H51.3608H51.246H51.2952H51.1968H51.246H51.1641H51.1968H51.1149H51.1641H51.0821H51.1313H51.0329H51.0821H51.0001H51.0329H50.9837H51.0165H50.9182H50.9673H50.869H50.9182H50.8198H50.869H50.7706H50.8198H50.7378H50.7706H50.6886H50.7378H50.6395H50.6886H50.5903H50.6395H50.5411H50.5903H50.5083H50.5411H50.4591H50.5083H50.41H50.4591H50.3608H50.41H50.328H50.3608H50.2788H50.328H50.2296H50.2788H50.1804H50.2296H50.1313H50.1804H50.0985H50.1313H50.0821H50.1149H50.0329H50.0821H49.9837H50.0329H49.9345H49.9837H49.9018H49.9345H49.8526H49.9018H49.8034H49.8526H49.7542H49.8034H49.705H49.7542H49.6722H49.705H49.6231H49.6722H49.5739H49.6231H49.5247H49.5739H49.4755H49.5247H49.4427H49.4755H49.3936V2.81934H50.2952Z" fill="white"/>
<path d="M65.3272 2.81934H76.2617V6.17882H68.6551V9.5547H75.5568V12.7175H68.6551V16.2245C68.7043 16.3228 68.7863 16.372 68.901 16.372H76.9338V19.7315H65.1797V2.81934H65.3272Z" fill="white"/>
<path d="M82.9841 2.78613H86.7219L86.9022 3.08111L87.0825 3.32693L87.2628 3.60552L87.4432 3.85134L87.6235 4.12993L87.7546 4.26103L87.8038 4.40852C87.8366 4.44129 87.853 4.47407 87.853 4.49046C88.0497 4.73627 88.1973 4.9657 88.2792 5.14597C88.4924 5.39178 88.6563 5.62121 88.7383 5.80148L88.9186 6.03091L89.0661 6.3095C89.1153 6.37505 89.1645 6.42421 89.1973 6.47337C89.2301 6.52254 89.2629 6.55531 89.2956 6.58809L89.3448 6.73558C89.4596 6.85029 89.5415 6.96501 89.5743 7.09611C89.853 7.39109 90.0661 7.71884 90.1809 8.03021L90.3612 8.27603C90.394 8.3088 90.4104 8.34158 90.4104 8.35796V8.39074C90.5251 8.50545 90.6235 8.62017 90.7055 8.73488C90.7874 8.8496 90.853 8.94792 90.9186 9.04625L91.0661 9.32484L91.1973 9.55427L91.3776 9.83286L91.5743 10.0131L91.7055 10.2426L91.8038 10.4392C91.9678 10.6359 92.0989 10.8489 92.1809 11.0456L92.312 11.2258L92.4104 11.3733L92.5415 11.5044C92.6071 11.6191 92.6727 11.7175 92.7219 11.7994C92.7711 11.8813 92.8202 11.9633 92.853 12.0452L92.9842 12.1763L93.0825 12.3074L93.1153 12.4385L93.2137 12.4877C93.2956 12.6843 93.4104 12.8646 93.5415 12.9957L93.5743 13.1268C93.6071 13.1596 93.6235 13.1923 93.6235 13.2087C93.7547 13.3398 93.8694 13.4873 93.9678 13.6348C94.0661 13.7823 94.1481 13.9298 94.2137 14.0609L94.2465 13.7331V2.78613H97.7383V19.6327H94.8366H94.9186H93.8038L93.7547 19.5508C93.6235 19.4197 93.5416 19.305 93.5252 19.1903C93.476 19.1739 93.4432 19.1411 93.4432 19.1083L93.476 19.0755C93.2137 18.8133 93.017 18.5348 92.9022 18.2398C92.8694 18.207 92.853 18.1742 92.853 18.1578L92.8858 18.1251L92.7055 17.8792C92.5252 17.7154 92.394 17.5351 92.3284 17.3548L92.0989 17.0762L91.9514 16.7977L91.7711 16.4699C91.5743 16.2569 91.4104 16.0438 91.312 15.8635L91.2301 15.7652C91.1645 15.6341 91.0989 15.5194 91.0333 15.4047C90.9678 15.3064 90.9022 15.208 90.8366 15.1261L90.8038 15.0442L90.7055 14.9131L90.2956 14.2739C90.2465 14.2084 90.1973 14.1428 90.1645 14.0773C90.1317 14.0117 90.0989 13.979 90.0661 13.9462C90.0333 13.9134 90.0169 13.8806 90.0169 13.8642L90.0497 13.8315L89.9514 13.7823L89.771 13.4873L89.7219 13.389C89.6235 13.2579 89.5579 13.1432 89.5251 13.0612C89.4432 12.9957 89.394 12.9138 89.3776 12.8318L89.1973 12.6516L89.0497 12.373L88.9514 12.1435L88.8694 12.1108L88.2628 11.2094L88.2137 11.0619L88.1153 10.8817L87.9842 10.7506L87.8858 10.6031L87.8366 10.472C87.7546 10.39 87.6727 10.3081 87.6235 10.2426C87.5579 10.177 87.5251 10.1115 87.4924 10.0459L87.394 9.86564C87.2628 9.70176 87.1809 9.53788 87.1645 9.40678C87.0989 9.39039 87.0661 9.35762 87.0661 9.30845L86.9678 9.25929L86.935 9.16096L86.7546 8.86598L86.3284 8.29241V19.6327H82.8694V2.78613H82.9841Z" fill="white"/>
<path d="M104.804 2.81934H112.312L112.46 2.8685H112.591L112.951 2.91766L113.656 3.09793C114.919 3.65511 115.82 4.4745 116.361 5.57248C116.673 6.27715 116.82 6.93266 116.82 7.539C116.82 8.73531 116.246 9.73496 115.083 10.538C116.328 11.1279 117.099 12.0129 117.378 13.2092C117.41 13.4386 117.443 13.6844 117.46 13.8974C117.476 14.1269 117.492 14.3563 117.492 14.5693C117.492 16.8309 116.443 18.4041 114.328 19.3218H114.197C113.837 19.4857 113.509 19.584 113.214 19.6004L112.919 19.6823L112.787 19.7315H104.197V2.81934H104.804ZM107.64 9.60386H111.705L111.951 9.5547C112.755 9.145 113.165 8.58782 113.165 7.86676C113.165 7.78482 113.165 7.70288 113.148 7.62094C113.132 7.539 113.132 7.47345 113.115 7.37513C112.935 6.93266 112.673 6.58852 112.361 6.3427C112.279 6.32631 112.197 6.29354 112.148 6.26076C112.083 6.22799 112.033 6.19521 111.951 6.16243L111.804 6.11327H111.525C111.46 6.09688 111.394 6.0805 111.328 6.0805H107.64V9.60386ZM107.64 16.4375H111.361C111.886 16.4375 112.197 16.4048 112.328 16.3392C113.23 15.864 113.689 15.1921 113.689 14.3235C113.689 14.258 113.689 14.1924 113.673 14.1433C113.656 14.0941 113.656 14.0286 113.656 13.963C113.443 13.2419 113.017 12.7175 112.427 12.3898C112.345 12.3734 112.246 12.357 112.148 12.3406C112.05 12.3242 111.951 12.2914 111.869 12.2587H107.64V16.4375Z" fill="white"/>
<path d="M122.869 2.91733H126.099V13.553L126.378 14.5198C127.132 15.8145 128.181 16.5192 129.542 16.6175C130.968 16.5028 132.033 15.8636 132.722 14.7165V14.5526C132.804 14.3396 132.869 14.1102 132.935 13.8971C133.001 13.6841 133.033 13.4546 133.05 13.2088C133.066 13.0941 133.083 12.9794 133.083 12.8647C133.099 12.75 133.099 12.6516 133.099 12.5533V2.91733H136.558V13.7824C136.542 13.8643 136.525 13.9299 136.525 13.9791C136.509 14.0282 136.509 14.0774 136.509 14.1102L136.46 14.2085C136.427 14.3887 136.394 14.569 136.378 14.7329C136.345 14.8968 136.328 15.0443 136.296 15.1754C135.624 17.0272 134.525 18.371 132.984 19.2231C131.82 19.8295 130.689 20.1245 129.574 20.1245C128.837 20.1245 128.115 19.9934 127.394 19.7475C124.148 18.5185 122.525 16.0603 122.525 12.3403C122.525 11.8814 122.558 11.4062 122.607 10.8982V2.86816L122.869 2.91733Z" fill="white"/>
<path d="M156.264 5.16211L156.182 5.26043L155.723 5.62096L155.625 5.71929L155.51 5.86678L155.362 5.94872L155.084 6.22731L154.985 6.35841L154.805 6.45674C154.756 6.52229 154.707 6.58784 154.657 6.637C154.608 6.68617 154.559 6.73533 154.526 6.7681L154.297 6.94837L154.248 7.03031L154.149 7.07947C154.002 7.27612 153.854 7.42361 153.69 7.50555C152.297 6.40757 150.887 5.86678 149.493 5.86678C149.264 5.86678 149.018 5.88317 148.756 5.91594C148.51 5.94872 148.231 5.99788 147.952 6.06343C147.854 6.16176 147.739 6.2437 147.625 6.29286C147.444 6.47313 147.28 6.60423 147.166 6.66978L147.116 6.7681L146.887 7.29251C146.92 7.89886 147.116 8.3741 147.461 8.70186L148.215 8.94767L148.92 9.09516C149.034 9.12794 149.149 9.16072 149.231 9.1771C149.329 9.19349 149.411 9.20988 149.493 9.22626L149.674 9.27543L149.821 9.32459L150.002 9.35737L150.198 9.39014L150.428 9.48847H150.559L150.936 9.61957L151.116 9.66874H151.264C151.329 9.70151 151.395 9.7179 151.461 9.73429C151.526 9.75067 151.559 9.75067 151.592 9.76706C151.608 9.78345 151.641 9.79984 151.69 9.79984L152.051 9.89816C152.116 9.93094 152.182 9.96371 152.248 9.9801C152.313 9.99649 152.362 10.0129 152.411 10.0293L152.543 10.0784L153.116 10.3079L153.215 10.3898C153.477 10.5209 153.707 10.6684 153.903 10.8487C153.92 10.865 153.936 10.8814 153.952 10.8814C153.969 10.8978 153.985 10.8978 154.002 10.9142L154.084 10.9634C154.231 11.0453 154.33 11.1436 154.379 11.242C154.575 11.3731 154.739 11.5042 154.838 11.6189C155.543 12.6185 155.903 13.6182 155.903 14.6506C155.903 14.7817 155.805 15.3225 155.625 16.2402C155.034 17.8954 154.002 18.9606 152.543 19.4686C150.821 19.9111 149.493 20.1241 148.559 20.1241C145.723 20.1241 143.297 19.0097 141.28 16.7974L141.428 16.6171L141.608 16.5188C141.641 16.4696 141.707 16.4205 141.788 16.3877C141.87 16.273 141.969 16.1747 142.067 16.1091C142.166 16.0436 142.264 15.9944 142.346 15.9616C142.379 15.9289 142.411 15.8961 142.444 15.8797C142.477 15.8469 142.51 15.8305 142.526 15.8141L142.625 15.683L142.756 15.5847L142.854 15.5028L142.985 15.4044L143.116 15.3553L143.198 15.2242L143.297 15.175L143.395 15.0931L143.477 15.0439L143.575 15.0111L144.182 14.4867C145.739 15.978 147.395 16.7319 149.182 16.7319C149.969 16.7319 150.477 16.6663 150.69 16.5516L150.838 16.4533L150.969 16.4205L151.018 16.3222L151.674 15.8961C151.707 15.8141 151.756 15.7158 151.805 15.6175C151.854 15.5192 151.92 15.4044 151.985 15.257C151.985 15.2078 151.985 15.1586 152.002 15.0931C152.018 15.0275 152.018 14.9784 152.018 14.9292C152.018 14.2901 151.772 13.7657 151.264 13.356L151.084 13.3068L150.936 13.2085L150.756 13.1757L150.428 13.0938H150.28L150.1 13.0446L150.018 12.9954C149.887 12.9791 149.756 12.9463 149.641 12.9135C149.526 12.8807 149.411 12.848 149.313 12.8152H149.182L149.034 12.766L148.707 12.6841C148.313 12.6349 148.002 12.553 147.772 12.4547C144.87 12.0941 143.28 10.6028 142.985 7.99718C143.051 4.70325 145.002 2.83505 148.854 2.39258H149.182C152.084 2.39258 154.444 3.31029 156.264 5.16211Z" fill="white"/>
<path d="M162.362 2.86816H165.263V9.27577H172.001V2.86816H175.509V19.7311H172.001V12.5533H165.263V19.7311H161.771V2.86816H162.362Z" fill="white"/>
<path d="M182.558 2.86719H185.443V19.7302H181.984V2.86719H182.558Z" fill="white"/>
<path d="M60.41 29.5639L60.2789 29.6458L59.7379 29.8425L59.6068 29.908L59.4756 29.9408C59.3281 30.0391 59.1969 30.0883 59.0822 30.1047L58.9182 30.1375L58.8527 30.203H58.7871L58.7379 30.2522H58.6559L58.5904 30.3177H58.5084L58.4428 30.3833L58.3117 30.3997L57.9674 30.5308C57.5412 28.9575 56.6231 28.1709 55.2133 28.1709C55.0822 28.1709 54.951 28.1873 54.8035 28.2037C54.6559 28.2201 54.5084 28.2365 54.3445 28.2693C52.9182 28.8101 52.1969 29.8589 52.1969 31.4485V31.5632C52.1641 31.8418 52.1477 32.1204 52.1477 32.3662C52.1477 33.6444 52.574 34.6605 53.4264 35.3979C53.9838 35.7748 54.5576 35.9551 55.1477 35.9551C55.574 35.9551 55.869 35.9059 56.033 35.824C57.1641 35.4471 57.8199 34.7096 57.9838 33.5953C58.1805 33.628 58.3445 33.6936 58.4756 33.7755C58.574 33.7919 58.6559 33.8247 58.7543 33.8575C58.8527 33.8903 58.9346 33.923 59.0166 33.9722L59.1477 34.0377L59.3445 34.0705L59.4264 34.1033L59.6396 34.1852L59.7707 34.218L59.8527 34.2836C59.9019 34.2999 59.951 34.2999 59.9838 34.3163C60.033 34.3327 60.0658 34.3491 60.115 34.3655L60.4756 34.4966C59.6396 36.8073 58.0822 38.0527 55.8199 38.2658C55.7215 38.2822 55.6232 38.2822 55.5248 38.2822H55.2297C53.1805 38.2822 51.6395 37.4956 50.5903 35.9223C49.8526 34.6113 49.4756 33.3003 49.4756 32.022C49.4756 31.5632 49.5248 31.1207 49.6231 30.6619C49.7215 30.2194 49.8526 29.7605 50.033 29.3017C50.9346 27.2532 52.41 26.0897 54.4756 25.8111C54.574 25.8111 54.6559 25.8111 54.7379 25.7947C54.8199 25.7947 54.9018 25.7783 55.0002 25.7783C57.6887 25.8439 59.5248 27.0893 60.41 29.5639Z" fill="white"/>
<path d="M76.4096 26.0898H79.426V26.1718C79.4752 26.2701 79.508 26.352 79.5408 26.434C79.5736 26.5159 79.59 26.5979 79.6064 26.6798L79.6719 26.8928L79.7047 27.0239C79.7211 27.0403 79.7211 27.0731 79.7211 27.1059C79.7375 27.2042 79.7703 27.2534 79.7703 27.237C79.7867 27.237 79.7867 27.2534 79.7867 27.3025C79.8523 27.4009 79.8687 27.4828 79.8687 27.532L80.0654 28.0564V28.1219C80.1146 28.2203 80.1473 28.3022 80.1801 28.4005C80.2129 28.4825 80.2293 28.5808 80.2457 28.6791C80.3113 28.8102 80.3441 28.9249 80.3768 29.0233C80.4096 29.1216 80.426 29.2035 80.4424 29.2691C80.4588 29.2855 80.4588 29.3182 80.4752 29.351C80.4752 29.3838 80.4916 29.4166 80.508 29.4329L80.5736 29.564C80.59 29.6296 80.6228 29.6788 80.6228 29.7115C80.6391 29.7607 80.6391 29.7935 80.6555 29.8099V29.9246C80.6719 29.941 80.6883 29.9737 80.6883 30.0065C80.7375 30.0721 80.7703 30.154 80.7703 30.2359L80.9506 30.744L80.9834 30.8751L81.0162 30.9406L81.0654 31.2192L81.131 31.3503L81.1965 31.4978L81.2129 31.6125L81.2457 31.7436L81.3113 31.9239C81.3277 31.973 81.3277 32.0222 81.3441 32.055C81.3605 32.1041 81.3605 32.1369 81.3769 32.1697V32.2516C81.3932 32.3172 81.426 32.3827 81.4424 32.4319C81.4588 32.4811 81.4752 32.5466 81.508 32.6122L81.7047 33.1202L81.7375 33.3004L81.8195 33.4807L81.8851 33.6774V33.7593L81.9342 33.874L81.967 34.0051L81.9998 34.1526C82.0818 34.3493 82.1473 34.5131 82.1965 34.677C82.2457 34.8245 82.2785 34.972 82.3113 35.1031C82.3277 35.1195 82.3441 35.1523 82.3441 35.185C82.508 35.5456 82.6228 35.8569 82.6719 36.1191L82.7047 36.2011L82.7375 36.3322L82.7703 36.4797L82.8031 36.5616L82.8195 36.6927C82.8359 36.7583 82.8687 36.791 82.8687 36.8074C82.8851 36.8238 82.8851 36.8402 82.8851 36.873C82.8851 36.8894 82.8851 36.9058 82.9015 36.9221C82.9015 36.9221 82.9178 36.9385 82.9178 36.9549C82.9178 36.9713 82.9178 36.9713 82.9342 36.9713L82.9834 37.086V37.168C82.9834 37.1843 82.9834 37.2007 82.9998 37.2171C82.9998 37.2171 83.0162 37.2335 83.0162 37.2499C83.0162 37.2663 83.0162 37.2663 83.0326 37.2663C83.0982 37.3646 83.131 37.4465 83.1474 37.5121C83.1637 37.594 83.1965 37.6596 83.2129 37.7251C83.2293 37.7907 83.2621 37.8399 83.2621 37.889L83.3113 38.0857H80.59L80.5408 37.889V37.7579L80.4752 37.676V37.5613C80.4588 37.5121 80.4424 37.4629 80.426 37.4302C80.426 37.381 80.4096 37.3482 80.3932 37.3318C80.3769 37.3154 80.3768 37.2991 80.3768 37.2663L80.3113 37.1843V37.1024L80.2785 36.9549L80.1965 36.7583L79.9834 35.9717H75.508L75.4752 36.1191L75.4424 36.283L75.3932 36.4141C75.3768 36.4797 75.3768 36.5288 75.3604 36.578C75.3441 36.6272 75.3277 36.6763 75.3113 36.7255L75.2621 36.9385L75.1473 37.2663L75.1309 37.3974L75.0981 37.4629C75.0654 37.594 75.0326 37.6924 74.9834 37.7251L74.9014 38.1021H72.2129L72.2621 37.8562L72.3768 37.5285L72.3932 37.4138L72.426 37.3482L72.4588 37.2663L72.4916 37.2007L72.6555 36.6927L72.6883 36.6108V36.5288L72.7211 36.3813L72.7867 36.2502L72.8686 35.9061L72.9342 35.7258L72.9834 35.562C73.0162 35.4472 73.049 35.3325 73.0981 35.2342C73.1309 35.1359 73.1637 35.0539 73.1801 34.9884L73.2621 34.7262C73.2785 34.6115 73.3113 34.4968 73.344 34.3984C73.3768 34.3001 73.4096 34.2182 73.426 34.1526C73.4424 34.0871 73.4752 34.0379 73.4916 34.0051C73.508 33.9723 73.5244 33.9396 73.5408 33.9232L73.5899 33.661L73.7047 33.4479L73.7539 33.2021L73.7867 33.153C73.8031 33.0382 73.8358 32.9235 73.8686 32.8416C73.9014 32.7597 73.9342 32.6613 73.9834 32.5794L74.0162 32.3336L74.2785 31.6453L74.3277 31.4322L74.3604 31.3503L74.3932 31.2356C74.4588 31.0389 74.5244 30.8751 74.5899 30.744L74.6227 30.5473L74.6555 30.4654V30.3507L74.6883 30.2687L74.9014 29.6951L74.9342 29.5149L74.9998 29.3674L75.049 29.2363C75.0981 29.0069 75.1473 28.843 75.2129 28.7283L75.2457 28.5644L75.2949 28.4005C75.3113 28.2858 75.344 28.1711 75.3768 28.0728C75.4096 27.9744 75.4424 27.8925 75.4588 27.8433L75.4916 27.6958L75.5244 27.5647C75.5408 27.4992 75.5736 27.45 75.59 27.4009C75.6063 27.3517 75.6391 27.3025 75.6391 27.2534L75.7539 26.9256L75.7703 26.8109L76.0162 26.0898H76.4096ZM77.7539 28.843L77.6719 29.2035L77.6391 29.2527L77.4752 29.8099L77.3113 30.3507L77.2785 30.4162L77.0818 31.1045L77.049 31.2356L76.8522 31.7764L76.8031 31.9403C76.7867 32.1041 76.7375 32.2516 76.6883 32.3663C76.6719 32.4811 76.6391 32.5958 76.5736 32.7105L76.5408 32.8416C76.508 33.0055 76.4588 33.1202 76.4096 33.1693L76.2293 33.8576H79.4096L79.3441 33.6118L79.1473 33.0219L78.9834 32.4811C78.9506 32.3827 78.9178 32.3008 78.9014 32.2025C78.885 32.1205 78.8523 32.0386 78.8359 31.973L78.8195 31.9239C78.8031 31.8092 78.7703 31.7272 78.7539 31.6617C78.7375 31.5961 78.7047 31.547 78.7047 31.5306L78.6883 31.4159L78.6555 31.2848L78.59 31.1209L78.5572 30.9242L78.5408 30.7931L78.4752 30.7276L78.4424 30.5309L78.426 30.3998C78.4096 30.367 78.3932 30.3343 78.3768 30.2851C78.3768 30.2523 78.3605 30.2196 78.3441 30.2032L78.3113 30.0885C78.2949 30.0229 78.2621 29.941 78.2293 29.8754C78.1965 29.8099 78.1801 29.7279 78.1473 29.646L78.1309 29.5313L78.1145 29.4821L78.049 29.2199L78.0162 29.1052L77.8523 28.7119L77.7539 28.843Z" fill="white"/>
<path d="M96.4923 26.0732H101.673L101.738 26.0896H101.82L102.033 26.1224L102.115 26.1552L102.558 26.2371C104.246 27.0565 105.083 28.2856 105.083 29.908C105.083 30.1702 105.066 30.4324 105.033 30.6946C104.394 32.8086 103.066 33.8738 101.05 33.8738C100.804 33.8738 100.525 33.8574 100.246 33.8246H98.6727V38.0199H96.1973V26.0732H96.4923ZM98.6891 31.5795H101.328C101.558 31.5304 101.673 31.4976 101.673 31.4976C102.328 31.1043 102.656 30.5963 102.656 29.9899C102.656 29.908 102.64 29.8096 102.624 29.7113C102.607 29.613 102.591 29.4983 102.558 29.3672C102.361 28.9247 102.066 28.6133 101.64 28.4331H101.525C101.246 28.3675 101.001 28.3184 100.771 28.3184H98.6727V31.5795H98.6891Z" fill="white"/>
<path d="M118.444 26.123H120.493V38.1025H118.034V26.1394H118.444V26.123Z" fill="white"/>
<path d="M133.295 26.0732H142.426V28.4331H139.033V38.0527H136.541V28.4331H133.164V26.0732H133.295Z" fill="white"/>
<path d="M157.903 26.0898H160.919V26.1718C160.968 26.2701 161.001 26.352 161.034 26.434C161.066 26.5159 161.083 26.5979 161.099 26.6798L161.165 26.8928L161.198 27.0239C161.214 27.0403 161.214 27.0731 161.214 27.1059C161.23 27.2042 161.263 27.2534 161.263 27.237C161.28 27.237 161.28 27.2534 161.28 27.3025C161.345 27.4009 161.362 27.4828 161.362 27.532L161.558 28.0564V28.1219C161.607 28.2203 161.64 28.3022 161.673 28.4005C161.706 28.4825 161.722 28.5808 161.739 28.6791C161.804 28.8102 161.837 28.9249 161.87 29.0233C161.903 29.1216 161.919 29.2035 161.935 29.2691C161.952 29.2855 161.952 29.3182 161.968 29.351C161.968 29.3838 161.985 29.4166 162.001 29.4329L162.066 29.564C162.083 29.6296 162.116 29.6788 162.116 29.7115C162.132 29.7607 162.132 29.7935 162.148 29.8099V29.9246C162.165 29.941 162.181 29.9737 162.181 30.0065C162.23 30.0721 162.263 30.154 162.263 30.2359L162.444 30.744L162.476 30.8751L162.509 30.9406L162.558 31.2192L162.624 31.3503L162.689 31.4978L162.706 31.6125L162.739 31.7436L162.804 31.9239C162.821 31.973 162.821 32.0222 162.837 32.055C162.853 32.1041 162.853 32.1369 162.87 32.1697V32.2516C162.886 32.3172 162.919 32.3827 162.935 32.4319C162.952 32.4811 162.968 32.5466 163.001 32.6122L163.198 33.1202L163.23 33.3004L163.312 33.4807L163.378 33.6774V33.7593L163.427 33.874L163.46 34.0051L163.493 34.1526C163.575 34.3493 163.64 34.5131 163.689 34.677C163.739 34.8245 163.771 34.972 163.804 35.1031C163.821 35.1195 163.837 35.1523 163.837 35.185C164.001 35.5456 164.116 35.8569 164.165 36.1191L164.198 36.2011L164.23 36.3322L164.263 36.4797L164.296 36.5616L164.312 36.6927C164.329 36.7583 164.362 36.791 164.362 36.8074C164.378 36.8238 164.378 36.8402 164.378 36.873C164.378 36.8894 164.378 36.9058 164.394 36.9221C164.394 36.9221 164.411 36.9385 164.411 36.9549C164.411 36.9713 164.411 36.9713 164.427 36.9713L164.476 37.086V37.168C164.476 37.1843 164.476 37.2007 164.493 37.2171C164.493 37.2171 164.509 37.2335 164.509 37.2499C164.509 37.2663 164.509 37.2663 164.526 37.2663C164.591 37.3646 164.624 37.4465 164.64 37.5121C164.657 37.594 164.689 37.6596 164.706 37.7251C164.722 37.7907 164.755 37.8399 164.755 37.889L164.804 38.0857H162.083L162.034 37.889V37.7579L161.968 37.676V37.5613C161.952 37.5121 161.935 37.4629 161.919 37.4302C161.919 37.381 161.903 37.3482 161.886 37.3318C161.87 37.3154 161.87 37.2991 161.87 37.2663L161.804 37.1843V37.1024L161.771 36.9549L161.689 36.7583L161.476 35.9717H157.001L156.968 36.1191L156.935 36.283L156.886 36.4141C156.87 36.4797 156.87 36.5288 156.853 36.578C156.837 36.6272 156.821 36.6763 156.804 36.7255L156.755 36.9385L156.64 37.2663L156.624 37.3974L156.591 37.4629C156.558 37.594 156.525 37.6924 156.476 37.7251L156.394 38.1021H153.706L153.755 37.8562L153.87 37.5285L153.886 37.4138L153.919 37.3482L153.952 37.2663L153.985 37.2007L154.148 36.6927L154.181 36.6108V36.5288L154.214 36.3813L154.28 36.2502L154.362 35.9061L154.427 35.7258L154.476 35.562C154.509 35.4472 154.542 35.3325 154.591 35.2342C154.624 35.1359 154.657 35.0539 154.673 34.9884L154.755 34.7262C154.771 34.6115 154.804 34.4968 154.837 34.3984C154.87 34.3001 154.903 34.2182 154.919 34.1526C154.935 34.0871 154.968 34.0379 154.985 34.0051C155.001 33.9723 155.017 33.9396 155.034 33.9232L155.083 33.661L155.198 33.4479L155.247 33.2021L155.28 33.153C155.296 33.0382 155.329 32.9235 155.362 32.8416C155.394 32.7597 155.427 32.6613 155.476 32.5794L155.509 32.3336L155.771 31.6453L155.821 31.4322L155.853 31.3503L155.886 31.2356C155.952 31.0389 156.017 30.8751 156.083 30.744L156.116 30.5473L156.148 30.4654V30.3507L156.181 30.2687L156.394 29.6951L156.427 29.5149L156.493 29.3674L156.542 29.2363C156.591 29.0069 156.64 28.843 156.706 28.7283L156.739 28.5644L156.788 28.4005C156.804 28.2858 156.837 28.1711 156.87 28.0728C156.903 27.9744 156.935 27.8925 156.952 27.8433L156.985 27.6958L157.017 27.5647C157.034 27.4992 157.066 27.45 157.083 27.4009C157.099 27.3517 157.132 27.3025 157.132 27.2534L157.247 26.9256L157.263 26.8109L157.509 26.0898H157.903ZM159.247 28.843L159.165 29.2035L159.132 29.2527L158.968 29.8099L158.804 30.3507L158.771 30.4162L158.575 31.1045L158.542 31.2356L158.345 31.7764L158.296 31.9403C158.28 32.1041 158.23 32.2516 158.181 32.3663C158.165 32.4811 158.132 32.5958 158.066 32.7105L158.034 32.8416C158.001 33.0055 157.952 33.1202 157.903 33.1693L157.722 33.8576H160.903L160.837 33.6118L160.64 33.0219L160.476 32.4811C160.444 32.3827 160.411 32.3008 160.394 32.2025C160.378 32.1205 160.345 32.0386 160.329 31.973L160.312 31.9239C160.296 31.8092 160.263 31.7272 160.247 31.6617C160.23 31.5961 160.198 31.547 160.198 31.5306L160.181 31.4159L160.148 31.2848L160.083 31.1209L160.05 30.9242L160.034 30.7931L159.968 30.7276L159.935 30.5309L159.919 30.3998C159.903 30.367 159.886 30.3343 159.87 30.2851C159.87 30.2523 159.853 30.2196 159.837 30.2032L159.804 30.0885C159.788 30.0229 159.755 29.941 159.722 29.8754C159.689 29.8099 159.673 29.7279 159.64 29.646L159.624 29.5313L159.607 29.4821L159.542 29.2199L159.509 29.1052L159.345 28.7119L159.247 28.843Z" fill="white"/>
<path d="M178.115 26.0896H180.164V35.6765H185.459V38.0527H177.688V26.0732H178.115V26.0896Z" fill="white"/>
</svg>
