<svg width="115" height="50" viewBox="0 0 115 50" fill="none" xmlns="http://www.w3.org/2000/svg">
<path fill-rule="evenodd" clip-rule="evenodd" d="M0.919434 0.0244141H115V49.892H0.919434V0.0244141ZM11.7623 23.0333V7.50169H19.3346L18.6241 9.4547C18.5511 9.65438 18.3564 9.79075 18.1423 9.79075H14.5995V14.3299H17.9671V16.6385H14.5995V23.0333H11.7623ZM26.8996 21.4609V12.1828H24.2036V19.766C24.2036 20.2287 24.0819 20.6134 23.8483 20.9105C23.6099 21.2125 23.2984 21.3586 22.9188 21.3586C22.4954 21.3586 22.2083 21.2417 22.0526 21.0031C21.8969 20.7644 21.819 20.4089 21.819 19.9316V12.1828H19.1424V20.3358C19.1424 21.344 19.3906 22.0892 19.887 22.5616C20.3834 23.0389 21.0403 23.2775 21.8579 23.2775C22.5636 23.2775 23.1232 23.1509 23.5223 22.8976C23.9213 22.6444 24.262 22.3716 24.5345 22.0697H24.5734C24.5734 22.1914 24.5929 22.3521 24.6367 22.5518C24.6756 22.7515 24.7097 22.9074 24.7389 23.034H27.0894V22.995C27.0213 22.7613 26.9726 22.5031 26.9483 22.2206C26.9142 21.9333 26.8996 21.68 26.8996 21.4609ZM32.012 12.3868C32.4792 12.0459 33.034 11.8754 33.6764 11.8754C34.455 11.8754 35.0439 12.1482 35.4624 12.7034C35.8712 13.2537 36.0756 13.9794 36.0756 14.8804V23.048H33.3795V15.6061C33.3795 15.085 33.2871 14.7197 33.1021 14.5103C32.9221 14.3009 32.6641 14.1937 32.3381 14.1937C32.1872 14.1937 32.0315 14.2278 31.866 14.296C31.7054 14.3642 31.5594 14.4713 31.428 14.6126C31.2966 14.7538 31.1945 14.934 31.1117 15.1532C31.029 15.3675 30.9901 15.6256 30.9901 15.9276V23.0383H28.294V13.5119C28.294 13.2537 28.2891 13.0151 28.2745 12.7959C28.2599 12.5767 28.221 12.3722 28.1529 12.1822H30.664C30.6672 12.2017 30.6716 12.2245 30.6766 12.251C30.6867 12.304 30.6997 12.3722 30.7127 12.4599C30.7321 12.5914 30.7467 12.7277 30.7613 12.869C30.7711 13.0102 30.7857 13.1515 30.8003 13.2878C30.8149 13.4242 30.8197 13.5265 30.8197 13.5947H30.8587C31.1555 13.132 31.54 12.7277 32.012 12.3868ZM45.1755 22.9938C45.1073 22.8429 45.0538 22.614 45.0246 22.3071C44.9905 22.0003 44.9759 21.7129 44.9759 21.4402V7.68632H42.2994V12.9414H42.2604C42.1923 12.844 42.1047 12.7417 41.9928 12.6249C41.8857 12.508 41.7397 12.396 41.5645 12.2888C41.3893 12.1817 41.1703 12.0891 40.9124 12.0112C40.6545 11.9381 40.3382 11.8992 39.9732 11.8992C39.1994 11.8992 38.5424 12.167 38.012 12.6979C37.4815 13.2288 37.2139 14.0275 37.2139 15.0893V20.0375C37.2139 20.9921 37.4475 21.7568 37.9098 22.3266C38.3721 22.9013 39.0729 23.1838 40.0121 23.1838C40.3528 23.1838 40.6496 23.1448 40.9124 23.062C41.1703 22.9792 41.3991 22.877 41.5986 22.7552C41.7933 22.6334 41.9636 22.5019 42.0998 22.3558C42.2361 22.2146 42.3432 22.0782 42.4259 21.9565H42.4454C42.4535 21.9985 42.462 22.0436 42.4711 22.0917L42.4714 22.0934L42.4715 22.0937L42.4716 22.0943L42.4717 22.0949C42.4951 22.219 42.5225 22.3639 42.5573 22.5312L42.5785 22.6332C42.6162 22.8152 42.6445 22.9517 42.6692 23.0425H45.1803V22.9938H45.1755ZM42.2945 19.945C42.2945 20.3005 42.1826 20.5976 41.9587 20.8363C41.7349 21.0749 41.4526 21.1918 41.1119 21.1918C40.7324 21.1918 40.4355 21.0847 40.2214 20.8655C40.0121 20.6463 39.9051 20.3639 39.9051 20.0083V15.3474C39.9051 14.9529 40.0024 14.6217 40.2019 14.3538C40.4014 14.086 40.6934 13.9545 41.0925 13.9545C41.5305 13.9545 41.8371 14.1054 42.022 14.4025C42.2069 14.7045 42.2994 15.0211 42.2994 15.362V19.945H42.2945ZM51.35 22.5274C51.3014 22.2937 51.2771 22.0988 51.2771 21.9332H51.2332C51.0045 22.2498 50.6785 22.5469 50.2551 22.8343C49.8317 23.1216 49.3158 23.2629 48.7027 23.2629C47.817 23.2629 47.1502 23.0339 46.6928 22.5761C46.2353 22.1183 46.0066 21.4754 46.0066 20.6426V20.2335C46.0066 19.537 46.2305 18.9234 46.6782 18.3925C47.1259 17.8568 47.7196 17.4233 48.4545 17.0824C48.5907 17.0288 48.7854 16.946 49.0287 16.8291L49.0689 16.8106L49.0689 16.8106L49.0696 16.8103C49.3004 16.704 49.5401 16.5937 49.7928 16.4833C49.8866 16.4424 49.9768 16.4032 50.0638 16.3654C50.2252 16.2953 50.3756 16.23 50.5179 16.1667L50.6463 16.1084L50.6466 16.1082C50.7935 16.0415 50.9006 15.9928 50.9656 15.9622V15.1245C50.9656 14.8128 50.8829 14.5303 50.7125 14.2771C50.5422 14.0238 50.2308 13.8972 49.783 13.8972C49.4034 13.8972 49.1115 14.0238 48.9071 14.2771C48.7027 14.5303 48.6005 14.8323 48.6005 15.1878C48.6005 15.3485 48.6053 15.5044 48.6199 15.6456C48.6345 15.7917 48.654 15.9184 48.6832 16.0255H46.4981C46.4934 15.9712 46.4864 15.9065 46.4782 15.831C46.4695 15.7508 46.4595 15.6584 46.4495 15.5531C46.43 15.3534 46.4203 15.1245 46.4203 14.881C46.4203 13.941 46.7317 13.2104 47.3595 12.6844C47.9873 12.1584 48.8438 11.8954 49.9339 11.8954C51.2965 11.8954 52.2601 12.2072 52.8343 12.8354C53.4037 13.4588 53.6908 14.3745 53.6908 15.5726V21.49C53.6908 21.7725 53.7006 22.0599 53.7298 22.3472C53.7541 22.6297 53.8028 22.8489 53.8709 22.9999V23.0388H51.4814C51.4425 22.9317 51.3987 22.7612 51.35 22.5274ZM50.5665 20.8666C50.8391 20.6523 50.9753 20.3601 50.9753 19.99H50.9802V17.7594C50.8975 17.8032 50.7953 17.8568 50.6639 17.9249C50.5325 17.9931 50.4059 18.0613 50.2843 18.1295L50.2106 18.1677L50.144 18.2024L50.1403 18.2043L50.1401 18.2044L50.1401 18.2045L50.14 18.2045L50.1399 18.2045L50.1398 18.2046L50.139 18.205C50.0336 18.26 49.9252 18.3165 49.8122 18.373C49.5008 18.5386 49.2185 18.7334 48.9752 18.9672C48.727 19.201 48.6053 19.4786 48.6053 19.8049V20.1507C48.6053 20.4478 48.7124 20.6962 48.9314 20.8959C49.1504 21.0955 49.418 21.193 49.7295 21.193C50.0166 21.193 50.294 21.0858 50.5665 20.8666ZM62.738 23.0291V15.7771C62.738 15.3826 62.845 15.0222 63.064 14.6959C63.283 14.3696 63.5799 14.204 63.9643 14.204C64.2904 14.204 64.5435 14.3111 64.7187 14.5206C64.8938 14.73 64.9863 15.0758 64.9863 15.5531V23.0339H67.6824V14.9833C67.6824 14.0141 67.4536 13.2591 66.9962 12.7137C66.5387 12.1682 65.9158 11.8954 65.1274 11.8954C64.4851 11.8954 63.9449 12.061 63.4923 12.3971C63.0446 12.7331 62.6844 13.1179 62.4119 13.5514C62.2611 13.1033 62.0323 12.7137 61.716 12.3874C61.4046 12.061 60.952 11.8954 60.368 11.8954C60.0419 11.8954 59.7402 11.9442 59.4677 12.0464C59.1952 12.1487 58.947 12.2802 58.7231 12.4361C58.4993 12.5919 58.2997 12.7672 58.1294 12.9572C57.9591 13.1471 57.8131 13.3371 57.6914 13.527H57.6525L57.6313 13.3154L57.6313 13.3152C57.6108 13.1091 57.5916 12.9167 57.5698 12.738C57.5406 12.4994 57.5065 12.3143 57.4676 12.1779H54.937C54.9905 12.3289 55.0343 12.514 55.0586 12.738C55.0878 12.9621 55.0976 13.2543 55.0976 13.6049V23.0291H57.7936V15.7723C57.7936 15.5969 57.8228 15.4118 57.8861 15.2219C57.9493 15.032 58.0369 14.8615 58.1537 14.7105C58.2705 14.5595 58.4068 14.4378 58.5625 14.3404C58.7182 14.243 58.8934 14.1991 59.0832 14.1991C59.7207 14.1991 60.0419 14.5936 60.0419 15.3826V23.0291H62.738ZM69.7913 12.8062C70.4385 12.1974 71.3972 11.8954 72.6625 11.8954C73.7964 11.8954 74.6724 12.212 75.3002 12.8354C75.9279 13.4686 76.2394 14.467 76.2394 15.8307C76.2394 16.1522 76.2353 16.5107 76.2309 16.8984V16.8986V16.8987V16.8989V16.899V16.8992V16.8994V16.8996V16.8998L76.2297 17.0044C76.2199 17.4379 76.2053 17.7983 76.1761 18.1003H71.5189V19.8974C71.5189 20.3212 71.6113 20.6523 71.7963 20.891C71.9812 21.1296 72.3121 21.2465 72.789 21.2465C73.1832 21.2465 73.4704 21.1345 73.6553 20.9007C73.8402 20.6718 73.9327 20.3504 73.9327 19.9413C73.9327 19.7367 73.9278 19.5565 73.9229 19.4007C73.9181 19.2448 73.9083 19.1328 73.8937 19.0646H76.0155C76.0399 19.2156 76.0593 19.3812 76.0642 19.5663C76.0691 19.7513 76.0739 19.9802 76.0739 20.253C76.0739 21.1783 75.7965 21.9138 75.2466 22.4592C74.6918 23.0047 73.8451 23.2775 72.7014 23.2775C71.5286 23.2775 70.5894 22.9901 69.8837 22.4105C69.1781 21.8358 68.8228 20.9494 68.8228 19.7659V15.6164C68.8228 14.3501 69.144 13.415 69.7913 12.8062ZM73.8207 15.8502C73.8256 15.7382 73.8305 15.6213 73.8305 15.5141V15.5136C73.8305 15.4018 73.8305 15.3094 73.8353 15.2268C73.8353 14.8177 73.7429 14.4865 73.5677 14.2332C73.3925 13.98 73.1102 13.8533 72.7306 13.8533C72.3462 13.8533 72.0493 13.98 71.8401 14.2235C71.6308 14.467 71.5237 14.7836 71.5237 15.1635V16.3713H73.811V16.1667C73.811 16.0823 73.8151 15.9857 73.8195 15.8807L73.8207 15.8502ZM82.7959 11.8754C82.1535 11.8754 81.5988 12.0459 81.1316 12.3868C80.6595 12.7277 80.2751 13.132 79.9782 13.5947H79.9393C79.9393 13.5265 79.9344 13.4242 79.9198 13.2878C79.9052 13.1515 79.8906 13.0102 79.8809 12.869C79.8663 12.7277 79.8517 12.5914 79.8322 12.4599C79.8194 12.3732 79.8065 12.3056 79.7965 12.2528L79.7965 12.2525L79.7964 12.2523L79.7963 12.2519L79.7962 12.2513L79.7962 12.2511C79.7911 12.2245 79.7868 12.2018 79.7836 12.1822H77.2724C77.3406 12.3722 77.3795 12.5767 77.3941 12.7959C77.4087 13.0151 77.4136 13.2537 77.4136 13.5119V23.0383H80.1096V15.9276C80.1096 15.6256 80.1485 15.3675 80.2313 15.1532C80.314 14.934 80.4162 14.7538 80.5476 14.6126C80.679 14.4713 80.825 14.3642 80.9856 14.296C81.151 14.2278 81.3068 14.1937 81.4576 14.1937C81.7837 14.1937 82.0416 14.3009 82.2217 14.5103C82.4066 14.7197 82.4991 15.085 82.4991 15.6061V23.048H85.1951V14.8804C85.1951 13.9794 84.9907 13.2537 84.5819 12.7034C84.1634 12.1482 83.5697 11.8754 82.7959 11.8754ZM89.6761 20.0483C89.6761 20.7984 90.0654 21.1734 90.8392 21.1734C91.0338 21.1734 91.2382 21.1685 91.4523 21.1539C91.6713 21.1393 91.8319 21.1149 91.9439 21.0906C91.9439 21.0906 91.7687 23.0972 89.7393 23.102H89.7345C88.8682 23.0436 88.2113 22.7952 87.7733 22.3471C87.2671 21.8406 87.019 21.1052 87.019 20.1506V14.1016V13.3418H85.8753V11.7005H87.019V10.3174H89.6761V11.7005H91.5789V13.3418H89.6761V14.1016V20.0483ZM100.09 21.4803V15.5726C100.09 14.3745 99.8025 13.4588 99.2331 12.8354C98.6589 12.2072 97.6953 11.8954 96.3327 11.8954C95.2426 11.8954 94.3861 12.1584 93.7583 12.6844C93.1305 13.2104 92.8191 13.941 92.8191 14.881C92.8191 15.1245 92.8288 15.3534 92.8483 15.5531C92.8583 15.6584 92.8683 15.7509 92.877 15.8311C92.8852 15.9066 92.8922 15.9712 92.897 16.0255H95.082C95.0528 15.9184 95.0333 15.7917 95.0188 15.6456C95.0042 15.5044 94.9993 15.3485 94.9993 15.1878C94.9993 14.8323 95.1015 14.5303 95.3059 14.2771C95.5103 14.0238 95.8023 13.8972 96.1818 13.8972C96.6296 13.8972 96.941 14.0238 97.1114 14.2771C97.2817 14.5303 97.3644 14.8128 97.3644 15.1245V15.9622C97.2993 15.9928 97.1922 16.0415 97.0452 16.1083L97.0449 16.1085L96.9167 16.1667C96.7745 16.23 96.6241 16.2953 96.4628 16.3653L96.3065 16.4332L96.1916 16.4833C95.9387 16.5938 95.6988 16.7042 95.4679 16.8105L95.4674 16.8108L95.467 16.8109L95.4275 16.8291C95.1842 16.946 94.9896 17.0288 94.8533 17.0824C94.1185 17.4233 93.5247 17.8568 93.077 18.3925C92.6293 18.9234 92.4054 19.537 92.4054 20.2335V20.6426C92.4054 21.4754 92.6342 22.1183 93.0916 22.5761C93.5491 23.0339 94.2158 23.2629 95.1015 23.2629C95.7147 23.2629 96.2305 23.1216 96.6539 22.8343C97.0773 22.5469 97.4033 22.2498 97.6321 21.9332H97.671C97.671 22.0988 97.6953 22.2937 97.744 22.5274C97.7927 22.7612 97.8365 22.9317 97.8754 23.0388H100.265V22.9999C100.197 22.8489 100.148 22.6297 100.124 22.3472C100.104 22.055 100.09 21.7677 100.09 21.4803ZM97.3741 19.99C97.3741 20.3601 97.2379 20.6523 96.9654 20.8666C96.6928 21.0858 96.4154 21.193 96.1283 21.193C95.8169 21.193 95.5492 21.0955 95.3302 20.8959C95.1112 20.6962 95.0042 20.4478 95.0042 20.1507V19.8049C95.0042 19.4786 95.1258 19.201 95.374 18.9672C95.6173 18.7334 95.8996 18.5386 96.211 18.373C96.3244 18.3163 96.4332 18.2596 96.539 18.2044L96.5391 18.2044L96.617 18.1637L96.6831 18.1295C96.8048 18.0613 96.9313 17.9931 97.0627 17.9249C97.1941 17.8568 97.2963 17.8032 97.379 17.7594V19.99H97.3741ZM101.482 7.68632H104.159V23.0377H101.482V7.68632ZM46.7675 26.6566H43.9304V42.1881H49.775C50.0621 42.1881 50.3103 41.9836 50.3639 41.7011L50.7094 39.8991H46.7675V26.6566ZM58.9198 34.7318V40.6395C58.9198 40.922 58.9344 41.2094 58.9539 41.5065C58.9782 41.7889 59.0269 42.0081 59.095 42.1591V42.1981H56.7055C56.6666 42.0909 56.6228 41.9204 56.5741 41.6867C56.5255 41.4529 56.5011 41.2581 56.5011 41.0925H56.4622C56.2335 41.4091 55.9074 41.7062 55.4841 41.9935C55.0607 42.2808 54.5448 42.4221 53.9316 42.4221C53.0459 42.4221 52.3792 42.1932 51.9218 41.7354C51.4643 41.2776 51.2356 40.6347 51.2356 39.8018V39.3927C51.2356 38.6963 51.4594 38.0826 51.9072 37.5517C52.3549 37.016 52.9486 36.5825 53.6834 36.2416C53.8197 36.188 54.0144 36.1052 54.2577 35.9884L54.2973 35.9701C54.5285 35.8637 54.7686 35.7531 55.0217 35.6426C55.1156 35.6016 55.2058 35.5624 55.2929 35.5246C55.4542 35.4546 55.6046 35.3892 55.7468 35.326L55.8744 35.268C56.0219 35.201 56.1294 35.1521 56.1946 35.1214V34.2837C56.1946 33.972 56.1118 33.6895 55.9415 33.4363C55.7712 33.183 55.4597 33.0564 55.012 33.0564C54.6324 33.0564 54.3404 33.183 54.136 33.4363C53.9316 33.6895 53.8294 33.9915 53.8294 34.347C53.8294 34.5078 53.8343 34.6636 53.8489 34.8049C53.8635 34.951 53.883 35.0776 53.9122 35.1847H51.7271C51.7224 35.1305 51.7154 35.0659 51.7072 34.9905L51.7072 34.9901L51.7071 34.9899C51.6985 34.9098 51.6885 34.8175 51.6784 34.7123C51.659 34.5126 51.6492 34.2837 51.6492 34.0402C51.6492 33.1002 51.9607 32.3697 52.5885 31.8437C53.2163 31.3177 54.0728 31.0547 55.1629 31.0547C56.5255 31.0547 57.489 31.3664 58.0633 31.9947C58.6327 32.6181 58.9198 33.5337 58.9198 34.7318ZM55.7955 40.021C56.068 39.8067 56.2043 39.5145 56.2043 39.1443H56.2092V36.9137C56.1264 36.9576 56.0242 37.0111 55.8928 37.0793C55.7614 37.1475 55.6349 37.2157 55.5132 37.2839C55.4662 37.3082 55.4187 37.333 55.3705 37.3581L55.3692 37.3587C55.2634 37.4139 55.1546 37.4706 55.0412 37.5274C54.7297 37.693 54.4475 37.8878 54.2042 38.1216C53.956 38.3553 53.8343 38.633 53.8343 38.9593V39.3051C53.8343 39.6022 53.9414 39.8505 54.1604 40.0502C54.3794 40.2499 54.647 40.3473 54.9585 40.3473C55.2456 40.3473 55.523 40.2402 55.7955 40.021ZM67.3617 31.9024C67.1379 31.6345 66.8653 31.4299 66.5442 31.279C66.223 31.128 65.8726 31.0549 65.493 31.0549C64.9187 31.0549 64.4321 31.1816 64.0233 31.4348C63.6145 31.6881 63.2836 31.99 63.0208 32.3456H63.0013V26.8421H60.3053V42.1934H61.4684L62.0426 40.9077H62.0816C62.4222 41.346 62.8261 41.6918 63.2982 41.9499C63.7702 42.208 64.3494 42.3395 65.0453 42.3395C65.5076 42.3395 65.9212 42.2567 66.2911 42.096C66.6609 41.9304 66.9773 41.7113 67.2401 41.4337C67.5077 41.156 67.7072 40.8249 67.8532 40.4401C67.9944 40.0602 68.0674 39.6414 68.0674 39.1933V34.0551C68.0674 33.6167 68.0041 33.2174 67.8824 32.8472C67.7608 32.4819 67.5856 32.1654 67.3617 31.9024ZM65.3908 39.1251C65.3908 39.466 65.2935 39.7631 65.1037 40.0164C64.9139 40.2696 64.6414 40.3963 64.2861 40.3963C63.8627 40.3963 63.5464 40.2648 63.3274 39.9969C63.1084 39.729 63.0013 39.4125 63.0013 39.0472V34.6931C63.0013 34.2986 63.1084 33.9382 63.3274 33.6119C63.5464 33.2856 63.8627 33.12 64.2861 33.12C64.6803 33.12 64.9625 33.2612 65.1329 33.5486C65.3032 33.8359 65.3859 34.1817 65.3859 34.5908V39.1251H65.3908ZM72.3561 34.9995L74.3368 36.1635C74.911 36.5045 75.349 36.9282 75.6459 37.4493C75.9525 37.9607 76.1033 38.5938 76.1033 39.3585C76.1033 40.2985 75.7822 41.0388 75.1349 41.5745C74.4877 42.1151 73.6166 42.383 72.5119 42.383C71.8743 42.383 71.339 42.3051 70.9108 42.1395C70.4825 41.9787 70.137 41.7547 69.8693 41.4674C69.6017 41.18 69.4119 40.8488 69.2951 40.4738C69.1783 40.1037 69.1199 39.7043 69.1199 39.2806C69.1199 39.1198 69.1296 38.9348 69.1491 38.7302C69.1686 38.5257 69.1832 38.3893 69.1978 38.3211H71.3196C71.3158 38.3472 71.3107 38.3791 71.3046 38.4164C71.2949 38.4764 71.2829 38.5506 71.2709 38.6377C71.2514 38.7838 71.2417 38.9153 71.2417 39.037C71.2417 39.5387 71.3439 39.8991 71.5483 40.1085C71.7527 40.3179 72.0933 40.4251 72.5703 40.4251C72.9255 40.4251 73.1932 40.3277 73.3684 40.1377C73.5484 39.9478 73.636 39.7238 73.636 39.4656C73.636 39.1929 73.5679 38.964 73.4316 38.7789C73.2954 38.5987 73.0034 38.3747 72.5557 38.1165L70.7599 37.0743C70.2003 36.7626 69.7817 36.3827 69.5044 35.9395C69.227 35.4963 69.0858 34.9459 69.0858 34.2933C69.0858 33.2705 69.4022 32.4767 70.0445 31.9117C70.6869 31.3467 71.5434 31.0643 72.6189 31.0643C73.6555 31.0643 74.4731 31.3078 75.0716 31.7899C75.6702 32.277 75.9719 33.0611 75.9719 34.1521C75.9719 34.2982 75.9671 34.4881 75.9525 34.7122C75.9427 34.9362 75.9281 35.0872 75.9135 35.17H73.9134C73.9174 35.1302 73.9222 35.0863 73.9275 35.038C73.9351 34.9681 73.9437 34.8891 73.9523 34.7998C73.9669 34.6488 73.9718 34.5173 73.9718 34.4102C73.9718 33.9329 73.8647 33.5871 73.6458 33.3679C73.4268 33.1488 73.0812 33.0416 72.6043 33.0416C72.2929 33.0416 72.0398 33.1196 71.85 33.2754C71.6602 33.4313 71.5629 33.6407 71.5629 33.8988C71.5629 34.1034 71.6067 34.2884 71.704 34.4589C71.7965 34.6294 72.0155 34.8096 72.3561 34.9995Z" fill="white"/>
</svg>
