<svg width="110" height="55" viewBox="0 0 110 55" fill="none" xmlns="http://www.w3.org/2000/svg">
<path d="M65.7569 27.2365V21.8669C65.7447 21.5526 65.7972 21.2392 65.9113 20.9466C66.0253 20.6541 66.1982 20.3888 66.4191 20.1677C66.64 19.9467 66.904 19.7747 67.1942 19.6628C67.4843 19.5509 67.7944 19.5014 68.1044 19.5177C70.7864 19.5177 73.4652 19.5177 76.1409 19.5177C76.443 19.5061 76.7444 19.5562 77.027 19.6651C77.3096 19.774 77.5677 19.9394 77.7859 20.1515C78.004 20.3635 78.1778 20.6179 78.2969 20.8994C78.416 21.181 78.4779 21.4839 78.4789 21.7902C78.4789 22.3559 78.4789 22.9312 78.4789 23.497C78.4789 23.8038 78.4032 23.9285 78.0908 23.9189C77.5229 23.9189 76.9644 23.9189 76.3965 23.9189C76.1125 23.9189 76.0178 23.8038 76.0462 23.5353V23.4778C76.0462 23.0079 76.245 22.3847 75.961 22.1066C75.6771 21.8285 75.0145 22.0011 74.5033 22.0011C72.6102 22.0011 70.6602 22.0011 68.7386 22.0011C68.3316 22.0011 68.2086 22.1066 68.2086 22.5285C68.2086 25.6928 68.2086 28.857 68.2086 32.0213C68.2086 32.4144 68.3222 32.5295 68.7008 32.5295C70.9915 32.5295 73.2822 32.5295 75.5729 32.5295C75.9137 32.5295 76.0652 32.4624 76.0557 32.0788C76.0557 31.2542 76.0557 30.42 76.0557 29.5954C76.0557 29.183 75.9042 29.1159 75.5445 29.1255C74.4938 29.1255 73.4431 29.1255 72.4019 29.1255C72.0801 29.1255 71.9381 29.0488 71.957 28.694C71.957 28.1475 71.957 27.6009 71.957 27.0448C71.957 26.7475 72.0422 26.6325 72.3546 26.6325C74.2477 26.6325 76.1409 26.6325 78.034 26.6325C78.3843 26.6325 78.46 26.7667 78.46 27.0831C78.46 28.9337 78.46 30.7844 78.46 32.635C78.468 32.9469 78.4128 33.2571 78.2977 33.5465C78.1827 33.836 78.0103 34.0984 77.7911 34.3177C77.572 34.5369 77.3109 34.7084 77.0238 34.8214C76.7367 34.9343 76.4297 34.9865 76.122 34.9746C73.4463 35.013 70.7675 35.013 68.0855 34.9746C67.7727 34.9861 67.4609 34.9308 67.1705 34.8124C66.88 34.694 66.6174 34.5151 66.3997 34.2873C66.1819 34.0594 66.0138 33.7878 65.9064 33.4899C65.7989 33.1921 65.7544 32.8746 65.7759 32.5583L65.7569 27.2365Z" fill="white"/>
<path d="M102.901 31.5427C103.424 30.1364 103.951 28.73 104.481 27.3237C105.428 24.8977 106.299 22.4814 107.189 20.0459C107.225 19.8666 107.33 19.7094 107.481 19.6087C107.632 19.508 107.816 19.4721 107.993 19.5089C108.627 19.5089 109.271 19.5089 110 19.5089C109.602 20.5445 109.252 21.5129 108.883 22.4814C107.378 26.4319 105.854 30.3921 104.368 34.3522C104.188 34.8316 103.961 35.0426 103.421 34.985C102.958 34.9418 102.493 34.9418 102.03 34.985C101.642 34.985 101.481 34.8508 101.358 34.5056C99.5214 29.6729 97.6787 24.837 95.8297 19.9979C95.6688 19.5856 95.754 19.4897 96.1705 19.5089C96.6558 19.5425 97.1429 19.5425 97.6282 19.5089C97.7245 19.4894 97.8237 19.4892 97.9201 19.5085C98.0165 19.5278 98.1082 19.5662 98.19 19.6214C98.2717 19.6766 98.3419 19.7476 98.3966 19.8303C98.4513 19.913 98.4893 20.0058 98.5085 20.1034C99.859 23.8046 101.235 27.4963 102.636 31.1783C102.692 31.2934 102.683 31.466 102.901 31.5427Z" fill="white"/>
<path d="M53.3944 31.6388C53.4248 31.323 53.3573 31.0056 53.2012 30.7306C53.0451 30.4556 52.8082 30.2367 52.5235 30.1046C48.7372 27.8992 44.9509 25.6458 41.1646 23.3925C40.9863 23.3099 40.8378 23.1733 40.7394 23.0016C40.6411 22.8298 40.5978 22.6314 40.6156 22.4336C40.6156 18.2242 40.5588 14.0148 40.6724 9.80536C40.7348 9.28634 40.628 8.76088 40.3682 8.30906C40.1085 7.85724 39.71 7.50384 39.2336 7.30272C35.3621 5.13568 31.5758 2.86317 27.7705 0.60983C27.618 0.510702 27.4406 0.458008 27.2594 0.458008C27.0782 0.458008 26.9007 0.510702 26.7482 0.60983C22.6148 2.98782 18.4751 5.38499 14.3291 7.80133C14.1656 7.88453 14.0295 8.01394 13.9371 8.17391C13.8447 8.33387 13.8 8.51753 13.8085 8.70267C13.8085 13.1518 13.8085 17.5914 13.8085 22.0405C13.8459 22.3423 13.7859 22.6483 13.6375 22.9127C13.489 23.1771 13.2601 23.3858 12.985 23.5076C9.19868 25.6746 5.41237 27.8896 1.62606 30.0758C1.41005 30.1797 1.2312 30.349 1.11421 30.5602C0.997214 30.7715 0.947847 31.0143 0.972919 31.2552C0.972919 33.6044 0.972919 35.9441 0.972919 38.2837C0.972919 40.6425 0.972919 43.0013 0.972919 45.3601C0.958207 45.6227 1.0252 45.8833 1.16445 46.1052C1.30371 46.3271 1.5082 46.4991 1.74911 46.5971C5.74998 48.9303 9.74138 51.2827 13.7233 53.6543C13.9437 53.8201 14.2108 53.9097 14.4853 53.9097C14.7598 53.9097 15.027 53.8201 15.2473 53.6543C19.1093 51.3818 22.9903 49.1381 26.8523 46.8847C26.958 46.8061 27.0857 46.7636 27.2168 46.7636C27.3479 46.7636 27.4756 46.8061 27.5812 46.8847C31.5 49.2052 35.4378 51.5065 39.3472 53.8365C39.5253 53.9654 39.7388 54.0347 39.9577 54.0347C40.1766 54.0347 40.3901 53.9654 40.5683 53.8365C44.5817 51.4777 48.6047 49.1349 52.6371 46.808C52.8879 46.6896 53.0957 46.4946 53.2315 46.2504C53.3673 46.0062 53.4243 45.7251 53.3944 45.4464C53.366 40.8439 53.3565 36.2413 53.3944 31.6388ZM13.8369 51.5065C13.8369 52.0051 13.7233 52.0243 13.3352 51.7941C9.83288 49.7166 6.31793 47.6518 2.79035 45.5999C2.66082 45.5391 2.55306 45.4391 2.48187 45.3138C2.41068 45.1885 2.37956 45.0439 2.39279 44.8999C2.39279 42.8575 2.39279 40.8151 2.39279 38.7727C2.39279 36.7303 2.39279 34.7167 2.39279 32.6935C2.39279 32.2716 2.39279 32.0607 2.88501 32.3675C6.37788 34.4387 9.88968 36.5002 13.392 38.5522C13.5217 38.6109 13.6303 38.7087 13.7032 38.8323C13.776 38.9558 13.8095 39.0991 13.799 39.2426C13.818 43.3529 13.8306 47.4409 13.8369 51.5065ZM14.225 37.4687L3.08379 30.8908L7.52323 28.2923L14.0262 24.4568C14.1484 24.3706 14.2938 24.3244 14.4427 24.3244C14.5916 24.3244 14.737 24.3706 14.8592 24.4568C18.3742 26.5472 21.8923 28.6215 25.4135 30.6799C25.7638 30.8908 25.849 30.9963 25.4135 31.236C21.8639 33.288 18.3237 35.3592 14.7835 37.4207C14.7063 37.4853 14.6114 37.5245 14.5116 37.5331C14.4118 37.5417 14.3119 37.5192 14.225 37.4687ZM26.2749 45.619C22.6906 47.6902 19.1062 49.7741 15.5218 51.8709C15.4272 51.8709 15.3325 52.0243 15.1716 51.938C15.1716 51.8037 15.1716 51.6503 15.1716 51.5065C15.1716 47.4313 15.1716 43.3561 15.1716 39.2809C15.1546 39.14 15.1809 38.9971 15.247 38.8718C15.313 38.7466 15.4156 38.645 15.5407 38.581L26.2181 32.3675C26.2658 32.323 26.3235 32.291 26.3862 32.2743C26.4489 32.2576 26.5147 32.2567 26.5778 32.2716V44.9287C26.5778 45.2067 26.5873 45.4081 26.2749 45.619ZM26.5778 29.6923C26.3601 29.7786 26.2276 29.6156 26.0951 29.5293C22.5927 27.4773 19.0904 25.4061 15.5881 23.3446C15.323 23.1911 15.1337 23.0473 15.1337 22.6829C15.1337 18.4543 15.1337 14.2257 15.1337 9.99714C15.1337 9.94919 15.1337 9.89166 15.1337 9.76701L17.5096 11.1574C20.343 12.8258 23.1828 14.491 26.0288 16.1531C26.2018 16.24 26.3444 16.3785 26.4374 16.5499C26.5305 16.7213 26.5696 16.9174 26.5494 17.1119C26.5684 21.283 26.5778 25.4828 26.5778 29.6923ZM26.8334 15.06C23.3437 12.9824 19.8445 10.9176 16.3359 8.86567C15.9288 8.63555 15.8436 8.52048 16.3359 8.252C19.8571 6.2192 23.3721 4.17362 26.8807 2.11525C26.9817 2.04258 27.1024 2.00354 27.2262 2.00354C27.3501 2.00354 27.4708 2.04258 27.5717 2.11525L38.4006 8.5013C38.4738 8.54696 38.5434 8.59825 38.6088 8.65472L33.308 11.7423C31.4149 12.8418 29.5217 13.9477 27.6285 15.06C27.5132 15.1456 27.374 15.1918 27.231 15.1918C27.088 15.1918 26.9487 15.1456 26.8334 15.06ZM28.3479 16.1722C31.8408 14.1682 35.3147 12.1258 38.7603 10.1026C38.8833 10.0259 39.0253 9.96837 39.2336 9.85331V22.8172C39.2457 22.9229 39.2259 23.0298 39.177 23.1239C39.128 23.2181 39.052 23.295 38.9591 23.3446L28.1208 29.6827H27.8936V29.1649C27.8936 25.1121 27.8936 21.0593 27.8936 17.0065C27.8801 16.8376 27.916 16.6684 27.9968 16.5201C28.0776 16.3717 28.1997 16.2508 28.3479 16.1722ZM39.262 51.938C39.2495 51.9975 39.2305 52.0554 39.2052 52.1106L32.9862 48.4477L28.3479 45.6957C28.2156 45.6389 28.1037 45.5421 28.0275 45.4186C27.9513 45.2951 27.9144 45.1508 27.922 45.0054C27.922 40.8183 27.922 36.6281 27.922 32.4346C27.9303 32.3565 27.9462 32.2795 27.9693 32.2045L30.402 33.614L38.9212 38.6289C39.1673 38.7727 39.3472 38.8974 39.3472 39.2426C39.2809 43.4904 39.2904 47.7094 39.2809 51.938H39.262ZM40.3221 37.4974C40.2232 37.5707 40.1039 37.6102 39.9814 37.6102C39.8589 37.6102 39.7395 37.5707 39.6406 37.4974C36.0941 35.3879 32.5413 33.2912 28.9821 31.2073L28.6035 31.0251L39.7069 24.5144C39.7928 24.4533 39.8953 24.4206 40.0003 24.4206C40.1053 24.4206 40.2078 24.4533 40.2937 24.5144L51.2078 30.9676L51.3403 31.1018L48.8319 32.5784L40.3221 37.4974ZM51.6811 45.7533C48.1409 47.7957 44.6101 49.8668 41.0699 51.9188L40.6534 52.1202V47.719C40.6534 44.9382 40.6534 42.1671 40.6534 39.396C40.6277 39.2537 40.6467 39.1068 40.7079 38.976C40.769 38.8452 40.8692 38.7372 40.9942 38.6673C44.5628 36.6057 48.1314 34.525 51.6905 32.4538L51.984 32.3196C51.984 32.5209 51.984 32.6743 51.984 32.8278V45.0437C52.0087 45.1811 51.991 45.323 51.9335 45.4499C51.8759 45.5768 51.7812 45.6827 51.6621 45.7533H51.6811Z" fill="white"/>
<path d="M93.9934 29.1932C93.9238 28.6941 93.7312 28.2207 93.4335 27.8169C93.1357 27.413 92.7423 27.0916 92.2895 26.8824C92.7319 26.5508 93.0892 26.1164 93.3314 25.6158C93.5735 25.1153 93.6934 24.5631 93.681 24.0058C93.823 21.3689 92.9427 19.5087 89.8 19.5374C87.3768 19.5374 84.9441 19.5374 82.5209 19.5374C82.076 19.5374 81.9624 19.6621 81.9718 20.1032C81.9718 21.3593 81.9718 22.6154 81.9718 23.8715V34.4191C81.9718 34.6971 81.8772 35.0136 82.3694 35.004C85.1239 35.004 87.8879 35.004 90.6425 35.004C91.3998 35.0764 92.1568 34.863 92.7683 34.4046C93.3797 33.9463 93.8025 33.2753 93.9555 32.5205C94.1825 31.4246 94.1954 30.2942 93.9934 29.1932ZM84.3951 22.3949C84.3951 22.0305 84.5181 21.9346 84.8589 21.9442C86.487 21.9442 88.1151 21.9442 89.7432 21.9442C90.8697 21.9442 91.2862 22.3949 91.2956 23.5263C91.2956 23.9195 91.2956 24.3126 91.2956 24.7057C91.31 24.879 91.2857 25.0533 91.2246 25.2158C91.1635 25.3782 91.0672 25.5247 90.9427 25.6444C90.8182 25.7641 90.6687 25.8539 90.5053 25.9072C90.342 25.9604 90.1689 25.9759 89.9988 25.9523C89.1469 25.9523 88.295 25.9523 87.4336 25.9523H84.8778C84.5465 25.9523 84.3951 25.8947 84.3951 25.5112C84.414 24.4372 84.414 23.4017 84.3951 22.3949ZM91.6648 31.5041C91.6624 31.6472 91.6316 31.7884 91.5742 31.9192C91.5167 32.05 91.4338 32.1677 91.3304 32.2652C91.227 32.3628 91.1053 32.4383 90.9724 32.4871C90.8396 32.5359 90.6984 32.557 90.5573 32.5493C88.6641 32.5493 86.6763 32.5493 84.7358 32.5493C84.4897 32.5493 84.3951 32.4534 84.3951 32.2041C84.3951 31.0406 84.3951 29.8804 84.3951 28.7234C84.3951 28.359 84.6033 28.3782 84.8494 28.3782H87.6892C88.6357 28.3782 89.5066 28.3782 90.4248 28.3782C91.343 28.3782 91.5417 28.6754 91.6648 29.4713C91.7785 30.1311 91.7785 30.8059 91.6648 31.4657V31.5041Z" fill="white"/>
</svg>
