<svg width="150" height="25" viewBox="0 0 150 25" fill="none" xmlns="http://www.w3.org/2000/svg">
<path d="M17.6717 0.0576172H17.5713C17.5087 0.0586523 17.4466 0.067729 17.3862 0.0846332L0.92522 4.70978C0.775164 4.7481 0.641818 4.8363 0.546134 4.96051C0.45045 5.08472 0.397853 5.2379 0.396606 5.39599H0.396606C0.397189 5.55364 0.449642 5.70651 0.545525 5.83C0.641408 5.95349 0.775145 6.04041 0.92522 6.07679L11.0905 8.93509L17.4338 10.7073C17.4941 10.7242 17.5563 10.7333 17.6188 10.7344H17.7193C17.7818 10.7337 17.844 10.7247 17.9043 10.7073L24.1842 8.93509L34.3442 6.07679C34.4942 6.04041 34.628 5.95349 34.7239 5.83C34.8197 5.70651 34.8722 5.55364 34.8728 5.39599C34.8715 5.2379 34.8189 5.08472 34.7232 4.96051C34.6276 4.8363 34.4942 4.7481 34.3442 4.70978L17.8409 0.0846332C17.7857 0.0686702 17.7289 0.0595986 17.6717 0.0576172V0.0576172Z" fill="white"/>
<path d="M17.841 12.0744H17.3864C17.325 12.0827 17.2628 12.0827 17.2014 12.0744L8.78054 9.68078C8.66178 9.64297 8.53457 9.64297 8.4158 9.68078L0.925347 11.788C0.772604 11.825 0.636856 11.9144 0.540684 12.0412C0.444511 12.168 0.393711 12.3246 0.396734 12.4851C0.39798 12.6431 0.450578 12.7963 0.546262 12.9205C0.641945 13.0447 0.775292 13.1329 0.925347 13.1713L11.0747 16.0079L17.3864 17.7802C17.4467 17.7971 17.5089 17.8062 17.5714 17.8072H17.6718C17.7291 17.8052 17.7859 17.7962 17.841 17.7802L24.1843 16.0079L34.3549 13.155C34.5049 13.1167 34.6383 13.0285 34.734 12.9043C34.8296 12.7801 34.8822 12.6269 34.8835 12.4688C34.8829 12.3112 34.8304 12.1583 34.7346 12.0348C34.6387 11.9113 34.5049 11.8244 34.3549 11.788L26.8274 9.68078C26.7069 9.64286 26.5779 9.64286 26.4574 9.68078L18.0366 12.0474C17.9728 12.0652 17.9071 12.0743 17.841 12.0744Z" fill="white"/>
<path d="M17.8408 19.1475H17.3862C17.3248 19.1558 17.2626 19.1558 17.2012 19.1475L8.7857 16.7539C8.66441 16.7214 8.53696 16.7214 8.41567 16.7539L0.92522 18.8666C0.775145 18.9029 0.641408 18.9899 0.545525 19.1134C0.449642 19.2368 0.397189 19.3897 0.396606 19.5474H0.396606C0.397853 19.7054 0.45045 19.8586 0.546134 19.9828C0.641818 20.1071 0.775164 20.1952 0.92522 20.2336L17.3862 24.8587C17.4466 24.8756 17.5087 24.8847 17.5713 24.8857H17.6717C17.7289 24.8838 17.7857 24.8747 17.8408 24.8587L34.323 20.2336C34.4731 20.1952 34.6064 20.1071 34.7021 19.9828C34.7978 19.8586 34.8504 19.7054 34.8516 19.5474C34.851 19.3897 34.7986 19.2368 34.7027 19.1134C34.6068 18.9899 34.4731 18.9029 34.323 18.8666L26.8273 16.7539C26.7078 16.7214 26.582 16.7214 26.4625 16.7539L18.0364 19.1205C17.9727 19.1383 17.9069 19.1474 17.8408 19.1475Z" fill="white"/>
<path d="M43.7791 21.9571V3.62402H48.1084L48.1031 10.8697H55.9319V3.62402H60.2612V21.9571H55.9319V14.4521H48.1031V21.9571H43.7791Z" fill="white"/>
<path d="M74.4393 17.3903C73.7838 20.3296 71.5372 22.3072 68.2334 22.3072C64.2212 22.3072 61.3614 19.8055 61.3614 15.6991C61.3264 14.7753 61.4771 13.8541 61.804 12.9921C62.131 12.1302 62.6273 11.3459 63.2624 10.6877C63.8974 10.0295 64.6577 9.51126 65.4963 9.16508C66.3349 8.81889 67.2341 8.65208 68.1382 8.67492C72.3248 8.67492 74.5133 11.6143 74.5133 15.1588V16.4285H65.4158C65.5269 18.1467 66.7797 19.1301 68.3761 19.1301C69.798 19.1301 70.6808 18.5898 71.1354 17.3849L74.4393 17.3903ZM70.5698 14.1862C70.5706 13.8602 70.5075 13.5373 70.384 13.2368C70.2606 12.9362 70.0794 12.664 69.8512 12.4362C69.623 12.2085 69.3524 12.0299 69.0554 11.911C68.7584 11.7921 68.4412 11.7353 68.1223 11.7439C66.4678 11.7439 65.7013 12.8246 65.4793 14.1862H70.5698Z" fill="white"/>
<path d="M94.9875 21.963V7.26624H88.7499V3.62988H105.592V7.26624H99.2904V21.963H94.9875Z" fill="white"/>
<path d="M112.532 13.144C111.873 12.7614 111.122 12.5743 110.365 12.6037C108.658 12.6037 107.521 13.5979 107.521 15.8456V21.9621H103.419V9.04301H107.521V11.4042C107.756 10.6374 108.22 9.96494 108.847 9.48061C109.475 8.99627 110.235 8.72428 111.02 8.7026C111.651 8.68263 112.27 8.87223 112.786 9.24292L112.532 13.144Z" fill="white"/>
<path d="M122.44 9.04297H126.569V21.962H122.44V19.9575C121.753 21.4109 120.326 22.3133 118.423 22.3133C115.008 22.3133 113.929 19.925 113.929 17.164V9.05918H118.026V16.1428C118.026 17.9745 118.623 18.9957 120.141 18.9957C121.658 18.9957 122.445 17.6881 122.445 15.6187L122.44 9.04297Z" fill="white"/>
<path d="M131.319 17.6557C131.488 18.9092 132.461 19.6062 133.994 19.6062C135.104 19.6062 135.844 19.201 135.844 18.5256C135.844 17.8502 135.447 17.5368 134.422 17.3585L132.487 17.0397C129.585 16.575 128.015 15.5538 128.015 12.9927C128.015 10.4316 130.13 8.71875 133.539 8.71875C137.128 8.71875 139.264 10.3397 139.518 13.1116L136.129 13.2304C135.934 12.0958 135.072 11.4528 133.486 11.4528C132.461 11.4528 131.832 11.8904 131.832 12.5874C131.832 13.1278 132.233 13.4303 132.857 13.5168L135.305 13.9545C138.064 14.3921 139.66 15.6457 139.66 18.1149C139.66 20.8165 137.409 22.3348 133.967 22.3348C130.526 22.3348 127.962 20.9084 127.735 17.7691L131.319 17.6557Z" fill="white"/>
<path d="M83.2726 14.6407L87.4803 9.04297H83.2091L81.2057 11.831L83.2726 14.6407Z" fill="white"/>
<path d="M85.1665 18.2712L82.867 15.1806L80.7896 12.4141L78.4267 9.03711H73.8436L78.4531 15.3535L73.4471 21.9562H77.7131L80.5359 18.1199L83.3216 21.9616H87.9047L85.1665 18.2712Z" fill="white"/>
<path d="M147.944 18.969C146.976 18.969 146.464 18.5043 146.464 17.3966V11.9934V9.04867V5.46094H143.932L143.503 7.17916C143.191 8.37327 142.821 9.04327 141.569 9.2756L140.659 9.42149V11.9826H142.425V18.5043C142.425 21.4112 144.275 22.2865 146.326 22.2865C147.643 22.3589 148.943 21.9574 150 21.1519V18.4286C149.359 18.7548 148.659 18.9389 147.944 18.969Z" fill="white"/>
<path d="M149.825 9.04883H147.177V11.9882H149.825V9.04883Z" fill="white"/>
</svg>
