<svg width="84" height="82" viewBox="0 0 84 82" fill="none" xmlns="http://www.w3.org/2000/svg">
<g clip-path="url(#clip0_1870_11330)" filter="url(#filter0_dd_1870_11330)">
<path d="M78 35.9979C78 41.0156 76.9756 45.795 75.1234 50.1311C73.6683 53.5306 71.7073 56.6667 69.3282 59.4306C66.3638 62.8845 62.7554 65.7697 58.6871 67.9022C53.699 70.5198 48.0209 72 42 72C41.7324 72 41.4648 71.9958 41.1972 71.9916C30.5854 71.7575 21.1066 66.9363 14.6718 59.4264C12.9868 57.4695 11.515 55.3328 10.2857 53.0456C9.77561 52.0964 9.30732 51.1221 8.88084 50.1269C8.21603 48.5715 7.65575 46.9574 7.21254 45.2932C6.4223 42.3286 6 39.2134 6 35.9979C6 16.1152 22.1185 0 42 0C61.8815 0 78 16.1152 78 35.9979Z" fill="#18181B"/>
<path d="M69.3282 59.4307C66.3638 62.8846 62.7554 65.7698 58.6871 67.9023C53.699 70.5199 48.0209 72.0001 42 72.0001C41.7324 72.0001 41.4648 71.9959 41.1972 71.9917C38.6342 71.9332 36.1422 71.6112 33.738 71.0467C26.1868 69.2738 19.5554 65.1216 14.6718 59.4265C37.016 43.4911 42 23.3408 42 23.3408C42 23.3408 46.984 43.4953 69.3282 59.4307Z" fill="#5524E1"/>
<path d="M41.2474 17.1357L36.0836 22.2998L41.2474 29.6466L42 33.322L47.9498 28.6305L45.2864 23.341L42 17.9846L41.2474 17.1357Z" fill="#18181B"/>
<path d="M42 17.9717V12.0508L39.0439 14.9987L38.4794 15.5674L32.2662 21.7559C31.8272 22.1907 31.823 22.9058 32.2537 23.3448L36.3763 27.5722L41.9958 33.3384V28.2287C41.9958 27.6893 41.7868 27.1708 41.4146 26.7861L38.9017 24.1769C38.0655 23.3072 38.078 21.919 38.9268 21.0659L41.9958 17.9759L42 17.9717Z" fill="white"/>
<path d="M42.6063 24.5155C42.2216 24.1266 42 23.5998 42 23.0478V17.9883L44.9561 20.9362L45.5206 21.5049L51.7338 27.6934C52.1728 28.1282 52.177 28.8433 51.7463 29.2823L47.6237 33.5097L42.0042 39.2759V33.3258L45.0983 30.1102C45.9345 29.2405 45.922 27.8523 45.0732 26.9993L42.6105 24.5197L42.6063 24.5155Z" fill="white"/>
<path d="M42 33.3348C42 63.186 33.7338 71.0429 33.7338 71.0429H33.738C36.1422 71.6116 38.6341 71.9336 41.1972 71.9921C41.4648 71.9963 41.7324 72.0005 42 72.0005C42.2676 72.0005 42.5352 71.9963 42.8028 71.9921C45.3658 71.9336 47.8578 71.6116 50.262 71.0471H50.2662C50.2662 71.0471 42.0042 63.1818 42 33.3348Z" fill="#B5A6FF"/>
<path d="M29.4188 30.5874C20.8139 30.7379 20.6927 30.8634 20.538 39.4688C20.3874 30.8634 20.262 30.7421 11.6571 30.5874C20.262 30.4369 20.3833 30.3114 20.538 21.7061C20.6885 30.3114 20.8139 30.4327 29.4188 30.5874Z" fill="#7E5AFF"/>
<path d="M72.3387 30.5874C63.7338 30.7379 63.6125 30.8634 63.4578 39.4688C63.3073 30.8634 63.1819 30.7421 54.577 30.5874C63.1819 30.4369 63.3031 30.3114 63.4578 21.7061C63.6084 30.3114 63.7338 30.4327 72.3387 30.5874Z" fill="#7E5AFF"/>
</g>
<defs>
<filter id="filter0_dd_1870_11330" x="0" y="-2" width="84" height="84" filterUnits="userSpaceOnUse" color-interpolation-filters="sRGB">
<feFlood flood-opacity="0" result="BackgroundImageFix"/>
<feColorMatrix in="SourceAlpha" type="matrix" values="0 0 0 0 0 0 0 0 0 0 0 0 0 0 0 0 0 0 127 0" result="hardAlpha"/>
<feMorphology radius="2" operator="erode" in="SourceAlpha" result="effect1_dropShadow_1870_11330"/>
<feOffset dy="2"/>
<feGaussianBlur stdDeviation="2"/>
<feColorMatrix type="matrix" values="0 0 0 0 0.0627451 0 0 0 0 0.0941176 0 0 0 0 0.156863 0 0 0 0.06 0"/>
<feBlend mode="normal" in2="BackgroundImageFix" result="effect1_dropShadow_1870_11330"/>
<feColorMatrix in="SourceAlpha" type="matrix" values="0 0 0 0 0 0 0 0 0 0 0 0 0 0 0 0 0 0 127 0" result="hardAlpha"/>
<feMorphology radius="2" operator="erode" in="SourceAlpha" result="effect2_dropShadow_1870_11330"/>
<feOffset dy="4"/>
<feGaussianBlur stdDeviation="4"/>
<feColorMatrix type="matrix" values="0 0 0 0 0.0627451 0 0 0 0 0.0941176 0 0 0 0 0.156863 0 0 0 0.1 0"/>
<feBlend mode="normal" in2="effect1_dropShadow_1870_11330" result="effect2_dropShadow_1870_11330"/>
<feBlend mode="normal" in="SourceGraphic" in2="effect2_dropShadow_1870_11330" result="shape"/>
</filter>
<clipPath id="clip0_1870_11330">
<rect width="72" height="72" fill="white" transform="translate(6)"/>
</clipPath>
</defs>
</svg>
