<svg width="190" height="18" viewBox="0 0 190 18" fill="none" xmlns="http://www.w3.org/2000/svg">
<path d="M16.2675 0.90332H0.796317C0.700895 0.90332 0.609379 0.941227 0.541905 1.0087C0.47443 1.07618 0.436523 1.16769 0.436523 1.26312V16.7343C0.436523 16.8297 0.47443 16.9212 0.541905 16.9887C0.609379 17.0562 0.700895 17.0941 0.796317 17.0941H16.2675C16.3629 17.0941 16.4545 17.0562 16.5219 16.9887C16.5894 16.9212 16.6273 16.8297 16.6273 16.7343V1.26312C16.6273 1.16769 16.5894 1.07618 16.5219 1.0087C16.4545 0.941227 16.3629 0.90332 16.2675 0.90332ZM11.2304 11.3374C11.2304 11.4328 11.1925 11.5243 11.125 11.5918C11.0575 11.6593 10.966 11.6972 10.8706 11.6972H6.19326C6.09781 11.6972 6.00631 11.6593 5.93885 11.5918C5.87135 11.5243 5.83346 11.4328 5.83346 11.3374V6.66003C5.83346 6.56462 5.87135 6.47309 5.93885 6.40562C6.00631 6.33816 6.09781 6.30024 6.19326 6.30024H10.8706C10.966 6.30024 11.0575 6.33816 11.125 6.40562C11.1925 6.47309 11.2304 6.56462 11.2304 6.66003V11.3374Z" fill="white"/>
<path d="M48.6581 6.2998H43.9809C43.7821 6.2998 43.6211 6.46088 43.6211 6.6596V11.337C43.6211 11.5356 43.7821 11.6967 43.9809 11.6967H48.6581C48.8569 11.6967 49.0182 11.5356 49.0182 11.337V6.6596C49.0182 6.46088 48.8569 6.2998 48.6581 6.2998Z" fill="white"/>
<path d="M43.259 0.90332H38.5814C38.383 0.90332 38.2217 1.06441 38.2217 1.26312V5.94044C38.2217 6.13917 38.383 6.30024 38.5814 6.30024H43.259C43.4574 6.30024 43.6188 6.13917 43.6188 5.94044V1.26312C43.6188 1.06441 43.4574 0.90332 43.259 0.90332Z" fill="white"/>
<path d="M54.0539 0.90332H49.3764C49.1776 0.90332 49.0166 1.06441 49.0166 1.26312V5.94044C49.0166 6.13917 49.1776 6.30024 49.3764 6.30024H54.0539C54.2524 6.30024 54.4137 6.13917 54.4137 5.94044V1.26312C54.4137 1.06441 54.2524 0.90332 54.0539 0.90332Z" fill="white"/>
<path d="M43.259 11.6973H38.5814C38.383 11.6973 38.2217 11.8583 38.2217 12.0571V16.7344C38.2217 16.9331 38.383 17.0942 38.5814 17.0942H43.259C43.4574 17.0942 43.6188 16.9331 43.6188 16.7344V12.0571C43.6188 11.8583 43.4574 11.6973 43.259 11.6973Z" fill="white"/>
<path d="M54.0539 11.6973H49.3764C49.1776 11.6973 49.0166 11.8583 49.0166 12.0571V16.7344C49.0166 16.9331 49.1776 17.0942 49.3764 17.0942H54.0539C54.2524 17.0942 54.4137 16.9331 54.4137 16.7344V12.0571C54.4137 11.8583 54.2524 11.6973 54.0539 11.6973Z" fill="white"/>
<path d="M35.1566 0.90332H30.4792C30.2805 0.90332 30.1194 1.06441 30.1194 1.26312V5.94044C30.1194 6.13917 30.2805 6.30024 30.4792 6.30024H35.1566C35.3554 6.30024 35.5164 6.13917 35.5164 5.94044V1.26312C35.5164 1.06441 35.3554 0.90332 35.1566 0.90332Z" fill="white"/>
<path d="M35.1566 11.6963H30.4792C30.2805 11.6963 30.1194 11.8574 30.1194 12.0561V16.7334C30.1194 16.9321 30.2805 17.0932 30.4792 17.0932H35.1566C35.3554 17.0932 35.5164 16.9321 35.5164 16.7334V12.0561C35.5164 11.8574 35.3554 11.6963 35.1566 11.6963Z" fill="white"/>
<path d="M30.1191 6.65598C30.1191 6.56057 30.0812 6.46904 30.0137 6.40158C29.9462 6.33411 29.8547 6.29619 29.7593 6.29619H24.7221V1.26312C24.7221 1.16769 24.6842 1.07618 24.6167 1.0087C24.5493 0.941227 24.4578 0.90332 24.3623 0.90332H19.685C19.5896 0.90332 19.498 0.941227 19.4306 1.0087C19.3631 1.07618 19.3252 1.16769 19.3252 1.26312V16.7262C19.3252 16.8216 19.3631 16.9131 19.4306 16.9806C19.498 17.0481 19.5896 17.086 19.685 17.086H24.3623C24.4578 17.086 24.5493 17.0481 24.6167 16.9806C24.6842 16.9131 24.7221 16.8216 24.7221 16.7262V11.6931H29.7593C29.8547 11.6931 29.9462 11.6552 30.0137 11.5877C30.0812 11.5203 30.1191 11.4287 30.1191 11.3333V6.65598Z" fill="white"/>
<path d="M75.7489 0.90332H70.5171L67.4275 10.3297L64.3831 0.90332H58.9482L64.7439 17.0951H69.9532L75.7489 0.90332Z" fill="white"/>
<path d="M77.8683 17.0951H90.0459V12.8104H82.8972V11.0288H88.7605V6.85684H82.8972V5.18805H90.0459V0.90332H77.8683V17.0951Z" fill="white"/>
<path d="M102.885 0.90332V8.57073L97.6982 0.90332H92.7372V17.0951H97.6306V8.8639L103.359 17.0951H107.779V0.90332H102.885Z" fill="white"/>
<path d="M124.7 0.90332H110.471V5.18805H115.026V17.0951H120.145V5.18805H124.7V0.90332Z" fill="white"/>
<path d="M134.653 17.3657C136.931 17.3657 138.712 16.7568 139.998 15.5391C141.261 14.3213 141.915 12.6074 141.915 10.3974V0.90332H136.796V10.2621C136.796 11.1416 136.615 11.7956 136.254 12.2466C135.894 12.6976 135.353 12.9231 134.653 12.9231C133.932 12.9231 133.413 12.6976 133.052 12.2466C132.691 11.7956 132.511 11.1416 132.511 10.2621V0.90332H127.392V10.3974C127.392 12.6074 128.023 14.3213 129.309 15.5391C130.572 16.7568 132.353 17.3657 134.653 17.3657Z" fill="white"/>
<path d="M150.537 12.1338L153.379 17.0951H159.242L155.702 11.3445C156.649 10.8935 157.393 10.2395 157.911 9.40514C158.408 8.57073 158.678 7.60102 158.678 6.51856C158.678 4.75958 158.069 3.38395 156.897 2.3917C155.724 1.39945 154.078 0.90332 151.981 0.90332H144.606V17.0951H149.725V12.1338H150.537ZM149.725 5.14294H151.71C152.341 5.14294 152.815 5.27827 153.131 5.54888C153.446 5.81949 153.627 6.18032 153.627 6.67642C153.627 7.17255 153.446 7.53339 153.131 7.78144C152.792 8.05208 152.319 8.16482 151.71 8.16482H149.725V5.14294Z" fill="white"/>
<path d="M161.361 17.0951H173.539V12.8104H166.39V11.0288H172.254V6.85684H166.39V5.18805H173.539V0.90332H161.361V17.0951Z" fill="white"/>
<path d="M182.875 17.3658C183.822 17.3658 184.701 17.2531 185.536 17.0275C186.37 16.802 187.114 16.4863 187.746 16.0353C188.467 15.5392 189.031 14.9077 189.414 14.1635C189.798 13.4419 190.001 12.6075 190.001 11.7055C190.001 10.9387 189.843 10.2396 189.55 9.65329C189.256 9.06697 188.806 8.57083 188.219 8.16492C187.813 7.89431 187.317 7.64623 186.731 7.44329C186.144 7.24032 185.355 7.03735 184.363 6.83441C183.912 6.74419 183.574 6.67655 183.326 6.63144C183.055 6.58633 182.897 6.56377 182.807 6.51869C182.356 6.42847 182.04 6.31572 181.86 6.18042C181.679 6.06767 181.612 5.90981 181.612 5.68428C181.612 5.39112 181.747 5.16562 182.018 5.00776C182.288 4.87243 182.672 4.78224 183.19 4.78224C183.957 4.78224 184.701 4.9401 185.423 5.2107C186.144 5.50387 186.776 5.90981 187.317 6.40591L189.82 2.91049C189.031 2.18885 188.084 1.64762 186.956 1.24169C185.829 0.835773 184.611 0.632812 183.326 0.632812C182.424 0.632812 181.567 0.768119 180.778 0.99363C179.988 1.21914 179.289 1.55741 178.703 2.00844C178.004 2.52712 177.485 3.136 177.124 3.85764C176.763 4.57927 176.583 5.34601 176.583 6.20297C176.583 7.51093 176.966 8.54831 177.756 9.31505C178.522 10.0818 179.785 10.623 181.499 10.9162C181.544 10.9387 181.815 10.9838 182.311 11.074C182.807 11.1643 183.19 11.2319 183.416 11.277C184.002 11.4123 184.385 11.525 184.611 11.6604C184.814 11.7957 184.927 11.9986 184.927 12.2242C184.927 12.5399 184.769 12.7879 184.453 12.9683C184.138 13.1488 183.686 13.2164 183.1 13.2164C182.198 13.2164 181.319 13.036 180.462 12.6752C179.605 12.3143 178.838 11.8182 178.161 11.1643L175.658 14.998C176.312 15.697 177.327 16.2608 178.703 16.7118C180.078 17.1629 181.477 17.3658 182.875 17.3658Z" fill="white"/>
</svg>
