<svg width="189" height="19" viewBox="0 0 189 19" fill="none" xmlns="http://www.w3.org/2000/svg">
<path fill-rule="evenodd" clip-rule="evenodd" d="M0.71582 0.804688H189V18.9659H0.71582V0.804688ZM23.769 14.3271L20.2937 6.83398H17.9072L14.4319 14.3271H16.5133L17.2159 12.667H20.9718L21.6857 14.3271H23.769ZM20.4105 11.3409H17.7791L19.0995 8.23643L20.4105 11.3409ZM24.96 10.5813C24.96 9.98984 25.073 9.45366 25.299 8.97473C25.525 8.4958 25.8528 8.08938 26.2823 7.75355C26.7117 7.41773 27.2354 7.16014 27.8551 6.97696C28.4748 6.79569 29.1831 6.7041 29.9779 6.7041C30.4451 6.7041 30.9009 6.73463 31.3417 6.79569C31.7825 6.85675 32.1667 6.94452 32.4945 7.0571L32.3532 8.42711C32.0876 8.30499 31.7674 8.2134 31.3944 8.14853C31.0196 8.08365 30.6221 8.05312 30.2021 8.05312C29.1171 8.05312 28.2977 8.27828 27.7402 8.72668C27.1826 9.17699 26.9039 9.7933 26.9039 10.5794C26.9039 11.3999 27.1939 12.0258 27.776 12.4589C28.3561 12.8901 29.1812 13.1058 30.2511 13.1058C30.6485 13.1058 31.0347 13.0733 31.4095 13.0104C31.7843 12.9455 32.1196 12.8463 32.4154 12.7108L32.5547 14.1018C32.1874 14.2239 31.7843 14.3117 31.3436 14.3689C30.9028 14.4262 30.4602 14.4548 30.0156 14.4548C29.2113 14.4548 28.4993 14.3651 27.8739 14.1876C27.2505 14.0102 26.7212 13.7526 26.2879 13.4168C25.8547 13.0809 25.525 12.6745 25.299 12.1956C25.073 11.7205 24.96 11.1805 24.96 10.5813ZM36.2973 14.3271V6.83398H34.3779V14.3271H36.2973ZM38.2168 6.83398H44.6155V8.16202H40.1343V9.82206H44.3216V11.1501H40.1343V14.329H38.2168V6.83398ZM48.3979 14.3271V6.83398H46.4785V14.3271H48.3979ZM50.469 10.5813C50.469 9.98984 50.582 9.45366 50.808 8.97473C51.0341 8.4958 51.3618 8.08938 51.7913 7.75355C52.2208 7.41773 52.7444 7.16014 53.3641 6.97696C53.9838 6.79378 54.6921 6.7041 55.487 6.7041C55.9541 6.7041 56.41 6.73463 56.8507 6.79569C57.2915 6.85675 57.6758 6.94452 58.0035 7.0571L57.8622 8.42711C57.5966 8.30499 57.2764 8.2134 56.9035 8.14853C56.5286 8.08365 56.1312 8.05312 55.7111 8.05312C54.6262 8.05312 53.8068 8.27828 53.2492 8.72668C52.6917 9.17699 52.4129 9.7933 52.4129 10.5794C52.4129 11.3999 52.703 12.0258 53.285 12.4589C53.8652 12.8901 54.6902 13.1058 55.7601 13.1058C56.1575 13.1058 56.5437 13.0733 56.9185 13.0104C57.2934 12.9455 57.6287 12.8463 57.9244 12.7108L58.0638 14.1018C57.6965 14.2239 57.2934 14.3117 56.8526 14.3689C56.4118 14.4262 55.9692 14.4548 55.5246 14.4548C54.7203 14.4548 54.0083 14.3651 53.383 14.1876C52.7595 14.0102 52.2302 13.7526 51.7969 13.4168C51.3637 13.0809 51.0341 12.6745 50.808 12.1956C50.582 11.7205 50.469 11.1805 50.469 10.5813ZM82.0698 6.83398H75.6711H75.6692V14.3309H82.162V13.0029H77.5886V11.1501H81.7759V9.82206H77.5886V8.16202H82.0698V6.83398ZM90.4692 14.329L86.5964 8.94434V14.329H84.7373V6.83398H87.0768L90.9495 12.2186V6.83398H92.8087V14.3271H90.4692V14.329ZM94.4707 8.17347H97.2999V14.3271H99.2193V8.17156H102.05V6.83398H94.4707V8.17347ZM107.968 14.4568C107.367 14.4568 106.817 14.3919 106.318 14.2641C105.819 14.1363 105.389 13.9416 105.031 13.6802C104.673 13.4207 104.394 13.0925 104.195 12.7014C103.995 12.3083 103.897 11.8485 103.897 11.3199V6.83398H105.817V11.2455C105.817 11.8523 105.984 12.314 106.32 12.6327C106.655 12.9494 107.205 13.1097 107.97 13.1097C108.734 13.1097 109.284 12.9513 109.62 12.6327C109.955 12.3159 110.123 11.8523 110.123 11.2455V6.83398H112.038V11.3199C112.038 11.8485 111.938 12.3083 111.741 12.7014C111.541 13.0944 111.262 13.4207 110.904 13.6802C110.546 13.9416 110.117 14.1343 109.618 14.2641C109.117 14.3919 108.569 14.4568 107.968 14.4568ZM120.385 10.5185C120.705 10.1674 120.865 9.72475 120.865 9.19048C120.865 8.78978 120.773 8.44251 120.592 8.14484C120.408 7.84909 120.155 7.60485 119.831 7.41214C119.507 7.21942 119.121 7.0744 118.673 6.979C118.224 6.88169 117.738 6.83398 117.217 6.83398H113.719V14.3309H115.638V11.547H117.217L119.451 14.3309H121.638L119.087 11.3008C119.631 11.1291 120.065 10.8677 120.385 10.5185ZM118.456 8.42533C118.767 8.58561 118.923 8.8413 118.923 9.19048C118.923 9.53966 118.767 9.79535 118.456 9.95753C118.143 10.1178 117.684 10.198 117.075 10.198H115.636V8.18491H117.075C117.684 8.18491 118.143 8.26505 118.456 8.42533ZM127.094 11.3848V14.329H125.175V11.3848L121.468 6.83398H123.643L126.135 9.97089L128.627 6.83398H130.803L127.094 11.3848ZM154.13 10.5185C154.45 10.1674 154.61 9.72475 154.61 9.19048C154.61 8.78978 154.518 8.44251 154.337 8.14484C154.153 7.84909 153.9 7.60485 153.576 7.41214C153.252 7.21942 152.866 7.0744 152.418 6.979C151.969 6.88169 151.484 6.83398 150.962 6.83398H147.464V14.3309H149.383V11.547H150.962L153.196 14.3309H155.383L152.832 11.3008C153.377 11.1291 153.81 10.8677 154.13 10.5185ZM152.201 8.42533C152.512 8.58561 152.668 8.8413 152.668 9.19048C152.668 9.53966 152.512 9.79535 152.201 9.95753C151.889 10.1178 151.429 10.198 150.82 10.198H149.381V8.18491H150.82C151.429 8.18491 151.889 8.26505 152.201 8.42533ZM164.788 10.5814C164.788 11.131 164.688 11.6404 164.49 12.1117C164.291 12.583 164 12.9933 163.618 13.3424C163.236 13.6916 162.765 13.9645 162.202 14.161C161.64 14.3576 160.996 14.4549 160.271 14.4549C159.546 14.4549 158.901 14.3576 158.34 14.161C157.779 13.9645 157.306 13.6916 156.924 13.3424C156.541 12.9933 156.251 12.583 156.052 12.1117C155.852 11.6404 155.754 11.131 155.754 10.5814C155.754 10.0319 155.854 9.52245 156.052 9.05115C156.251 8.57985 156.541 8.16961 156.924 7.82043C157.306 7.47125 157.777 7.19839 158.34 7.00185C158.901 6.80532 159.546 6.70801 160.271 6.70801C160.996 6.70801 161.64 6.80532 162.202 7.00185C162.763 7.19839 163.236 7.47125 163.618 7.82043C164 8.16961 164.291 8.57985 164.49 9.05115C164.688 9.52245 164.788 10.0319 164.788 10.5814ZM157.698 10.5814C157.698 11.3943 157.92 12.0201 158.365 12.4552C158.809 12.8902 159.444 13.1078 160.271 13.1078C161.098 13.1078 161.733 12.8902 162.177 12.4552C162.622 12.0201 162.844 11.3962 162.844 10.5814C162.844 9.76668 162.622 9.14273 162.177 8.70769C161.733 8.27264 161.098 8.05512 160.271 8.05512C159.444 8.05512 158.809 8.27264 158.365 8.70769C157.92 9.14273 157.698 9.76859 157.698 10.5814ZM168.847 14.2641C169.346 14.3919 169.896 14.4568 170.497 14.4568C171.098 14.4568 171.648 14.3919 172.151 14.2641C172.65 14.1343 173.08 13.9416 173.438 13.6802C173.796 13.4207 174.074 13.0944 174.274 12.7014C174.472 12.3083 174.572 11.8485 174.572 11.3199V6.83398H172.652V11.2455C172.652 11.8523 172.485 12.3159 172.149 12.6327C171.814 12.9513 171.264 13.1097 170.499 13.1097C169.734 13.1097 169.184 12.9494 168.849 12.6327C168.514 12.314 168.346 11.8523 168.346 11.2455V6.83398H166.427V11.3199C166.427 11.8485 166.525 12.3083 166.724 12.7014C166.924 13.0925 167.203 13.4207 167.561 13.6802C167.919 13.9416 168.348 14.1363 168.847 14.2641ZM180.336 6.83398C180.913 6.83398 181.433 6.88741 181.892 6.99426C182.352 7.10112 182.744 7.25949 183.068 7.47129C183.392 7.68118 183.638 7.94068 183.81 8.24788C183.981 8.55508 184.068 8.9119 184.068 9.31832C184.068 9.72475 183.981 10.0816 183.81 10.3888C183.638 10.696 183.39 10.9555 183.068 11.1654C182.744 11.3752 182.352 11.5355 181.892 11.6424C181.433 11.7492 180.913 11.8027 180.336 11.8027H178.909V14.329H176.989V6.83398H180.336ZM178.911 10.4536H180.15C180.813 10.4536 181.308 10.3716 181.636 10.2075C181.964 10.0434 182.128 9.74764 182.128 9.31832C182.128 8.89091 181.964 8.59325 181.636 8.42915C181.308 8.26505 180.813 8.18301 180.15 8.18301H178.911V10.4536ZM11.7655 5.17496C11.191 5.04139 10.543 4.97461 9.82347 4.97461H5.64746V14.33H8.04155V11.1759H9.82347C10.543 11.1759 11.191 11.1091 11.7655 10.9756C12.34 10.842 12.8297 10.6436 13.2328 10.3802C13.6359 10.1169 13.9448 9.79445 14.1596 9.41093C14.3743 9.02931 14.4817 8.58281 14.4817 8.07526C14.4817 7.56771 14.3743 7.12312 14.1596 6.7396C13.9467 6.35607 13.6359 6.0336 13.2328 5.77028C12.8297 5.50697 12.34 5.30853 11.7655 5.17496ZM9.5899 9.49107H8.04155V6.65946H9.5899C10.4187 6.65946 11.0365 6.76249 11.4453 6.96666C11.854 7.17082 12.0593 7.54099 12.0593 8.07526C12.0593 8.60953 11.854 8.9797 11.4453 9.18386C11.0365 9.38803 10.4168 9.49107 9.5899 9.49107ZM63.6289 9.76386C63.6289 9.04451 63.7758 8.39767 64.0697 7.81951C64.3635 7.24327 64.7911 6.74907 65.3562 6.33883C65.9194 5.92859 66.6069 5.61185 67.4169 5.3886C68.2268 5.16536 69.1479 5.05469 70.182 5.05469C70.8168 5.05469 71.4234 5.09285 72.0054 5.16917C72.5874 5.2455 73.0885 5.35426 73.5123 5.49546L73.3183 7.27189C72.9774 7.11924 72.563 7.00667 72.077 6.93034C71.5891 6.85402 71.0881 6.81586 70.5701 6.81586C69.2195 6.81586 68.2005 7.07345 67.5148 7.59054C66.8273 8.10764 66.4845 8.8308 66.4845 9.76195C66.4845 10.7236 66.8386 11.4525 67.5506 11.9486C68.2607 12.4447 69.2854 12.6928 70.6247 12.6928C71.1069 12.6928 71.591 12.6546 72.077 12.5783C72.5648 12.502 73.0075 12.3779 73.4068 12.2062L73.6008 14.0285C73.1186 14.1811 72.5818 14.2899 71.9884 14.3547C71.3951 14.4196 70.7999 14.454 70.2009 14.454C69.1555 14.454 68.2287 14.3452 67.4188 14.1277C66.6088 13.9101 65.9213 13.5991 65.3581 13.1927C64.7949 12.7882 64.3654 12.2959 64.0716 11.7197C63.7758 11.1472 63.6289 10.4947 63.6289 9.76386ZM141.123 11.2704V9.58745H145.416V13.3712C145.416 13.3712 144.189 14.7984 141.434 14.7984C140.351 14.7984 139.381 14.6801 138.525 14.4455C137.672 14.2088 136.947 13.8787 136.355 13.4475C135.764 13.0182 135.312 12.4992 134.999 11.8943C134.685 11.2876 134.528 10.6178 134.528 9.88511C134.528 9.17911 134.671 8.53036 134.96 7.93313C135.25 7.3359 135.677 6.8169 136.244 6.37803C136.811 5.93917 137.512 5.59572 138.348 5.34766C139.183 5.09961 140.147 4.97559 141.242 4.97559C141.948 4.97559 142.641 5.01947 143.323 5.10915C144.005 5.20074 144.628 5.33622 145.195 5.51748L145.001 7.29392C144.513 7.10311 143.969 6.95619 143.368 6.85124C142.765 6.7482 142.163 6.69669 141.554 6.69669C140.072 6.69669 138.944 6.97527 138.167 7.53052C137.391 8.08769 137.003 8.87382 137.003 9.88511C137.003 10.9536 137.399 11.7512 138.188 12.2798C138.979 12.8083 140.091 13.0735 141.522 13.0735C141.839 13.0735 142.146 13.0602 142.44 13.0335C142.733 13.0067 142.999 12.9571 143.236 12.8846V11.2704H141.123Z" fill="white"/>
</svg>
