<svg width="50" height="48" viewBox="0 0 50 48" fill="none" xmlns="http://www.w3.org/2000/svg">
<path d="M24.9695 48C38.3073 48 49.1196 37.2548 49.1196 24C49.1196 10.7452 38.3073 0 24.9695 0C11.6317 0 0.819336 10.7452 0.819336 24C0.819336 37.2548 11.6317 48 24.9695 48Z" fill="url(#paint0_linear_92_25949)"/>
<path d="M35.5353 33.5614L27.3651 13.9452C26.9075 12.9291 26.2161 12.4355 25.3202 12.4355H24.5996C23.6939 12.4355 23.0123 12.9291 22.5546 13.9452L19.0002 22.4904H16.3126C15.514 22.5001 14.8519 23.1388 14.8519 23.942V23.9614C14.8616 24.7549 15.514 25.413 16.3126 25.413H17.7538L14.365 33.5614C14.3065 33.7452 14.2676 33.9291 14.2676 34.1226C14.2676 34.5775 14.4136 34.9355 14.6668 35.2162C14.92 35.4968 15.2901 35.6323 15.7477 35.6323C16.0496 35.6226 16.3418 35.5355 16.5852 35.3517C16.8481 35.1678 17.0234 34.9162 17.1695 34.6162L20.9089 25.413H23.4992C24.2977 25.4033 24.9599 24.7646 24.9599 23.9614V23.9226C24.9501 23.1291 24.2977 22.471 23.4992 22.471H22.1164L24.9696 15.4162L32.7405 34.6162C32.8866 34.9162 33.0618 35.1775 33.3248 35.3517C33.5682 35.5355 33.8701 35.6226 34.1622 35.6323C34.6199 35.6323 34.9802 35.4968 35.2432 35.2162C35.5061 34.9355 35.6424 34.5775 35.6424 34.1226C35.6424 33.9291 35.6132 33.7355 35.5353 33.5614Z" fill="white"/>
<defs>
<linearGradient id="paint0_linear_92_25949" x1="42.9776" y1="8.94416" x2="7.22702" y2="39.2119" gradientUnits="userSpaceOnUse">
<stop stop-color="#B6509E"/>
<stop offset="1" stop-color="#2EBAC6"/>
</linearGradient>
</defs>
</svg>
