<svg width="49" height="48" viewBox="0 0 49 48" fill="none" xmlns="http://www.w3.org/2000/svg">
<rect x="0.213867" width="48" height="48" rx="24" fill="#2C374B"/>
<path d="M28.3771 22.4496L31.1006 17.8282L38.4416 29.2619L38.4451 31.4563L38.4211 16.3568C38.4038 15.9876 38.2077 15.6499 37.8951 15.4506L24.6785 7.84855C24.3695 7.69658 23.9773 7.6984 23.6687 7.85335C23.627 7.87434 23.588 7.89693 23.5505 7.9218L23.5044 7.95078L10.6755 15.3849L10.6258 15.4077C10.5617 15.437 10.4971 15.4746 10.4362 15.518C10.1929 15.6923 10.0313 15.9504 9.97909 16.2395C9.97133 16.2833 9.9654 16.3281 9.96289 16.3732L9.98297 28.6778L16.8208 18.0797C17.6816 16.6745 19.5574 16.2215 21.2987 16.2464L23.3422 16.3002L11.301 35.6108L12.7204 36.4279L24.9058 16.3198L30.2919 16.3002L18.138 36.9158L23.2028 39.8292L23.8079 40.177C24.064 40.281 24.3657 40.2863 24.6237 40.1929L38.0261 32.4261L35.4637 33.911L28.3771 22.4496ZM29.4161 37.4158L24.3006 29.3868L27.4235 24.0876L34.1418 34.677L29.4161 37.4158Z" fill="#2D374B"/>
<path d="M24.2988 29.3868L29.4145 37.4157L34.14 34.6771L27.4217 24.0876L24.2988 29.3868Z" fill="#28A0F0"/>
<path d="M38.443 31.4564L38.4395 29.2621L31.0985 17.8284L28.375 22.4498L35.4618 33.9111L38.0242 32.4262C38.2755 32.2222 38.4277 31.9226 38.4436 31.5995L38.443 31.4564Z" fill="#28A0F0"/>
<path d="M7.68164 33.5257L11.3001 35.6107L23.3413 16.3002L21.2978 16.2463C19.5567 16.2217 17.6809 16.6744 16.8199 18.0796L9.98207 28.6777L7.68164 32.2122V33.5257Z" fill="white"/>
<path d="M30.2912 16.3003L24.9051 16.3199L12.7197 36.428L16.979 38.8802L18.1371 36.9159L30.2912 16.3003Z" fill="white"/>
<path d="M40.7138 16.2724C40.6688 15.146 40.0588 14.115 39.1036 13.5146L25.7138 5.8144C24.7689 5.33861 23.5884 5.33793 22.6416 5.81417C22.5298 5.87054 9.62038 13.3576 9.62038 13.3576C9.44171 13.4432 9.26965 13.5452 9.10786 13.6611C8.25509 14.2724 7.73527 15.2222 7.68164 16.2655V32.2125L9.98207 28.6779L9.96199 16.3732C9.96473 16.3283 9.97044 16.2838 9.97819 16.2402C10.0302 15.9506 10.192 15.6925 10.4353 15.5179C10.4962 15.4746 23.6258 7.87432 23.6676 7.85332C23.9764 7.69838 24.3684 7.69655 24.6774 7.84853L37.894 15.4506C38.2066 15.6498 38.4026 15.9876 38.4199 16.3568V31.5991C38.404 31.9222 38.2762 32.2218 38.0249 32.4258L35.4625 33.9107L34.1404 34.677L29.4149 37.4155L24.6226 40.1927C24.3645 40.286 24.0626 40.2808 23.8068 40.1767L18.1368 36.9156L16.9785 38.8799L22.0741 41.8135C22.2425 41.9094 22.3927 41.9943 22.5159 42.0636C22.7067 42.1707 22.8367 42.2421 22.8826 42.2644C23.2448 42.4404 23.7657 42.5426 24.2354 42.5426C24.6657 42.5426 25.0856 42.4637 25.4829 42.308L39.4026 34.247C40.2015 33.628 40.6715 32.6944 40.7138 31.6833V16.2724Z" fill="#96BEDC"/>
</svg>