<svg width="49" height="48" viewBox="0 0 49 48" fill="none" xmlns="http://www.w3.org/2000/svg">
<rect x="0.213867" width="48" height="48" rx="24" fill="#E84142"/>
<path fill-rule="evenodd" clip-rule="evenodd" d="M30.0359 18.2809C29.8935 18.8801 29.5727 19.4507 28.9247 20.5845L21.6297 33.5016L21.6107 33.5348C20.9685 34.6609 20.6427 35.2318 20.1915 35.6609C19.7027 36.1292 19.1094 36.4738 18.4608 36.666C17.8698 36.8299 17.2075 36.8299 15.8832 36.8299H10.2564C9.07415 36.8299 8.49055 36.8299 8.13352 36.6018C7.94517 36.4791 7.78834 36.3136 7.67575 36.1189C7.56316 35.9241 7.49796 35.7055 7.48546 35.4808C7.46423 35.0602 7.75564 34.5465 8.34001 33.5197L22.231 9.00067C22.8219 7.95965 23.1211 7.43895 23.4986 7.24644C23.6994 7.14445 23.9214 7.09131 24.1466 7.09131C24.3718 7.09131 24.5938 7.14445 24.7947 7.24644C25.1722 7.43972 25.4713 7.95965 26.0622 9.00067L28.9185 13.9932L28.9332 14.0187C29.5716 15.1359 29.895 15.7022 30.0367 16.2967C30.193 16.9489 30.1927 17.6289 30.0359 18.2809Z" fill="white"/>
<path fill-rule="evenodd" clip-rule="evenodd" d="M40.9408 35.4688C40.9297 35.6946 40.8651 35.9146 40.7524 36.1105C40.6397 36.3064 40.4822 36.4727 40.2928 36.5957C39.9365 36.8307 39.3382 36.8307 38.149 36.8307H30.0883C28.8991 36.8307 28.3008 36.8307 27.9519 36.6026C27.7635 36.4786 27.6067 36.312 27.4942 36.1163C27.3816 35.9206 27.3164 35.7013 27.3038 35.4758C27.2826 35.0583 27.5771 34.548 28.1661 33.5314L28.18 33.5074L32.203 26.5879C32.7944 25.5681 33.0931 25.0617 33.4636 24.8692C33.6632 24.7673 33.884 24.7141 34.108 24.7141C34.3321 24.7141 34.5529 24.7673 34.7524 24.8692C35.1203 25.0567 35.4086 25.5422 35.9741 26.5028L36.02 26.5802L40.0577 33.4997C40.0774 33.5337 40.0963 33.5673 40.116 33.6002C40.6757 34.5681 40.9613 35.0618 40.9408 35.4688Z" fill="white"/>
</svg>
