<svg width="49" height="48" viewBox="0 0 49 48" fill="none" xmlns="http://www.w3.org/2000/svg">
<path fill-rule="evenodd" clip-rule="evenodd" d="M24.8967 0C38.1086 0 48.8227 10.7472 48.8227 24C48.8227 37.2528 38.1086 48 24.8967 48C11.6848 48 0.970703 37.2528 0.970703 24C0.970703 10.7472 11.6848 0 24.8967 0Z" fill="#1E1E1E"/>
<path d="M25.2555 34.0322C17.604 34.0322 11.4023 31.8146 11.4023 28.8434C11.4023 27.293 13.0915 25.8962 15.7952 24.9122C17.9054 26.2706 21.4465 26.9666 25.4613 26.9666C29.3803 26.9666 32.8448 26.117 34.9742 24.8162C37.5247 25.7906 39.1087 27.149 39.1087 28.6466C39.1087 31.6226 32.907 34.0322 25.2555 34.0322Z" fill="white"/>
<path d="M25.3365 26.2994C19.5369 26.2994 14.833 24.4754 14.833 22.2242C14.833 20.9762 16.2829 19.8578 18.5559 19.1138C20.1781 19.9634 22.609 20.5058 25.3365 20.5058C28.0641 20.5058 30.495 19.9634 32.1172 19.1138C34.3949 19.8626 35.84 20.9762 35.84 22.2242C35.8448 24.4754 31.141 26.2994 25.3365 26.2994Z" fill="white"/>
<path d="M25.2982 19.8289C20.8145 19.8289 17.1777 18.3217 17.1777 16.4689C17.1777 14.6161 20.8145 13.1089 25.2982 13.1089C29.782 13.1089 33.4187 14.6161 33.4187 16.4689C33.4187 18.3217 29.782 19.8289 25.2982 19.8289Z" fill="white"/>
</svg>
