<svg width="49" height="48" viewBox="0 0 49 48" fill="none" xmlns="http://www.w3.org/2000/svg">
<rect x="0.213867" width="48" height="48" rx="24" fill="#0B0E11"/>
<path d="M12.5513 23.9998L12.57 30.8467L18.3878 34.2702V38.2787L9.16516 32.8697V21.9976L12.5513 23.9998ZM12.5513 17.1529V21.1427L9.16309 19.1385V15.1486L12.5513 13.1443L15.9561 15.1486L12.5513 17.1529ZM20.8174 15.1486L24.2056 13.1443L27.6104 15.1486L24.2056 17.1529L20.8174 15.1486Z" fill="#F0B90B"/>
<path d="M15 29.4275V25.419L18.3882 27.4232V31.4131L15 29.4275ZM20.8178 35.706L24.206 37.7102L27.6108 35.706V39.6958L24.206 41.7001L20.8178 39.6958V35.706ZM32.47 15.1486L35.8582 13.1443L39.263 15.1486V19.1385L35.8582 21.1427V17.1529L32.47 15.1486ZM35.8582 30.8467L35.8769 23.9998L39.2651 21.9955V32.8676L30.0425 38.2767V34.2681L35.8582 30.8467Z" fill="#F0B90B"/>
<path d="M33.4282 29.4278L30.04 31.4134V27.4235L33.4282 25.4192V29.4278Z" fill="#F0B90B"/>
<path d="M33.4286 18.5722L33.4473 22.5807L27.6129 26.0042V32.8677L24.2247 34.8533L20.8365 32.8677V26.0042L15.0021 22.5807V18.5722L18.4048 16.5679L24.2039 20.0079L30.0383 16.5679L33.4431 18.5722H33.4286ZM15 11.7273L24.206 6.29956L33.4286 11.7273L30.0404 13.7316L24.206 10.2915L18.3882 13.7316L15 11.7273Z" fill="#F0B90B"/>
</svg>
