<svg width="48" height="48" viewBox="0 0 48 48" fill="none" xmlns="http://www.w3.org/2000/svg">
<path d="M24.0165 48C37.1624 48 47.8192 37.2548 47.8192 24C47.8192 10.7452 37.1624 0 24.0165 0C10.8707 0 0.213867 10.7452 0.213867 24C0.213867 37.2548 10.8707 48 24.0165 48Z" fill="url(#paint0_linear_92_25946)"/>
<path d="M12.3011 31.1999V19.9039L20.797 26.3511V31.1999H22.9654V25.8959C22.9646 25.4966 22.7779 25.1201 22.4616 24.8799L12.1582 17.0583C11.9394 16.8944 11.6739 16.8059 11.4013 16.8059C10.7071 16.8059 10.1351 17.38 10.1318 18.0799V31.1999H12.3011ZM35.7975 31.1999V19.9039L27.3015 26.3511V31.1999H25.1331V25.8959C25.1339 25.4966 25.3206 25.1201 25.6369 24.8799L35.9403 17.0615C36.1591 16.8976 36.4246 16.809 36.6972 16.809C37.3902 16.809 37.9618 17.3812 37.9667 18.0799V31.1999H35.7975Z" fill="white"/>
<defs>
<linearGradient id="paint0_linear_92_25946" x1="24.0165" y1="0" x2="24.0165" y2="48" gradientUnits="userSpaceOnUse">
<stop stop-color="#4FA89B"/>
<stop offset="1" stop-color="#6ACEBB"/>
</linearGradient>
</defs>
</svg>
