<svg width="49" height="48" viewBox="0 0 49 48" fill="none" xmlns="http://www.w3.org/2000/svg">
<rect x="0.213867" width="48" height="48" rx="24" fill="#F0F0F0"/>
<g clip-path="url(#clip0_92_25942)">
<path d="M24.3748 8.25C17.6698 8.27643 12.2408 13.6036 12.2139 20.183C12.2139 21.5006 12.4306 22.8095 12.8551 24.0591C13.1719 24.9099 14.112 25.368 14.9944 25.105C15.8473 24.784 16.3 23.8691 16.0281 23.0133C15.6677 22.0393 15.5074 21.0061 15.5549 19.9716C15.7011 15.2195 19.7449 11.4831 24.5877 11.6265C29.4306 11.77 33.2384 15.738 33.0922 20.4901C32.955 24.9388 29.3844 28.552 24.8558 28.8225C24.8558 28.8225 23.1487 28.9245 22.2997 29.0264C21.9868 29.0705 21.6764 29.1309 21.3699 29.2076C21.3263 29.2517 21.2557 29.2517 21.2108 29.2089L21.2095 29.2076C21.1788 29.1686 21.1788 29.1132 21.2095 29.0742L21.4737 27.6597L23.0769 20.5845C23.2693 19.701 22.696 18.8314 21.7957 18.6426C20.8953 18.4538 20.0091 19.0164 19.8167 19.8998C19.8167 19.8998 16.0037 37.2179 16.0037 37.3752C15.7857 38.2172 16.3039 39.0729 17.1619 39.2869C17.1708 39.2894 17.1811 39.2919 17.1901 39.2932H17.2786C18.1353 39.5109 19.01 39.005 19.2306 38.1643C19.2344 38.1505 19.2383 38.1366 19.2409 38.1215C19.2383 38.0951 19.2383 38.0687 19.2409 38.0435C19.2883 37.8396 19.7693 35.5353 19.7693 35.5353C20.1335 33.7961 21.5622 32.4633 23.3501 32.194C23.7182 32.1387 25.2649 32.0367 25.2649 32.0367C31.9443 31.3836 36.8192 25.5404 36.1523 18.9862C35.5444 13.0083 30.4976 8.40605 24.3748 8.25Z" fill="#1E1E1E"/>
<path d="M25.1123 35.7643C24.0157 35.5403 22.9435 36.2312 22.7152 37.306C22.7127 37.3161 22.7114 37.3261 22.7088 37.3362C22.4715 38.4046 23.1615 39.4605 24.2517 39.6933C24.253 39.6933 24.2543 39.6933 24.2555 39.6946H24.312C25.379 39.9476 26.4525 39.3032 26.709 38.2574C26.7116 38.2498 26.7129 38.241 26.7154 38.2335V38.124C26.904 37.0442 26.2011 36.0085 25.1123 35.7643Z" fill="#E6007A"/>
</g>
<defs>
<clipPath id="clip0_92_25942">
<rect width="24" height="31.5" fill="white" transform="translate(12.2139 8.25)"/>
</clipPath>
</defs>
</svg>
