<svg width="49" height="48" viewBox="0 0 49 48" fill="none" xmlns="http://www.w3.org/2000/svg">
<rect x="0.213867" width="48" height="48" rx="24" fill="#8247E5"/>
<path d="M32.0717 18.7748C31.5133 18.4557 30.7954 18.4557 30.1572 18.7748L25.6899 21.4073L22.6585 23.0825L18.271 25.715C17.7126 26.0341 16.9946 26.0341 16.3564 25.715L12.9262 23.6409C12.3678 23.3218 11.9689 22.6836 11.9689 21.9657V17.977C11.9689 17.3388 12.288 16.7006 12.9262 16.3018L16.3564 14.3074C16.9148 13.9884 17.6328 13.9884 18.271 14.3074L21.7012 16.3816C22.2596 16.7006 22.6585 17.3388 22.6585 18.0568V20.6893L25.6899 18.9343V16.222C25.6899 15.5838 25.3708 14.9456 24.7326 14.5468L18.3507 10.7974C17.7923 10.4783 17.0744 10.4783 16.4362 10.7974L9.89478 14.6265C9.25659 14.9456 8.9375 15.5838 8.9375 16.222V23.7207C8.9375 24.3589 9.25659 24.9971 9.89478 25.3959L16.3564 29.1453C16.9148 29.4644 17.6328 29.4644 18.271 29.1453L22.6585 26.5925L25.6899 24.8375L30.0774 22.2848C30.6358 21.9657 31.3538 21.9657 31.992 22.2848L35.4222 24.2791C35.9806 24.5982 36.3795 25.2364 36.3795 25.9543V29.943C36.3795 30.5812 36.0604 31.2194 35.4222 31.6182L32.0717 33.6126C31.5133 33.9317 30.7954 33.9317 30.1572 33.6126L26.7269 31.6182C26.1685 31.2992 25.7697 30.661 25.7697 29.943V27.3903L22.7383 29.1453V31.7778C22.7383 32.416 23.0574 33.0542 23.6956 33.453L30.1572 37.2024C30.7156 37.5215 31.4336 37.5215 32.0717 37.2024L38.5334 33.453C39.0918 33.1339 39.4907 32.4958 39.4907 31.7778V24.1993C39.4907 23.5611 39.1716 22.923 38.5334 22.5241L32.0717 18.7748Z" fill="white"/>
</svg>
