<svg width="49" height="48" viewBox="0 0 49 48" fill="none" xmlns="http://www.w3.org/2000/svg">
<g clip-path="url(#clip0_92_25960)">
<path d="M24.8197 47.9948C38.0731 47.9948 48.8171 37.2508 48.8171 23.9974C48.8171 10.744 38.0731 0 24.8197 0C11.5663 0 0.822266 10.744 0.822266 23.9974C0.822266 37.2508 11.5663 47.9948 24.8197 47.9948Z" fill="url(#paint0_linear_92_25960)"/>
<path d="M16.9155 18.031C16.7237 17.7929 16.4327 17.6606 16.1218 17.6606H9.71233C9.65941 17.6606 9.61311 17.6408 9.57342 17.6077C9.54035 17.5746 9.52051 17.5349 9.52051 17.4886V13.1694C9.52051 13.1231 9.54035 13.0834 9.57342 13.0503C9.61311 13.0106 9.65941 12.9908 9.71233 12.9974H16.4856C18.1921 12.9974 19.6672 13.6985 20.9107 15.0942L22.5577 17.105L19.3497 21.0141L16.9155 18.031ZM28.7555 15.0743C29.9924 13.6919 31.474 12.9974 33.2004 12.9974H39.9538C40.0001 12.9908 40.0464 13.0106 40.0795 13.0371C40.1126 13.0701 40.1258 13.1164 40.1192 13.1694V17.4886C40.1192 17.5349 40.106 17.5746 40.0795 17.6077C40.0464 17.6474 40.0001 17.6672 39.9538 17.6606H33.5444C33.2401 17.654 32.9491 17.7929 32.7506 18.031L28.0279 23.779L32.7705 29.5667C32.9623 29.785 33.2467 29.9173 33.5378 29.9107H39.9472C39.9935 29.904 40.0464 29.9305 40.0729 29.9636C40.0993 30.0033 40.1192 30.0562 40.1126 30.1025V34.4217C40.1126 34.468 40.0993 34.5077 40.0729 34.5408C40.0398 34.5805 39.9935 34.6003 39.9472 34.5937H33.2004C31.474 34.5937 30.0056 33.8926 28.7753 32.4969L24.8463 27.7014L20.9173 32.4969C19.6804 33.8926 18.1987 34.5937 16.4723 34.5937H9.71233C9.66603 34.6003 9.61311 34.5739 9.58665 34.5408C9.55358 34.5011 9.54035 34.4482 9.54697 34.4019V30.0826C9.54697 30.0363 9.56019 29.9966 9.58665 29.9636C9.61973 29.9239 9.66603 29.904 9.71233 29.9107H16.1218C16.426 29.9107 16.7171 29.7717 16.9155 29.5402L21.5523 23.8782L28.7555 15.0743Z" fill="#00D1FF"/>
</g>
<defs>
<linearGradient id="paint0_linear_92_25960" x1="24.823" y1="-0.000138904" x2="24.823" y2="12.6997" gradientUnits="userSpaceOnUse">
<stop stop-color="#090220"/>
<stop offset="1" stop-color="#170659"/>
</linearGradient>
<clipPath id="clip0_92_25960">
<rect width="48" height="48" fill="white" transform="translate(0.822266)"/>
</clipPath>
</defs>
</svg>
