<svg width="24" height="24" viewBox="0 0 24 24" fill="none" xmlns="http://www.w3.org/2000/svg">
<rect x="0.375" y="0.375" width="23.25" height="23.25" rx="11.625" fill="#5D7BE1"/>
<rect x="0.375" y="0.375" width="23.25" height="23.25" rx="11.625" stroke="white" stroke-width="0.75"/>
<path d="M12.0924 3.75L11.9854 4.12685V15.0621L12.0924 15.1727L16.9921 12.1723L12.0924 3.75Z" fill="#BBC7F1"/>
<path d="M12.0921 3.75L7.19238 12.1723L12.0921 15.1728V9.86516V3.75Z" fill="white"/>
<path d="M12.0925 16.1337L12.0322 16.2098V20.1052L12.0925 20.2877L16.9952 13.1348L12.0925 16.1337Z" fill="#BBC7F1"/>
<path d="M12.0921 20.2877V16.1337L7.19238 13.1348L12.0921 20.2877Z" fill="white"/>
<path d="M12.0918 15.1728L16.9915 12.1724L12.0918 9.86523V15.1728Z" fill="#7B93E7"/>
<path d="M7.19238 12.1724L12.0921 15.1728V9.86523L7.19238 12.1724Z" fill="#BBC7F1"/>
</svg>
