<svg width="24" height="24" viewBox="0 0 24 24" fill="none" xmlns="http://www.w3.org/2000/svg">
<rect x="0.375" y="0.375" width="23.25" height="23.25" rx="11.625" fill="black"/>
<rect x="0.375" y="0.375" width="23.25" height="23.25" rx="11.625" stroke="white" stroke-width="0.75"/>
<path d="M14.0225 9.66504H9.97812C9.80631 9.66504 9.66699 9.80429 9.66699 9.97611V14.0206C9.66699 14.1924 9.80631 14.3317 9.97812 14.3317H14.0225C14.1943 14.3317 14.3337 14.1924 14.3337 14.0206V9.97611C14.3337 9.80429 14.1943 9.66504 14.0225 9.66504Z" fill="white"/>
<path d="M9.35554 4.99902H5.31113C5.13932 4.99902 5 5.13828 5 5.31016V9.35456C5 9.52637 5.13932 9.66569 5.31113 9.66569H9.35554C9.52742 9.66569 9.66667 9.52637 9.66667 9.35456V5.31016C9.66667 5.13828 9.52742 4.99902 9.35554 4.99902Z" fill="white"/>
<path d="M18.6886 4.99902H14.6441C14.4723 4.99902 14.333 5.13828 14.333 5.31016V9.35456C14.333 9.52637 14.4723 9.66569 14.6441 9.66569H18.6886C18.8604 9.66569 18.9997 9.52637 18.9997 9.35456V5.31016C18.9997 5.13828 18.8604 4.99902 18.6886 4.99902Z" fill="white"/>
<path d="M9.35554 14.332H5.31113C5.13932 14.332 5 14.4713 5 14.6431V18.6876C5 18.8594 5.13932 18.9987 5.31113 18.9987H9.35554C9.52742 18.9987 9.66667 18.8594 9.66667 18.6876V14.6431C9.66667 14.4713 9.52742 14.332 9.35554 14.332Z" fill="white"/>
<path d="M18.6886 14.332H14.6441C14.4723 14.332 14.333 14.4713 14.333 14.6431V18.6876C14.333 18.8594 14.4723 18.9987 14.6441 18.9987H18.6886C18.8604 18.9987 18.9997 18.8594 18.9997 18.6876V14.6431C18.9997 14.4713 18.8604 14.332 18.6886 14.332Z" fill="white"/>
</svg>
