<svg width="56" height="56" viewBox="0 0 56 56" fill="none" xmlns="http://www.w3.org/2000/svg">
<path fill-rule="evenodd" clip-rule="evenodd" d="M22.4528 21.1468H35.0146V17.0084C35.0146 13.5396 32.2026 10.7275 28.7337 10.7275C25.2649 10.7275 22.4528 13.5396 22.4528 17.0084V21.1468ZM17.0084 21.1476C13.1897 21.2025 10.1111 24.3151 10.1111 28.1468V44.4948C10.1111 48.3608 13.2451 51.4948 17.1111 51.4948H39.6666C43.5326 51.4948 46.6666 48.3608 46.6666 44.4948V28.1468C46.6666 24.5488 43.9519 21.5848 40.4591 21.1912V17.0084C40.4591 10.5327 35.2094 5.28308 28.7337 5.28308C22.258 5.28308 17.0084 10.5327 17.0084 17.0084V21.1476Z" fill="#D9D9D9"/>
<path fill-rule="evenodd" clip-rule="evenodd" d="M22.4528 21.1468H35.0146V17.0084C35.0146 13.5396 32.2026 10.7275 28.7337 10.7275C25.2649 10.7275 22.4528 13.5396 22.4528 17.0084V21.1468ZM17.0084 21.1476C13.1897 21.2025 10.1111 24.3151 10.1111 28.1468V44.4948C10.1111 48.3608 13.2451 51.4948 17.1111 51.4948H39.6666C43.5326 51.4948 46.6666 48.3608 46.6666 44.4948V28.1468C46.6666 24.5488 43.9519 21.5848 40.4591 21.1912V17.0084C40.4591 10.5327 35.2094 5.28308 28.7337 5.28308C22.258 5.28308 17.0084 10.5327 17.0084 17.0084V21.1476Z" fill="black"/>
<path d="M28.0202 29.6888V24.994V24.9873L25.6651 27.3268L25.2153 27.778L20.2646 32.6909C19.9152 33.0375 19.9114 33.6027 20.2556 33.954L23.5413 37.3084L28.0202 41.8878V41.8811V37.8312C28.0202 37.403 27.8541 36.9915 27.5571 36.6841L25.5551 34.6114C24.8878 33.9206 24.8969 32.8208 25.5747 32.141L28.0198 29.6888H28.0202Z" fill="#EEECEC"/>
<path d="M28.502 34.8825C28.1935 34.5732 28.0203 34.154 28.0203 33.7168V29.7046V29.6979L30.3754 32.0374L30.8252 32.4885L35.7759 37.4015C36.1253 37.7481 36.1291 38.3133 35.7849 38.6646L32.4992 42.019L28.0203 46.5983V46.5917V41.8739L30.4854 39.3219C31.1527 38.6312 31.1437 37.5314 30.4659 36.8516L28.502 34.882V34.8825Z" fill="#EEECEC"/>
</svg>
