<svg width="57" height="56" viewBox="0 0 57 56" fill="none" xmlns="http://www.w3.org/2000/svg">
<path d="M13.6647 6.21094L53.3598 33.4834L43.5427 48.0861L3.84766 20.5988L13.6647 6.21094Z" fill="url(#paint0_linear_7743_500387)"/>
<path d="M53.3679 33.4871C49.9533 38.4262 38.4289 36.4935 27.5448 28.7627C16.4473 21.2466 10.4717 11.1537 13.6729 6.21455C17.0875 1.27544 28.6119 3.20813 39.496 10.9389C50.5936 18.2402 56.5692 28.5479 53.3679 33.4871Z" fill="url(#paint1_linear_7743_500387)"/>
<path d="M43.5469 47.8776C40.1322 52.8167 28.6079 50.884 17.7237 43.1532C6.8396 35.4224 0.650589 25.5442 4.06522 20.3903C7.47985 15.4512 19.0042 17.3839 29.8883 25.1147C40.7725 32.8455 46.7481 42.9385 43.5469 47.8776Z" fill="url(#paint2_linear_7743_500387)"/>
<path d="M53.3619 33.4862L43.5448 48.0888C40.1302 53.0279 28.6058 50.8804 17.7217 43.3644C15.5876 41.8612 13.6668 40.358 11.7461 38.64C13.24 38.4253 15.1607 37.5663 17.0815 35.4188C20.4961 31.7682 22.2034 30.9092 23.6973 31.124C25.1912 31.124 26.8985 32.6272 29.6729 36.2778C32.4473 39.9285 36.2887 41.0022 38.6363 39.0695C38.8497 38.8548 39.0631 38.8548 39.2765 38.64C41.1973 37.1368 41.8375 36.4926 45.4655 29.6208C46.3192 27.9028 49.307 25.1111 53.3619 26.3996C54.4289 29.1913 54.4289 31.5535 53.3619 33.4862Z" fill="#2D2D2D"/>
<path fill-rule="evenodd" clip-rule="evenodd" d="M51.8681 32.6324C48.8803 36.9273 38.423 34.7798 28.3926 27.6933C18.1487 20.6067 12.1731 11.5875 15.1609 7.29258C18.1487 2.9977 28.606 5.14514 38.6364 12.2317C48.6669 19.3183 54.6425 28.3375 51.8681 32.6324ZM42.4779 26.1901C40.984 28.3375 35.8621 27.2638 30.7401 23.8279C25.8316 20.392 22.8438 15.8823 24.3377 13.7349C25.8316 11.5875 30.9535 12.6612 36.0755 16.0971C40.984 19.533 43.9718 24.0426 42.4779 26.1901Z" fill="white"/>
<path d="M12.8146 11.1592C12.8146 10.9444 12.6012 10.7297 12.3878 10.9444C12.1744 11.1592 11.9609 11.1592 11.9609 11.3739C12.1744 12.0181 12.3878 12.4476 12.3878 12.8771C12.3878 13.0919 12.6012 13.3066 12.8146 13.0919C13.028 13.0919 13.2414 12.8771 13.028 12.6624C13.028 12.2329 13.028 11.8034 12.8146 11.1592Z" fill="white"/>
<path d="M13.8785 14.5928C13.8785 14.378 13.6651 14.1633 13.4517 14.378C13.2383 14.5928 13.2383 14.5928 13.2383 14.8075C15.5858 20.1761 20.4944 25.9742 26.8968 30.2691C27.1102 30.4838 27.3236 30.2691 27.537 30.2691C27.7504 30.0543 27.537 29.8396 27.537 29.6248C20.9212 25.33 16.2261 19.7466 13.8785 14.5928Z" fill="white"/>
<path d="M39.7042 35.6406C39.4908 35.6406 39.2773 35.6406 39.2773 35.8554C39.2773 36.0701 39.2773 36.2849 39.4908 36.2849C40.131 36.4996 40.9847 36.7143 41.6249 36.9291C41.8383 36.9291 42.0517 36.9291 42.0517 36.7143C42.0517 36.4996 42.0517 36.2849 41.8383 36.2849C41.1981 36.0701 40.3444 35.8554 39.7042 35.6406Z" fill="white"/>
<path d="M43.5479 36.5C43.3345 36.5 43.1211 36.7147 43.1211 36.9295C43.1211 37.1442 43.3345 37.359 43.5479 37.359C45.2552 37.5737 47.176 37.7885 48.6699 37.5737C48.8833 37.5737 49.0967 37.359 49.0967 37.1442C49.0967 36.9295 48.8833 36.7147 48.6699 36.7147C46.9626 36.9295 45.2552 36.7147 43.5479 36.5Z" fill="white"/>
<rect x="37.5" y="36.5" width="19" height="19" rx="9.5" fill="#475467"/>
<path d="M47.3086 48.0514L45.249 51.2839L43.3465 50.1813L46.0513 45.918L47.3086 48.0514Z" fill="#D6D6D6"/>
<path d="M41.6145 48.8813L41.6159 47.9979L44.5714 43.3945L45.668 45.2551L42.8148 49.8696L41.7832 49.2718C41.682 49.1896 41.6208 49.069 41.6143 48.9389L41.6145 48.8813Z" fill="#D6D6D6"/>
<path d="M54 49.7151L52.5432 50.5545L47.6953 42.7799L48.5181 42.7582C49.2191 42.7483 49.9742 42.9305 50.3209 43.4963L53.0738 47.7633L54 49.1863V49.7151H54Z" fill="white"/>
<path d="M44.8944 42.7812L47.0628 42.7891L51.9688 50.8849L50.254 51.8722L49.7877 51.0813L44.8944 42.7812Z" fill="white"/>
<path d="M40.701 42.7683C40.7191 42.3148 40.9647 41.8997 41.3493 41.658L46.7401 38.5579C47.1206 38.3663 47.5959 38.366 47.977 38.5577C48.022 38.5804 53.2195 41.5948 53.2195 41.5948C53.2914 41.6292 53.3607 41.6703 53.4259 41.717C53.7692 41.963 53.9785 42.3454 54 42.7655V49.1859L53.0738 47.7629L53.0819 42.809C53.0808 42.7908 53.0786 42.773 53.0754 42.7554C53.0545 42.6389 52.9894 42.5349 52.8914 42.4646C52.8669 42.4471 47.5807 39.3873 47.5639 39.3788C47.4396 39.3164 47.2818 39.3158 47.1573 39.3769L41.8363 42.4377C41.7104 42.5179 41.6315 42.6538 41.6245 42.8024V48.9391C41.6309 49.0693 41.6823 49.1898 41.7835 49.272L42.8152 49.8698L43.3474 50.1783L45.25 51.2808L47.1794 52.399C47.2833 52.4366 47.4048 52.4345 47.5079 52.3925L49.7907 51.0796L50.257 51.8704L48.2055 53.0516C48.1377 53.0901 48.0772 53.1243 48.0276 53.1522C47.9508 53.1953 47.8985 53.2241 47.88 53.233C47.7342 53.3038 47.5244 53.3451 47.3354 53.3451C47.162 53.3451 46.993 53.3132 46.8331 53.2506L41.229 50.0051C40.9073 49.7559 40.7181 49.38 40.701 48.9729V42.7683Z" fill="white"/>
<rect x="37.5" y="36.5" width="19" height="19" rx="9.5" stroke="#171717"/>
<defs>
<linearGradient id="paint0_linear_7743_500387" x1="21.442" y1="2.3333" x2="29.4046" y2="29.5067" gradientUnits="userSpaceOnUse">
<stop stop-color="#959595"/>
<stop offset="1" stop-color="#BABABA"/>
</linearGradient>
<linearGradient id="paint1_linear_7743_500387" x1="27.9328" y1="0.437075" x2="35.8957" y2="27.6107" gradientUnits="userSpaceOnUse">
<stop stop-color="#959595"/>
<stop offset="1" stop-color="#BABABA"/>
</linearGradient>
<linearGradient id="paint2_linear_7743_500387" x1="14.9835" y1="4.23319" x2="22.9463" y2="31.4068" gradientUnits="userSpaceOnUse">
<stop stop-color="#959595"/>
<stop offset="1" stop-color="#BABABA"/>
</linearGradient>
</defs>
</svg>