<svg width="57" height="56" viewBox="0 0 57 56" fill="none" xmlns="http://www.w3.org/2000/svg">
<path d="M13.3483 6.21191L53.0434 33.4844L43.2263 48.087L3.53125 20.5998L13.3483 6.21191Z" fill="url(#paint0_linear_8295_189370)"/>
<path d="M53.0515 33.4871C49.6369 38.4262 38.1125 36.4935 27.2284 28.7627C16.1309 21.2466 10.1553 11.1537 13.3565 6.21455C16.7711 1.27544 28.2955 3.20813 39.1796 10.9389C50.2772 18.2402 56.2528 28.5479 53.0515 33.4871Z" fill="url(#paint1_linear_8295_189370)"/>
<path d="M43.2324 47.8756C39.8178 52.8148 28.2934 50.8821 17.4093 43.1513C6.52515 35.4205 0.336136 25.5422 3.75076 20.3884C7.16539 15.4493 18.6898 17.382 29.5739 25.1128C40.458 32.8435 46.4336 42.9365 43.2324 47.8756Z" fill="url(#paint2_linear_8295_189370)"/>
<path d="M53.0455 33.4881L43.2284 48.0907C39.8138 53.0298 28.2894 50.8824 17.4053 43.3663C15.2711 41.8631 13.3504 40.3599 11.4297 38.642C12.9236 38.4272 14.8443 37.5682 16.765 35.4208C20.1797 31.7702 21.887 30.9112 23.3809 31.1259C24.8748 31.1259 26.5821 32.6291 29.3565 36.2798C32.1309 39.9304 35.9723 41.0042 38.3199 39.0715C38.5333 38.8567 38.7467 38.8567 38.9601 38.642C40.8809 37.1388 41.5211 36.4945 45.1491 29.6227C46.0028 27.9048 48.9906 25.1131 53.0455 26.4015C54.1125 29.1932 54.1125 31.5554 53.0455 33.4881Z" fill="#0E0F23"/>
<path fill-rule="evenodd" clip-rule="evenodd" d="M51.5517 32.6324C48.5639 36.9273 38.1066 34.7798 28.0762 27.6933C17.8323 20.6067 11.8567 11.5875 14.8445 7.29258C17.8323 2.9977 28.2896 5.14514 38.32 12.2317C48.3505 19.3183 54.3261 28.3375 51.5517 32.6324ZM42.1615 26.1901C40.6676 28.3375 35.5457 27.2638 30.4237 23.8279C25.5152 20.392 22.5274 15.8823 24.0213 13.7349C25.5152 11.5875 30.6371 12.6612 35.7591 16.0971C40.6676 19.533 43.6554 24.0426 42.1615 26.1901Z" fill="white"/>
<path d="M12.4982 11.1592C12.4982 10.9444 12.2848 10.7297 12.0714 10.9444C11.8579 11.1592 11.6445 11.1592 11.6445 11.3739C11.8579 12.0181 12.0714 12.4476 12.0714 12.8771C12.0714 13.0919 12.2848 13.3066 12.4982 13.0919C12.7116 13.0919 12.925 12.8771 12.7116 12.6624C12.7116 12.2329 12.7116 11.8034 12.4982 11.1592Z" fill="white"/>
<path d="M13.5621 14.5947C13.5621 14.38 13.3487 14.1652 13.1353 14.38C12.9219 14.5947 12.9219 14.5947 12.9219 14.8095C15.2694 20.1781 20.178 25.9762 26.5804 30.271C26.7938 30.4858 27.0072 30.271 27.2206 30.271C27.434 30.0563 27.2206 29.8415 27.2206 29.6268C20.6048 25.3319 15.9097 19.7486 13.5621 14.5947Z" fill="white"/>
<path d="M39.3878 35.6387C39.1744 35.6387 38.9609 35.6387 38.9609 35.8534C38.9609 36.0682 38.9609 36.2829 39.1744 36.2829C39.8146 36.4976 40.6683 36.7124 41.3085 36.9271C41.5219 36.9271 41.7353 36.9271 41.7353 36.7124C41.7353 36.4976 41.7353 36.2829 41.5219 36.2829C40.8817 36.0682 40.028 35.8534 39.3878 35.6387Z" fill="white"/>
<path d="M43.2335 36.499C43.0201 36.499 42.8066 36.7138 42.8066 36.9285C42.8066 37.1433 43.0201 37.358 43.2335 37.358C44.9408 37.5727 46.8615 37.7875 48.3554 37.5727C48.5688 37.5727 48.7822 37.358 48.7822 37.1433C48.7822 36.9285 48.5688 36.7138 48.3554 36.7138C46.6481 36.9285 44.9408 36.7138 43.2335 36.499Z" fill="white"/>
<rect x="37.1855" y="36.5" width="19" height="19" rx="9.5" fill="#101828"/>
<path d="M44.1675 45.1909L46.7831 42.5754L49.4 45.1923L50.922 43.6703L46.7831 39.5312L42.6456 43.669L44.1675 45.1909ZM40.0488 46.2654L41.5708 44.7434L43.0927 46.2653L41.5708 47.7873L40.0488 46.2654ZM44.1675 47.3403L46.7831 49.9558L49.4 47.339L50.9228 48.8602L50.922 48.861L46.7831 53L42.6454 48.8624L42.6433 48.8602L44.1675 47.3403ZM50.4737 46.2662L51.9957 44.7442L53.5176 46.2661L51.9956 47.7881L50.4737 46.2662Z" fill="white"/>
<path d="M48.3271 46.2651H48.3278L46.7834 44.7207L45.6421 45.862H45.642L45.5109 45.9932L45.2404 46.2637L45.2383 46.2658L45.2404 46.2681L46.7834 47.8111L48.3278 46.2667L48.3285 46.2658L48.3271 46.2651Z" fill="white"/>
<rect x="37.1855" y="36.5" width="19" height="19" rx="9.5" stroke="#F9FAFB"/>
<defs>
<linearGradient id="paint0_linear_8295_189370" x1="21.1256" y1="2.33428" x2="29.0882" y2="29.5076" gradientUnits="userSpaceOnUse">
<stop stop-color="#03B8FF"/>
<stop offset="1" stop-color="#FA52A0"/>
</linearGradient>
<linearGradient id="paint1_linear_8295_189370" x1="27.6164" y1="0.437075" x2="35.5792" y2="27.6107" gradientUnits="userSpaceOnUse">
<stop stop-color="#03B8FF"/>
<stop offset="1" stop-color="#FA52A0"/>
</linearGradient>
<linearGradient id="paint2_linear_8295_189370" x1="14.669" y1="4.23124" x2="22.6319" y2="31.4048" gradientUnits="userSpaceOnUse">
<stop stop-color="#03B8FF"/>
<stop offset="1" stop-color="#FA52A0"/>
</linearGradient>
</defs>
</svg>
