<svg width="57" height="56" viewBox="0 0 57 56" fill="none" xmlns="http://www.w3.org/2000/svg">
<path d="M13.6647 6.21289L53.3598 33.4854L43.5427 48.088L3.84766 20.6008L13.6647 6.21289Z" fill="url(#paint0_linear_7740_498839)"/>
<path d="M53.3679 33.4871C49.9533 38.4262 38.4289 36.4935 27.5448 28.7627C16.4473 21.2466 10.4717 11.1537 13.6729 6.21455C17.0875 1.27544 28.6119 3.20813 39.496 10.9389C50.5936 18.2402 56.5692 28.5479 53.3679 33.4871Z" fill="url(#paint1_linear_7740_498839)"/>
<path d="M43.5469 47.8756C40.1322 52.8148 28.6079 50.8821 17.7237 43.1513C6.8396 35.4205 0.650589 25.5422 4.06522 20.3884C7.47985 15.4493 19.0042 17.382 29.8883 25.1128C40.7725 32.8435 46.7481 42.9365 43.5469 47.8756Z" fill="url(#paint2_linear_7740_498839)"/>
<path d="M53.3619 33.4881L43.5448 48.0907C40.1302 53.0298 28.6058 50.8824 17.7217 43.3663C15.5876 41.8631 13.6668 40.3599 11.7461 38.642C13.24 38.4272 15.1607 37.5682 17.0815 35.4208C20.4961 31.7702 22.2034 30.9112 23.6973 31.1259C25.1912 31.1259 26.8985 32.6291 29.6729 36.2798C32.4473 39.9304 36.2887 41.0042 38.6363 39.0715C38.8497 38.8567 39.0631 38.8567 39.2765 38.642C41.1973 37.1388 41.8375 36.4945 45.4655 29.6227C46.3192 27.9048 49.307 25.1131 53.3619 26.4015C54.4289 29.1932 54.4289 31.5554 53.3619 33.4881Z" fill="#0E0F23"/>
<path fill-rule="evenodd" clip-rule="evenodd" d="M51.8681 32.6324C48.8803 36.9273 38.423 34.7798 28.3926 27.6933C18.1487 20.6067 12.1731 11.5875 15.1609 7.29258C18.1487 2.9977 28.606 5.14514 38.6364 12.2317C48.6669 19.3183 54.6425 28.3375 51.8681 32.6324ZM42.4779 26.1901C40.984 28.3375 35.8621 27.2638 30.7401 23.8279C25.8316 20.392 22.8438 15.8823 24.3377 13.7349C25.8316 11.5875 30.9535 12.6612 36.0755 16.0971C40.984 19.533 43.9718 24.0426 42.4779 26.1901Z" fill="white"/>
<path d="M12.8146 11.1592C12.8146 10.9444 12.6012 10.7297 12.3878 10.9444C12.1744 11.1592 11.9609 11.1592 11.9609 11.3739C12.1744 12.0181 12.3878 12.4476 12.3878 12.8771C12.3878 13.0919 12.6012 13.3066 12.8146 13.0919C13.028 13.0919 13.2414 12.8771 13.028 12.6624C13.028 12.2329 13.028 11.8034 12.8146 11.1592Z" fill="white"/>
<path d="M13.8785 14.5947C13.8785 14.38 13.6651 14.1652 13.4517 14.38C13.2383 14.5947 13.2383 14.5947 13.2383 14.8095C15.5858 20.1781 20.4944 25.9762 26.8968 30.271C27.1102 30.4858 27.3236 30.271 27.537 30.271C27.7504 30.0563 27.537 29.8415 27.537 29.6268C20.9212 25.3319 16.2261 19.7486 13.8785 14.5947Z" fill="white"/>
<path d="M39.7042 35.6387C39.4908 35.6387 39.2773 35.6387 39.2773 35.8534C39.2773 36.0682 39.2773 36.2829 39.4908 36.2829C40.131 36.4976 40.9847 36.7124 41.6249 36.9271C41.8383 36.9271 42.0517 36.9271 42.0517 36.7124C42.0517 36.4976 42.0517 36.2829 41.8383 36.2829C41.1981 36.0682 40.3444 35.8534 39.7042 35.6387Z" fill="white"/>
<path d="M43.5479 36.498C43.3345 36.498 43.1211 36.7128 43.1211 36.9275C43.1211 37.1423 43.3345 37.357 43.5479 37.357C45.2552 37.5718 47.176 37.7865 48.6699 37.5718C48.8833 37.5718 49.0967 37.357 49.0967 37.1423C49.0967 36.9275 48.8833 36.7128 48.6699 36.7128C46.9626 36.9275 45.2552 36.7128 43.5479 36.498Z" fill="white"/>
<rect x="37.5" y="36.5" width="19" height="19" rx="9.5" fill="#101828"/>
<path d="M48.8071 45.4109L49.8347 43.6672L52.6045 47.9813L52.6058 48.8092L52.5968 43.1121C52.5902 42.9728 52.5163 42.8454 52.3983 42.7703L47.4116 39.9019C47.295 39.8446 47.147 39.8452 47.0306 39.9037C47.0149 39.9116 47.0001 39.9202 46.986 39.9295L46.9686 39.9404L42.1283 42.7454L42.1095 42.7539C42.0853 42.765 42.0609 42.7791 42.038 42.7955C41.9462 42.8614 41.8853 42.9587 41.8655 43.0679C41.8626 43.0844 41.8604 43.1013 41.8594 43.1182L41.867 47.7608L44.4469 43.762C44.7717 43.2318 45.4794 43.061 46.1364 43.0703L46.9075 43.0907L42.3643 50.3766L42.8999 50.6849L47.4975 43.098L49.5296 43.0907L44.9439 50.869L46.8548 51.9682L47.0832 52.0995C47.1797 52.1387 47.2936 52.1407 47.391 52.1056L52.4477 49.1751L51.4809 49.7353L48.8071 45.4109ZM49.1992 51.0577L47.269 48.0283L48.4472 46.029L50.9821 50.0244L49.1992 51.0577Z" fill="#2D374B"/>
<path d="M47.2695 48.0286L49.1997 51.0579L50.9827 50.0247L48.4478 46.0293L47.2695 48.0286Z" fill="#28A0F0"/>
<path d="M52.6073 48.8099L52.606 47.982L49.8362 43.668L48.8086 45.4116L51.4825 49.736L52.4492 49.1758C52.5441 49.0988 52.6014 48.9858 52.6075 48.8638L52.6073 48.8099Z" fill="#28A0F0"/>
<path d="M41 49.5903L42.3653 50.377L46.9085 43.091L46.1374 43.0707C45.4804 43.0614 44.7727 43.2322 44.4479 43.7624L41.868 47.7612L41 49.0948V49.5903H41Z" fill="white"/>
<path d="M49.5321 43.0898L47.5 43.0972L42.9023 50.6841L44.5093 51.6094L44.9463 50.8682L49.5321 43.0898Z" fill="white"/>
<path d="M53.4631 43.0806C53.4462 42.6556 53.2161 42.2665 52.8556 42.04L47.8036 39.1348C47.447 38.9552 47.0016 38.955 46.6445 39.1346C46.6023 39.1559 41.7315 41.9808 41.7315 41.9808C41.6641 42.0131 41.5992 42.0516 41.5381 42.0953C41.2163 42.3259 41.0201 42.6843 41 43.078V49.0948L41.868 47.7612L41.8604 43.1187C41.8614 43.1017 41.8635 43.085 41.8665 43.0685C41.8861 42.9593 41.9471 42.8618 42.039 42.796C42.0619 42.7796 47.0158 39.9121 47.0316 39.9041C47.1481 39.8457 47.296 39.845 47.4126 39.9024L52.3993 42.7708C52.5172 42.8459 52.5912 42.9733 52.5977 43.1126V48.8636C52.5917 48.9855 52.5435 49.0985 52.4487 49.1756L51.4819 49.7358L50.9831 50.0248L49.2001 51.0581L47.3919 52.106C47.2945 52.1412 47.1807 52.1392 47.0841 52.0999L44.9448 50.8695L44.5078 51.6106L46.4303 52.7175C46.4939 52.7537 46.5506 52.7857 46.597 52.8119C46.669 52.8522 46.718 52.8792 46.7354 52.8876C46.872 52.9539 47.0686 52.9926 47.2458 52.9926C47.4082 52.9926 47.5666 52.9628 47.7165 52.904L52.9684 49.8625C53.2698 49.629 53.4472 49.2768 53.4631 48.8952V43.0806Z" fill="#96BEDC"/>
<rect x="37.5" y="36.5" width="19" height="19" rx="9.5" stroke="#F9FAFB"/>
<defs>
<linearGradient id="paint0_linear_7740_498839" x1="21.442" y1="2.33525" x2="29.4046" y2="29.5086" gradientUnits="userSpaceOnUse">
<stop stop-color="#03B8FF"/>
<stop offset="1" stop-color="#FA52A0"/>
</linearGradient>
<linearGradient id="paint1_linear_7740_498839" x1="27.9328" y1="0.437075" x2="35.8957" y2="27.6107" gradientUnits="userSpaceOnUse">
<stop stop-color="#03B8FF"/>
<stop offset="1" stop-color="#FA52A0"/>
</linearGradient>
<linearGradient id="paint2_linear_7740_498839" x1="14.9835" y1="4.23124" x2="22.9463" y2="31.4048" gradientUnits="userSpaceOnUse">
<stop stop-color="#03B8FF"/>
<stop offset="1" stop-color="#FA52A0"/>
</linearGradient>
</defs>
</svg>
