<svg width="57" height="56" viewBox="0 0 57 56" fill="none" xmlns="http://www.w3.org/2000/svg">
<path d="M13.4967 6.21191L53.1918 33.4844L43.3747 48.087L3.67969 20.5998L13.4967 6.21191Z" fill="url(#paint0_linear_8295_158845)"/>
<path d="M53.2 33.4871C49.7854 38.4262 38.261 36.4935 27.3769 28.7627C16.2793 21.2466 10.3037 11.1537 13.5049 6.21455C16.9196 1.27544 28.4439 3.20813 39.328 10.9389C50.4256 18.2402 56.4012 28.5479 53.2 33.4871Z" fill="url(#paint1_linear_8295_158845)"/>
<path d="M43.3808 47.8761C39.9662 52.8152 28.4418 50.8825 17.5577 43.1518C6.67359 35.421 0.484574 25.5427 3.8992 20.3889C7.31383 15.4498 18.8382 17.3825 29.7223 25.1132C40.6065 32.844 46.5821 42.937 43.3808 47.8761Z" fill="url(#paint2_linear_8295_158845)"/>
<path d="M53.1939 33.4881L43.3769 48.0907C39.9622 53.0298 28.4379 50.8824 17.5537 43.3663C15.4196 41.8631 13.4989 40.3599 11.5781 38.642C13.072 38.4272 14.9928 37.5682 16.9135 35.4208C20.3281 31.7702 22.0354 30.9112 23.5293 31.1259C25.0232 31.1259 26.7305 32.6291 29.5049 36.2798C32.2793 39.9304 36.1208 41.0042 38.4683 39.0715C38.6817 38.8567 38.8951 38.8567 39.1086 38.642C41.0293 37.1388 41.6695 36.4945 45.2976 29.6227C46.1512 27.9048 49.139 25.1131 53.1939 26.4015C54.261 29.1932 54.261 31.5554 53.1939 33.4881Z" fill="#2D2D2D"/>
<path fill-rule="evenodd" clip-rule="evenodd" d="M51.7002 32.6324C48.7124 36.9273 38.2551 34.7798 28.2246 27.6933C17.9807 20.6067 12.0051 11.5875 14.9929 7.29258C17.9807 2.9977 28.438 5.14514 38.4685 12.2317C48.4989 19.3183 54.4745 28.3375 51.7002 32.6324ZM42.3099 26.1901C40.816 28.3375 35.6941 27.2638 30.5721 23.8279C25.6636 20.392 22.6758 15.8823 24.1697 13.7349C25.6636 11.5875 30.7856 12.6612 35.9075 16.0971C40.816 19.533 43.8038 24.0426 42.3099 26.1901Z" fill="white"/>
<path d="M12.6466 11.1592C12.6466 10.9444 12.4332 10.7297 12.2198 10.9444C12.0064 11.1592 11.793 11.1592 11.793 11.3739C12.0064 12.0181 12.2198 12.4476 12.2198 12.8771C12.2198 13.0919 12.4332 13.3066 12.6466 13.0919C12.86 13.0919 13.0735 12.8771 12.86 12.6624C12.86 12.2329 12.86 11.8034 12.6466 11.1592Z" fill="white"/>
<path d="M13.7106 14.5942C13.7106 14.3795 13.4971 14.1647 13.2837 14.3795C13.0703 14.5942 13.0703 14.5942 13.0703 14.809C15.4179 20.1776 20.3264 25.9757 26.7288 30.2705C26.9422 30.4853 27.1557 30.2705 27.3691 30.2705C27.5825 30.0558 27.3691 29.8411 27.3691 29.6263C20.7532 25.3314 16.0581 19.7481 13.7106 14.5942Z" fill="white"/>
<path d="M39.5362 35.6392C39.3228 35.6392 39.1094 35.6392 39.1094 35.8539C39.1094 36.0686 39.1094 36.2834 39.3228 36.2834C39.963 36.4981 40.8167 36.7129 41.4569 36.9276C41.6703 36.9276 41.8838 36.9276 41.8838 36.7129C41.8838 36.4981 41.8838 36.2834 41.6703 36.2834C41.0301 36.0686 40.1764 35.8539 39.5362 35.6392Z" fill="white"/>
<path d="M43.3819 36.499C43.1685 36.499 42.9551 36.7138 42.9551 36.9285C42.9551 37.1433 43.1685 37.358 43.3819 37.358C45.0892 37.5727 47.01 37.7875 48.5039 37.5727C48.7173 37.5727 48.9307 37.358 48.9307 37.1433C48.9307 36.9285 48.7173 36.7138 48.5039 36.7138C46.7965 36.9285 45.0892 36.7138 43.3819 36.499Z" fill="white"/>
<rect x="37.334" y="36.5" width="19" height="19" rx="9.5" fill="#475467"/>
<path d="M44.3159 45.1909L46.9315 42.5754L49.5485 45.1923L51.0704 43.6703L46.9315 39.5312L42.794 43.669L44.3159 45.1909ZM40.1973 46.2654L41.7193 44.7434L43.2412 46.2653L41.7192 47.7873L40.1973 46.2654ZM44.3159 47.3403L46.9315 49.9558L49.5484 47.339L51.0712 48.8602L51.0704 48.861L46.9315 53L42.7939 48.8624L42.7917 48.8602L44.3159 47.3403ZM50.6221 46.2662L52.1441 44.7442L53.666 46.2661L52.144 47.7881L50.6221 46.2662Z" fill="white"/>
<path d="M48.4756 46.2646H48.4762L46.9318 44.7202L45.7905 45.8616H45.7904L45.6593 45.9927L45.3889 46.2633L45.3867 46.2653L45.3889 46.2676L46.9318 47.8106L48.4762 46.2662L48.477 46.2653L48.4756 46.2646Z" fill="white"/>
<rect x="37.334" y="36.5" width="19" height="19" rx="9.5" stroke="#171717"/>
<defs>
<linearGradient id="paint0_linear_8295_158845" x1="21.274" y1="2.33428" x2="29.2366" y2="29.5076" gradientUnits="userSpaceOnUse">
<stop stop-color="#959595"/>
<stop offset="1" stop-color="#BABABA"/>
</linearGradient>
<linearGradient id="paint1_linear_8295_158845" x1="27.7648" y1="0.437075" x2="35.7277" y2="27.6107" gradientUnits="userSpaceOnUse">
<stop stop-color="#959595"/>
<stop offset="1" stop-color="#BABABA"/>
</linearGradient>
<linearGradient id="paint2_linear_8295_158845" x1="14.8175" y1="4.23173" x2="22.7803" y2="31.4053" gradientUnits="userSpaceOnUse">
<stop stop-color="#959595"/>
<stop offset="1" stop-color="#BABABA"/>
</linearGradient>
</defs>
</svg>
