<svg width="128" height="147" viewBox="0 0 128 147" fill="none" xmlns="http://www.w3.org/2000/svg">
<g filter="url(#filter0_d_515_306)">
<path d="M101.024 23.7227V92.908L64.5866 116.35L26.3771 92.908V23.7227H101.024Z" fill="#18181B"/>
</g>
<path d="M80.2826 23.7227H47.1191V57.7921H80.2826V23.7227Z" fill="#5524E1"/>
<path d="M103.641 97.1026L64.0006 121L24.3604 97.1026C25.3206 92.4879 27.0638 88.1606 29.4451 84.2693C36.563 72.6243 49.3747 64.8545 64.0006 64.8545C78.6264 64.8545 91.4381 72.6243 98.556 84.2693C100.937 88.1606 102.681 92.4879 103.641 97.1026Z" fill="#EFE562"/>
<path d="M93.2355 21.3584L84.3647 27.8171H98.5555V92.6331L64 113.462L29.4445 92.6331V27.8171H43.6321L34.7645 21.3584H23V96.2822L24.3598 97.1025L64 121L103.64 97.1025L105 96.2822V21.3584H93.2355Z" fill="#EFE562"/>
<path d="M64.0003 0L69.8745 18.123H88.8891L73.506 29.3256L79.3834 47.4486L64.0003 36.2461L48.6173 47.4486L54.4915 29.3256L39.1084 18.123H58.1229L64.0003 0Z" fill="#EFE562"/>
<path d="M65.0003 78.8833V71.6689L61.4075 75.26L60.7211 75.951L53.1714 83.4915C52.6397 84.0244 52.6333 84.8899 53.1585 85.4291L58.1723 90.5767L65.0035 97.6037V91.3776C65.0035 90.722 64.7489 90.0891 64.2978 89.6176L61.2463 86.4367C60.2281 85.3775 60.241 83.6885 61.2753 82.6455L65.0035 78.8833H65.0003Z" fill="#18181B"/>
<path d="M65.735 86.8526C65.2645 86.3779 65.0003 85.7352 65.0003 85.0635V78.8955L68.5931 82.4865L69.2794 83.1776L76.8292 90.7181C77.3609 91.251 77.3673 92.1164 76.8421 92.6557L71.8283 97.8033L64.9971 104.83V97.5804L68.7574 93.6633C69.7757 92.604 69.7628 90.9151 68.7284 89.872L65.7317 86.8494L65.735 86.8526Z" fill="#18181B"/>
<path d="M27.9299 74.4008L23.7764 70.8227C33.8685 59.055 48.5297 52.3057 63.9998 52.3057C79.4699 52.3057 93.0259 58.5706 103.044 69.4922L99.0096 73.2059C90.026 63.4113 77.2658 57.7923 63.9998 57.7923C50.7338 57.7923 36.9812 63.8441 27.9299 74.3975V74.4008Z" fill="#EFE562"/>
<path d="M94.473 41.8523C89.0629 41.9492 88.9855 42.0267 88.8889 47.4487C88.7922 42.0267 88.7149 41.9492 83.3047 41.8523C88.7149 41.7554 88.7922 41.6779 88.8889 36.2559C88.9855 41.6779 89.0629 41.7554 94.473 41.8523Z" fill="#EFE562"/>
<path d="M83.3077 80.6753C77.8976 80.7722 77.8202 80.8497 77.7236 86.2717C77.6269 80.8497 77.5496 80.7722 72.1394 80.6753C77.5496 80.5784 77.6269 80.5009 77.7236 75.0789C77.8202 80.5009 77.8976 80.5784 83.3077 80.6753Z" fill="#18181B"/>
<path d="M57.3462 92.9273C51.936 93.0241 51.8587 93.1016 51.762 98.5237C51.6654 93.1016 51.588 93.0241 46.1779 92.9273C51.588 92.8304 51.6654 92.7529 51.762 87.3308C51.8587 92.7529 51.936 92.8304 57.3462 92.9273Z" fill="#18181B"/>
<path d="M44.6928 41.8523C39.2826 41.9492 39.2053 42.0267 39.1086 47.4487C39.0119 42.0267 38.9346 41.9492 33.5244 41.8523C38.9346 41.7554 39.0119 41.6779 39.1086 36.2559C39.2053 41.6779 39.2826 41.7554 44.6928 41.8523Z" fill="#EFE562"/>
<defs>
<filter id="filter0_d_515_306" x="0.077076" y="1.42266" width="127.247" height="145.227" filterUnits="userSpaceOnUse" color-interpolation-filters="sRGB">
<feFlood flood-opacity="0" result="BackgroundImageFix"/>
<feColorMatrix in="SourceAlpha" type="matrix" values="0 0 0 0 0 0 0 0 0 0 0 0 0 0 0 0 0 0 127 0" result="hardAlpha"/>
<feOffset dy="4"/>
<feGaussianBlur stdDeviation="13.15"/>
<feComposite in2="hardAlpha" operator="out"/>
<feColorMatrix type="matrix" values="0 0 0 0 0 0 0 0 0 0 0 0 0 0 0 0 0 0 1 0"/>
<feBlend mode="normal" in2="BackgroundImageFix" result="effect1_dropShadow_515_306"/>
<feBlend mode="normal" in="SourceGraphic" in2="effect1_dropShadow_515_306" result="shape"/>
</filter>
</defs>
</svg>
