<svg width="56" height="56" viewBox="0 0 56 56" fill="none" xmlns="http://www.w3.org/2000/svg">
<path d="M22.4753 12.7416C21.8738 12.6521 21.8404 12.6297 22.13 12.5961C22.6758 12.5065 23.9456 12.6297 24.8367 12.8312C26.9084 13.3238 28.7685 14.5889 30.7511 16.8168L31.2635 17.4214L32.0098 17.3094C35.1954 16.7944 38.4701 17.1974 41.2101 18.4625C41.9564 18.8096 43.137 19.5037 43.2818 19.6717C43.3375 19.7276 43.4266 20.1083 43.4823 20.4777C43.6828 21.8324 43.5937 22.8512 43.1705 23.6237C42.9366 24.0603 42.9366 24.1723 43.0814 24.5529C43.1927 24.844 43.538 25.0455 43.861 25.0455C44.5516 25.0455 45.2645 23.9483 45.6098 22.4146L45.7546 21.81L46.0108 22.1011C47.481 23.7468 48.6283 26.0307 48.7954 27.6429L48.851 28.0795L48.5949 27.6988C48.1605 27.0383 47.7595 26.6017 47.2137 26.221C46.2335 25.5605 45.1977 25.359 42.4687 25.2134C39.996 25.0679 38.5926 24.8664 37.2114 24.4074C34.8501 23.6237 33.6471 22.6161 30.8625 18.888C29.6262 17.2422 28.8465 16.3466 28.0779 15.5965C26.3849 13.9507 24.6807 13.0887 22.4753 12.7416Z" fill="#FF007A"/>
<path d="M43.885 16.4018C43.9407 15.3047 44.0855 14.577 44.3974 13.9164C44.5087 13.6589 44.6313 13.4238 44.6535 13.4238C44.687 13.4238 44.6201 13.6253 44.5422 13.8605C44.3083 14.4986 44.286 15.3942 44.4308 16.4018C44.6313 17.7005 44.7204 17.8796 46.1015 19.2903C46.7364 19.9508 47.4827 20.7905 47.7723 21.1375L48.2624 21.7757L47.7723 21.3167C47.1708 20.7345 45.7897 19.6373 45.4778 19.4918C45.2773 19.3798 45.2439 19.3798 45.0991 19.5254C44.9877 19.6373 44.9543 19.8165 44.9543 20.6561C44.9209 21.9548 44.7538 22.7609 44.3194 23.6006C44.0855 24.0372 44.0632 23.9476 44.2637 23.455C44.4085 23.0744 44.4308 22.9064 44.4308 21.6637C44.4308 19.1559 44.1412 18.5402 42.3924 17.5326C41.9581 17.2751 41.2118 16.8944 40.7885 16.6929C40.3318 16.4914 39.9866 16.3123 40.0088 16.3123C40.0645 16.2563 41.7576 16.7489 42.4259 17.0288C43.4283 17.4318 43.6065 17.4654 43.7179 17.4318C43.7959 17.3647 43.8516 17.1295 43.885 16.4018Z" fill="#FF007A"/>
<path d="M23.6545 20.7146C22.4515 19.0352 21.6718 16.4379 21.8389 14.501L21.8946 13.8965L22.1842 13.9525C22.6966 14.042 23.5876 14.3891 24.022 14.6466C25.1693 15.3407 25.6928 16.2923 26.1717 18.6658C26.3165 19.3599 26.517 20.166 26.6061 20.4235C26.7509 20.8601 27.2967 21.8677 27.7534 22.5058C28.0653 22.9649 27.8648 23.2 27.1519 23.144C26.0603 23.0208 24.6012 22.0132 23.6545 20.7146Z" fill="#FF007A"/>
<path d="M42.4115 33.273C36.7198 30.9668 34.7148 28.974 34.7148 25.5929C34.7148 25.1003 34.7483 24.6973 34.7483 24.6973C34.7817 24.6973 34.9822 24.8652 35.2383 25.0779C36.3856 26.0071 37.6777 26.4102 41.2754 26.9252C43.3694 27.2386 44.5835 27.4738 45.675 27.8544C49.1502 29.0075 51.3111 31.381 51.8234 34.5829C51.9682 35.5121 51.8791 37.2698 51.6563 38.1879C51.4559 38.9044 50.8767 40.2366 50.7319 40.2702C50.6984 40.2702 50.6428 40.1247 50.6428 39.8896C50.5871 38.6805 49.9856 37.5161 48.972 36.6205C47.7579 35.5905 46.2097 34.8068 42.4115 33.273Z" fill="#FF007A"/>
<path d="M38.3932 34.2239C38.3375 33.7872 38.1927 33.2387 38.1036 33.0147L37.9588 32.5781L38.215 32.8916C38.5937 33.3282 38.8721 33.8432 39.1395 34.5709C39.3399 35.1195 39.34 35.2874 39.34 36.1831C39.34 37.0451 39.3065 37.2467 39.1395 37.7393C38.8499 38.5229 38.5046 39.0715 37.9365 39.6761C36.9006 40.7397 35.5529 41.3218 33.626 41.5793C33.2807 41.6129 32.3005 41.6913 31.4428 41.7473C29.2931 41.8592 27.8563 42.0943 26.5531 42.5533C26.386 42.6093 26.2078 42.6653 26.1744 42.6429C26.1187 42.5869 27.0097 42.0607 27.7226 41.7137C28.7251 41.2211 29.7609 40.9636 32.0332 40.5605C33.1581 40.3926 34.3054 40.1575 34.595 40.0455C37.4464 39.1611 38.8499 36.9444 38.3932 34.2239Z" fill="#FF007A"/>
<path d="M41.0104 38.8829C40.2641 37.2372 40.0859 35.681 40.498 34.2032C40.5537 34.0577 40.6094 33.9121 40.6651 33.9121C40.7208 33.9121 40.899 34.0017 41.066 34.1136C41.4113 34.3487 42.1242 34.7518 43.9732 35.7594C46.3011 37.0357 47.6266 38.0097 48.5399 39.1404C49.3419 40.1256 49.832 41.2452 50.0659 42.6334C50.2107 43.4171 50.1216 45.2868 49.9211 46.0704C49.2862 48.5223 47.8493 50.4927 45.7553 51.6122C45.4434 51.7802 45.1761 51.9033 45.1538 51.9033C45.1316 51.9033 45.2429 51.6122 45.41 51.2652C46.1006 49.7874 46.1897 48.3767 45.6662 46.787C45.3543 45.8018 44.686 44.6262 43.3717 42.6222C41.7789 40.3271 41.4113 39.7114 41.0104 38.8829Z" fill="#FF007A"/>
<path d="M19.6015 47.7147C21.7289 45.9234 24.3464 44.6583 26.7523 44.2441C27.7882 44.0762 29.5146 44.1322 30.4614 44.3897C31.9874 44.7927 33.3685 45.6659 34.0814 46.7295C34.772 47.7707 35.0838 48.6663 35.4069 50.6591C35.5182 51.4428 35.663 52.2489 35.6965 52.4168C35.9304 53.458 36.387 54.2641 36.9662 54.7007C37.8573 55.3613 39.4055 55.3949 40.9315 54.8127C41.1877 54.7231 41.4216 54.6447 41.4216 54.6671C41.4773 54.7231 40.7087 55.2493 40.1852 55.5068C39.4724 55.8875 38.8932 55.9994 38.1135 55.9994C36.7323 55.9994 35.5517 55.2829 34.6049 53.8387C34.4044 53.5476 34.0034 52.7079 33.6581 51.9354C32.6557 49.5956 32.1322 48.9014 30.9515 48.1178C29.9156 47.4572 28.5902 47.3117 27.5877 47.8043C26.2622 48.4424 25.9169 50.1442 26.8414 51.1853C27.2201 51.622 27.8996 51.969 28.4788 52.0474C29.5369 52.1929 30.4614 51.3533 30.4614 50.2897C30.4614 49.5956 30.2052 49.1925 29.5146 48.8791C28.5902 48.476 27.5877 48.935 27.6211 49.8307C27.6211 50.2113 27.7882 50.4352 28.1669 50.6144C28.4008 50.7263 28.4008 50.7263 28.2226 50.7039C27.3872 50.536 27.1867 49.4948 27.8439 48.8231C28.6459 48.017 30.3389 48.3641 30.9181 49.4836C31.152 49.9426 31.1743 50.8719 30.9738 51.4428C30.4837 52.7191 29.1025 53.3797 27.6991 52.999C26.7523 52.7415 26.3513 52.484 25.2041 51.2973C23.188 49.2149 22.4195 48.8119 19.5458 48.3753L19 48.2857L19.6015 47.7147Z" fill="#FF007A"/>
<path fill-rule="evenodd" clip-rule="evenodd" d="M4.48187 1.2427C11.176 9.41543 21.4902 22.1224 22.0137 22.8165C22.4481 23.3986 22.2699 23.9472 21.557 24.3503C21.156 24.5854 20.3207 24.8093 19.9197 24.8093C19.463 24.8093 18.9172 24.5742 18.5385 24.2047C18.2823 23.9472 17.1574 22.3015 14.6289 18.3383C12.702 15.3043 11.0647 12.7965 11.0424 12.7629C10.931 12.7069 10.931 12.7069 14.4285 18.9988C16.645 22.9508 17.3579 24.3726 17.3579 24.5406C17.3579 24.9212 17.2465 25.1227 16.7787 25.6377C15.999 26.4998 15.6537 27.485 15.3975 29.5338C15.1079 31.8177 14.3393 33.4298 12.1228 36.1727C10.8308 37.7849 10.6303 38.076 10.3072 38.7477C9.90627 39.5538 9.79488 40.024 9.72805 41.054C9.67236 42.1511 9.78374 42.8453 10.1068 43.8864C10.3964 44.8157 10.7082 45.4202 11.4879 46.607C12.1451 47.6481 12.5461 48.4318 12.5461 48.7117C12.5461 48.9468 12.6018 48.9468 13.6376 48.7117C16.1104 48.1295 18.1487 47.1555 19.2737 45.9352C19.9642 45.1851 20.1313 44.7821 20.1313 43.7409C20.1313 43.0804 20.0979 42.9348 19.9308 42.5318C19.6412 41.8936 19.0954 41.3786 17.9148 40.5726C16.3665 39.509 15.6982 38.6357 15.5312 37.4826C15.3864 36.4974 15.5646 35.8369 16.4222 34.012C17.3133 32.1311 17.5472 31.3587 17.692 29.4442C17.7811 28.2351 17.9259 27.7425 18.2712 27.3619C18.6499 26.9588 18.9618 26.8133 19.8529 26.7013C21.3231 26.4998 22.2699 26.1192 23.0162 25.4026C23.6733 24.7981 23.9629 24.1935 23.9963 23.2979L24.0298 22.6373L23.6511 22.2343C22.2922 20.6781 3.59079 0 3.50169 0C3.46827 0 3.93608 0.548581 4.48187 1.2427ZM13.3035 42.3191C13.6154 41.7705 13.4483 41.0764 12.9248 40.7293C12.4347 40.4158 11.6884 40.5614 11.6884 40.9868C11.6884 41.0988 11.7441 41.2219 11.9223 41.2779C12.1785 41.4234 12.2119 41.569 12.0114 41.8824C11.8109 42.1959 11.8109 42.487 12.0671 42.6885C12.4681 43.0132 13.0139 42.8341 13.3035 42.3191Z" fill="#FF007A"/>
<path fill-rule="evenodd" clip-rule="evenodd" d="M24.9446 27.1266C24.254 27.3282 23.5969 28.0783 23.3964 28.8284C23.285 29.2874 23.3407 30.127 23.5412 30.3845C23.8531 30.7876 24.1427 30.8995 24.9446 30.8995C26.5263 30.8995 27.874 30.2054 28.0188 29.3657C28.1636 28.6716 27.5622 27.72 26.7268 27.2834C26.2924 27.0595 25.4013 26.9811 24.9446 27.1266ZM26.7825 28.5709C27.0164 28.2238 26.9273 27.8543 26.4929 27.5857C25.7132 27.093 24.5436 27.4961 24.5436 28.2462C24.5436 28.6268 25.1451 29.0299 25.7243 29.0299C26.0919 29.0299 26.6042 28.7948 26.7825 28.5709Z" fill="#FF007A"/>
<rect x="36.5" y="36.5" width="19" height="19" rx="9.5" fill="#101828"/>
<path d="M46.0159 39L45.9219 39.3192V48.5812L46.0159 48.6749L50.3151 46.1336L46.0159 39Z" fill="#C7C7C7"/>
<path d="M46.0103 39L41.7109 46.1336L46.0103 48.6749V44.1794V39Z" fill="white"/>
<path d="M46.0061 49.5029L45.9531 49.5675V52.8667L46.0061 53.0213L50.3079 46.9629L46.0061 49.5029Z" fill="#D0D0CF"/>
<path d="M46.0103 53.0213V49.5029L41.7109 46.9629L46.0103 53.0213Z" fill="white"/>
<path d="M46.0039 48.6674L50.3031 46.1261L46.0039 44.1719V48.6674Z" fill="#A7A7A7"/>
<path d="M41.7109 46.1261L46.0103 48.6674V44.1719L41.7109 46.1261Z" fill="#CCCCCC"/>
<rect x="36.5" y="36.5" width="19" height="19" rx="9.5" stroke="#F9FAFB"/>
</svg>
