<svg width="24" height="24" viewBox="0 0 24 24" fill="none" xmlns="http://www.w3.org/2000/svg">
<rect x="0.375" y="0.375" width="23.25" height="23.25" rx="11.625" fill="#50AF95"/>
<rect x="0.375" y="0.375" width="23.25" height="23.25" rx="11.625" stroke="white" stroke-width="0.75"/>
<path fill-rule="evenodd" clip-rule="evenodd" d="M13.8247 13.257C13.7437 13.2632 13.3254 13.2889 12.3922 13.2889C11.65 13.2889 11.123 13.266 10.9381 13.257C8.06977 13.1272 5.9288 12.6136 5.9288 11.9988C5.9288 11.3839 8.06977 10.871 10.9381 10.7392V12.7455C11.1257 12.7594 11.6628 12.792 12.405 12.792C13.2957 12.792 13.7417 12.7538 13.822 12.7462V10.7406C16.6843 10.8717 18.8205 11.3853 18.8205 11.9988C18.8205 12.6122 16.685 13.1258 13.822 13.2563L13.8247 13.257ZM13.8247 10.5331V8.73775H17.8192V6H6.94362V8.73775H10.9374V10.5324C7.69124 10.6858 5.25 11.3471 5.25 12.1396C5.25 12.9322 7.69124 13.5928 10.9374 13.7469V19.5H13.824V13.7448C17.0628 13.5915 19.5 12.9308 19.5 12.139C19.5 11.3471 17.0648 10.6864 13.824 10.5324L13.8247 10.5331Z" fill="white"/>
</svg>
