<svg xmlns="http://www.w3.org/2000/svg" xmlns:xlink="http://www.w3.org/1999/xlink" xml:space="preserve" id="Layer_1" x="0" y="0" version="1.1" viewBox="0 0 2500 2500">  
  <g id="Layer_x0020_1">
    <defs>
      <path id="SVGID_1_" d="M1250 2500C559.6 2500 0 1940.4 0 1250S559.6 0 1250 0s1250 559.6 1250 1250-559.6 1250-1250 1250z"/>
    </defs>
    <clipPath id="SVGID_00000137130877621503601290000017679510272143242652_">
      <use xlink:href="#SVGID_1_" overflow="visible"/>
    </clipPath>
    <g clip-path="url(#SVGID_00000137130877621503601290000017679510272143242652_)">
      <path fill="#fefeff" fill-rule="evenodd" d="m1250 1250-1768-10.9 1.6-65z" clip-rule="evenodd"/>
      <path id="_1" fill="#fdfeff" fill-rule="evenodd" d="m1250 1250-1766.7-65.1 2.7-54.2z" clip-rule="evenodd"/>
      <path id="_2" fill="#fcfdff" fill-rule="evenodd" d="m1250 1250-1764.6-108.4 4-54.1z" clip-rule="evenodd"/>
      <path id="_3" fill="#fbfcff" fill-rule="evenodd" d="m1250 1250-1761.4-151.7 5.3-54z" clip-rule="evenodd"/>
      <path id="_4" fill="#fafcff" fill-rule="evenodd" d="m1250 1250-1757.1-194.9 6.6-53.8z" clip-rule="evenodd"/>
      <path id="_5" fill="#f9fbff" fill-rule="evenodd" d="m1250 1250-1751.8-237.9 7.9-53.7z" clip-rule="evenodd"/>
      <path id="_6" fill="#f8faff" fill-rule="evenodd" d="M1250 1250-495.4 969.1l9.2-53.4z" clip-rule="evenodd"/>
      <path id="_7" fill="#f7faff" fill-rule="evenodd" d="M1250 1250-488 926.4l10.5-53.2z" clip-rule="evenodd"/>
      <path id="_8" fill="#f6f9ff" fill-rule="evenodd" d="M1250 1250-479.6 883.9l11.9-53z" clip-rule="evenodd"/>
      <path id="_9" fill="#f5f8ff" fill-rule="evenodd" d="M1250 1250-470.1 841.5l13.2-52.6z" clip-rule="evenodd"/>
      <path id="_10" fill="#f4f8ff" fill-rule="evenodd" d="M1250 1250-459.5 799.4l14.4-52.3z" clip-rule="evenodd"/>
      <path id="_11" fill="#f3f7ff" fill-rule="evenodd" d="M1250 1250-448 757.6l15.8-51.9z" clip-rule="evenodd"/>
      <path id="_12" fill="#f2f6ff" fill-rule="evenodd" d="M1250 1250-435.4 716.1l17.1-51.5z" clip-rule="evenodd"/>
      <path id="_13" fill="#f1f6ff" fill-rule="evenodd" d="M1250 1250-421.8 674.9l18.3-51.1z" clip-rule="evenodd"/>
      <path id="_14" fill="#f0f5ff" fill-rule="evenodd" d="M1250 1250-407.1 634l19.5-50.6z" clip-rule="evenodd"/>
      <path id="_15" fill="#eff4ff" fill-rule="evenodd" d="M1250 1250-391.5 593.5l20.7-50.1z" clip-rule="evenodd"/>
      <path id="_16" fill="#eef3ff" fill-rule="evenodd" d="M1250 1250-374.9 553.4l22-49.5z" clip-rule="evenodd"/>
      <path id="_17" fill="#edf3ff" fill-rule="evenodd" d="M1250 1250-357.3 513.8l23.2-49z" clip-rule="evenodd"/>
      <path id="_18" fill="#ecf2ff" fill-rule="evenodd" d="M1250 1250-338.8 474.6l24.4-48.5z" clip-rule="evenodd"/>
      <path id="_19" fill="#ebf1ff" fill-rule="evenodd" d="M1250 1250-319.3 435.8l25.6-47.8z" clip-rule="evenodd"/>
      <path id="_20" fill="#eaf1ff" fill-rule="evenodd" d="M1250 1250-298.8 397.6l26.7-47.3z" clip-rule="evenodd"/>
      <path id="_21" fill="#e9f0ff" fill-rule="evenodd" d="M1250 1250-277.4 359.8l27.9-46.5z" clip-rule="evenodd"/>
      <path id="_22" fill="#e8efff" fill-rule="evenodd" d="M1250 1250-255.1 322.6l29-45.9z" clip-rule="evenodd"/>
      <path id="_23" fill="#e7efff" fill-rule="evenodd" d="M1250 1250-231.9 285.9l30.2-45.1z" clip-rule="evenodd"/>
      <path id="_24" fill="#e6eeff" fill-rule="evenodd" d="M1250 1250-207.8 249.8l31.2-44.3z" clip-rule="evenodd"/>
      <path id="_25" fill="#e5edff" fill-rule="evenodd" d="M1250 1250-182.8 214.4l32.3-43.6z" clip-rule="evenodd"/>
      <path id="_26" fill="#e4edff" fill-rule="evenodd" d="M1250 1250-157 179.5l33.4-42.8z" clip-rule="evenodd"/>
      <path id="_27" fill="#e3ecff" fill-rule="evenodd" d="M1250 1250-130.3 145.3l34.4-41.9z" clip-rule="evenodd"/>
      <path id="_28" fill="#e2ebff" fill-rule="evenodd" d="M1250 1250-102.7 111.8l35.4-41.1z" clip-rule="evenodd"/>
      <path id="_29" fill="#e1ebff" fill-rule="evenodd" d="M1250 1250-74.4 78.9-38 38.7z" clip-rule="evenodd"/>
      <path id="_30" fill="#e0eaff" fill-rule="evenodd" d="M1250 1250-45.3 46.8-7.9 7.5z" clip-rule="evenodd"/>
      <path id="_31" fill="#dfe9ff" fill-rule="evenodd" d="M1250 1250-15.4 15.4 23-23z" clip-rule="evenodd"/>
      <path id="_32" fill="#dee9ff" fill-rule="evenodd" d="M1250 1250 15.4-15.4l39.2-37.3z" clip-rule="evenodd"/>
      <path id="_33" fill="#dde8ff" fill-rule="evenodd" d="M1250 1250 46.8-45.3 87-81.7z" clip-rule="evenodd"/>
      <path id="_34" fill="#dce7ff" fill-rule="evenodd" d="M1250 1250 78.9-74.4l41.1-35.4z" clip-rule="evenodd"/>
      <path id="_35" fill="#dbe7ff" fill-rule="evenodd" d="M1250 1250 111.8-102.7l41.9-34.4z" clip-rule="evenodd"/>
      <path id="_36" fill="#dae6ff" fill-rule="evenodd" d="M1250 1250 145.3-130.3l42.8-33.3z" clip-rule="evenodd"/>
      <path id="_37" fill="#d9e5ff" fill-rule="evenodd" d="M1250 1250 179.5-157l43.6-32.3z" clip-rule="evenodd"/>
      <path id="_38" fill="#d8e5ff" fill-rule="evenodd" d="M1250 1250 214.4-182.8l44.3-31.2z" clip-rule="evenodd"/>
      <path id="_39" fill="#d7e4ff" fill-rule="evenodd" d="M1250 1250 249.8-207.8l45.1-30.1z" clip-rule="evenodd"/>
      <path id="_40" fill="#d6e3ff" fill-rule="evenodd" d="M1250 1250 285.9-231.9l45.9-29z" clip-rule="evenodd"/>
      <path id="_41" fill="#d5e3ff" fill-rule="evenodd" d="M1250 1250 322.6-255.1l46.5-27.9z" clip-rule="evenodd"/>
      <path id="_42" fill="#d4e2ff" fill-rule="evenodd" d="M1250 1250 359.8-277.4l47.2-26.7z" clip-rule="evenodd"/>
      <path id="_43" fill="#d3e1ff" fill-rule="evenodd" d="M1250 1250 397.6-298.8l47.8-25.6z" clip-rule="evenodd"/>
      <path id="_44" fill="#d2e0ff" fill-rule="evenodd" d="M1250 1250 435.8-319.3l48.5-24.3z" clip-rule="evenodd"/>
      <path id="_45" fill="#d1e0ff" fill-rule="evenodd" d="M1250 1250 474.6-338.8l49-23.1z" clip-rule="evenodd"/>
      <path id="_46" fill="#d0dfff" fill-rule="evenodd" d="M1250 1250 513.8-357.3l49.6-22z" clip-rule="evenodd"/>
      <path id="_47" fill="#cfdeff" fill-rule="evenodd" d="M1250 1250 553.4-374.9l50.2-20.8z" clip-rule="evenodd"/>
      <path id="_48" fill="#cedeff" fill-rule="evenodd" d="M1250 1250 593.5-391.5l50.7-19.5z" clip-rule="evenodd"/>
      <path id="_49" fill="#cdddff" fill-rule="evenodd" d="M1250 1250 634-407.1l51.1-18.3z" clip-rule="evenodd"/>
      <path id="_50" fill="#ccdcff" fill-rule="evenodd" d="M1250 1250 674.9-421.8l51.5-16.9z" clip-rule="evenodd"/>
      <path id="_51" fill="#cbdcff" fill-rule="evenodd" d="M1250 1250 716.1-435.4l51.9-15.7z" clip-rule="evenodd"/>
      <path id="_52" fill="#cadbff" fill-rule="evenodd" d="M1250 1250 757.6-448l52.3-14.4z" clip-rule="evenodd"/>
      <path id="_53" fill="#c9daff" fill-rule="evenodd" d="M1250 1250 799.4-459.5l52.6-13.2z" clip-rule="evenodd"/>
      <path id="_54" fill="#c8daff" fill-rule="evenodd" d="M1250 1250 841.5-470.1l52.9-11.8z" clip-rule="evenodd"/>
      <path id="_55" fill="#c7d9ff" fill-rule="evenodd" d="M1250 1250 883.9-479.6l53.1-10.5z" clip-rule="evenodd"/>
      <path id="_56" fill="#c6d8ff" fill-rule="evenodd" d="M1250 1250 926.4-488l53.4-9.3z" clip-rule="evenodd"/>
      <path id="_57" fill="#c5d8ff" fill-rule="evenodd" d="M1250 1250 969.1-495.4l53.7-8z" clip-rule="evenodd"/>
      <path id="_58" fill="#c4d7ff" fill-rule="evenodd" d="M1250 1250 1012.1-501.8l53.8-6.6z" clip-rule="evenodd"/>
      <path id="_59" fill="#c3d6ff" fill-rule="evenodd" d="M1250 1250 1055.1-507.1l54-5.3z" clip-rule="evenodd"/>
      <path id="_60" fill="#c2d6ff" fill-rule="evenodd" d="M1250 1250 1098.3-511.4l54.1-4z" clip-rule="evenodd"/>
      <path id="_61" fill="#c1d5ff" fill-rule="evenodd" d="M1250 1250 1141.6-514.6l54.2-2.6z" clip-rule="evenodd"/>
      <path id="_62" fill="#c0d4ff" fill-rule="evenodd" d="m1250 1250-65.1-1766.7 54.2-1.3z" clip-rule="evenodd"/>
      <path id="_63" fill="#bfd4ff" fill-rule="evenodd" d="m1250 1250-21.7-1767.8h54.2z" clip-rule="evenodd"/>
      <path id="_64" fill="#bed3ff" fill-rule="evenodd" d="m1250 1250 21.7-1767.8 54.2 1.4z" clip-rule="evenodd"/>
      <path id="_65" fill="#bdd2ff" fill-rule="evenodd" d="m1250 1250 65.1-1766.7 54.1 2.7z" clip-rule="evenodd"/>
      <path id="_66" fill="#bcd2ff" fill-rule="evenodd" d="m1250 1250 108.4-1764.6 54.1 4z" clip-rule="evenodd"/>
      <path id="_67" fill="#bbd1ff" fill-rule="evenodd" d="m1250 1250 151.7-1761.4 54 5.3z" clip-rule="evenodd"/>
      <path id="_68" fill="#bad0ff" fill-rule="evenodd" d="m1250 1250 194.8-1757.1 53.9 6.6z" clip-rule="evenodd"/>
      <path id="_69" fill="#b9d0ff" fill-rule="evenodd" d="m1250 1250 237.9-1751.8 53.7 7.9z" clip-rule="evenodd"/>
      <path id="_70" fill="#b8cfff" fill-rule="evenodd" d="m1250 1250 280.8-1745.4 53.5 9.2z" clip-rule="evenodd"/>
      <path id="_71" fill="#b7ceff" fill-rule="evenodd" d="m1250 1250 323.6-1738 53.2 10.5z" clip-rule="evenodd"/>
      <path id="_72" fill="#b6cdff" fill-rule="evenodd" d="m1250 1250 366.1-1729.6 53 11.9z" clip-rule="evenodd"/>
      <path id="_73" fill="#b5cdff" fill-rule="evenodd" d="m1250 1250 408.5-1720.1 52.6 13.2z" clip-rule="evenodd"/>
      <path id="_74" fill="#b4ccff" fill-rule="evenodd" d="m1250 1250 450.6-1709.5 52.2 14.4z" clip-rule="evenodd"/>
      <path id="_75" fill="#b3cbff" fill-rule="evenodd" d="m1250 1250 492.4-1698 51.9 15.8z" clip-rule="evenodd"/>
      <path id="_76" fill="#b2cbff" fill-rule="evenodd" d="m1250 1250 533.9-1685.4 51.5 17.1z" clip-rule="evenodd"/>
      <path id="_77" fill="#b1caff" fill-rule="evenodd" d="m1250 1250 575.1-1671.8 51.1 18.3z" clip-rule="evenodd"/>
      <path id="_78" fill="#b0c9ff" fill-rule="evenodd" d="m1250 1250 616-1657.1 50.6 19.5z" clip-rule="evenodd"/>
      <path id="_79" fill="#afc9ff" fill-rule="evenodd" d="m1250 1250 656.4-1641.5 50.2 20.7z" clip-rule="evenodd"/>
      <path id="_80" fill="#aec8ff" fill-rule="evenodd" d="m1250 1250 696.5-1624.9 49.6 22z" clip-rule="evenodd"/>
      <path id="_81" fill="#adc7ff" fill-rule="evenodd" d="m1250 1250 736.2-1607.3 49 23.2z" clip-rule="evenodd"/>
      <path id="_82" fill="#acc7ff" fill-rule="evenodd" d="m1250 1250 775.4-1588.8 48.5 24.4z" clip-rule="evenodd"/>
      <path id="_83" fill="#abc6ff" fill-rule="evenodd" d="m1250 1250 814.2-1569.3 47.8 25.6z" clip-rule="evenodd"/>
      <path id="_84" fill="#aac5ff" fill-rule="evenodd" d="m1250 1250 852.4-1548.8 47.3 26.7z" clip-rule="evenodd"/>
      <path id="_85" fill="#a9c5ff" fill-rule="evenodd" d="m1250 1250 890.2-1527.4 46.5 27.9z" clip-rule="evenodd"/>
      <path id="_86" fill="#a8c4ff" fill-rule="evenodd" d="m1250 1250 927.4-1505.1 45.8 29z" clip-rule="evenodd"/>
      <path id="_87" fill="#a7c3ff" fill-rule="evenodd" d="m1250 1250 964.1-1481.9 45.1 30.2z" clip-rule="evenodd"/>
      <path id="_88" fill="#a6c3ff" fill-rule="evenodd" d="M1250 1250 2250.2-207.8l44.3 31.2z" clip-rule="evenodd"/>
      <path id="_89" fill="#a5c2ff" fill-rule="evenodd" d="M1250 1250 2285.6-182.8l43.6 32.3z" clip-rule="evenodd"/>
      <path id="_90" fill="#a4c1ff" fill-rule="evenodd" d="M1250 1250 2320.5-157l42.7 33.4z" clip-rule="evenodd"/>
      <path id="_91" fill="#a3c1ff" fill-rule="evenodd" d="M1250 1250 2354.7-130.3l41.9 34.4z" clip-rule="evenodd"/>
      <path id="_92" fill="#a2c0ff" fill-rule="evenodd" d="M1250 1250 2388.2-102.7l41.1 35.4z" clip-rule="evenodd"/>
      <path id="_93" fill="#a1bfff" fill-rule="evenodd" d="M1250 1250 2421.1-74.4l40.2 36.4z" clip-rule="evenodd"/>
      <path id="_94" fill="#a0bfff" fill-rule="evenodd" d="M1250 1250 2453.2-45.3l39.3 37.4z" clip-rule="evenodd"/>
      <path id="_95" fill="#9fbeff" fill-rule="evenodd" d="M1250 1250 2484.6-15.4 2523 23z" clip-rule="evenodd"/>
      <path id="_96" fill="#9ebdff" fill-rule="evenodd" d="M1250 1250 2515.3 15.4l37.4 39.2z" clip-rule="evenodd"/>
      <path id="_97" fill="#9dbdff" fill-rule="evenodd" d="M1250 1250 2545.3 46.8l36.4 40.2z" clip-rule="evenodd"/>
      <path id="_98" fill="#9cbcff" fill-rule="evenodd" d="M1250 1250 2574.4 78.9l35.4 41.1z" clip-rule="evenodd"/>
      <path id="_99" fill="#9bbbff" fill-rule="evenodd" d="M1250 1250 2602.7 111.8l34.4 41.9z" clip-rule="evenodd"/>
      <path id="_100" fill="#9abaff" fill-rule="evenodd" d="M1250 1250 2630.3 145.3l33.3 42.8z" clip-rule="evenodd"/>
      <path id="_101" fill="#99baff" fill-rule="evenodd" d="M1250 1250 2657 179.5l32.3 43.6z" clip-rule="evenodd"/>
      <path id="_102" fill="#98b9ff" fill-rule="evenodd" d="M1250 1250 2682.8 214.4l31.2 44.3z" clip-rule="evenodd"/>
      <path id="_103" fill="#97b8ff" fill-rule="evenodd" d="M1250 1250 2707.8 249.8l30.1 45.1z" clip-rule="evenodd"/>
      <path id="_104" fill="#96b8ff" fill-rule="evenodd" d="m1250 1250 1481.9-964.1 29 45.9z" clip-rule="evenodd"/>
      <path id="_105" fill="#95b7ff" fill-rule="evenodd" d="m1250 1250 1505.1-927.4 27.9 46.5z" clip-rule="evenodd"/>
      <path id="_106" fill="#94b6ff" fill-rule="evenodd" d="m1250 1250 1527.4-890.2 26.7 47.2z" clip-rule="evenodd"/>
      <path id="_107" fill="#93b6ff" fill-rule="evenodd" d="m1250 1250 1548.8-852.4 25.5 47.8z" clip-rule="evenodd"/>
      <path id="_108" fill="#92b5ff" fill-rule="evenodd" d="m1250 1250 1569.2-814.2 24.4 48.5z" clip-rule="evenodd"/>
      <path id="_109" fill="#91b4ff" fill-rule="evenodd" d="m1250 1250 1588.8-775.4 23.1 49z" clip-rule="evenodd"/>
      <path id="_110" fill="#90b4ff" fill-rule="evenodd" d="m1250 1250 1607.3-736.2 22 49.6z" clip-rule="evenodd"/>
      <path id="_111" fill="#8fb3ff" fill-rule="evenodd" d="m1250 1250 1624.9-696.6 20.7 50.2z" clip-rule="evenodd"/>
      <path id="_112" fill="#8eb2ff" fill-rule="evenodd" d="m1250 1250 1641.5-656.5 19.5 50.7z" clip-rule="evenodd"/>
      <path id="_113" fill="#8db2ff" fill-rule="evenodd" d="m1250 1250 1657.1-616 18.3 51.1z" clip-rule="evenodd"/>
      <path id="_114" fill="#8cb1ff" fill-rule="evenodd" d="m1250 1250 1671.7-575.1 17 51.5z" clip-rule="evenodd"/>
      <path id="_115" fill="#8bb0ff" fill-rule="evenodd" d="m1250 1250 1685.3-533.9 15.8 51.9z" clip-rule="evenodd"/>
      <path id="_116" fill="#8ab0ff" fill-rule="evenodd" d="m1250 1250 1697.9-492.4 14.5 52.3z" clip-rule="evenodd"/>
      <path id="_117" fill="#89afff" fill-rule="evenodd" d="m1250 1250 1709.5-450.6 13.2 52.6z" clip-rule="evenodd"/>
      <path id="_118" fill="#88aeff" fill-rule="evenodd" d="m1250 1250 1720.1-408.5 11.8 52.9z" clip-rule="evenodd"/>
      <path id="_119" fill="#87aeff" fill-rule="evenodd" d="m1250 1250 1729.5-366.1 10.6 53.1z" clip-rule="evenodd"/>
      <path id="_120" fill="#86adff" fill-rule="evenodd" d="m1250 1250 1738-323.6 9.3 53.4z" clip-rule="evenodd"/>
      <path id="_121" fill="#85acff" fill-rule="evenodd" d="m1250 1250 1745.4-280.9 8 53.7z" clip-rule="evenodd"/>
      <path id="_122" fill="#84acff" fill-rule="evenodd" d="m1250 1250 1751.8-237.9 6.6 53.8z" clip-rule="evenodd"/>
      <path id="_123" fill="#83abff" fill-rule="evenodd" d="m1250 1250 1757.1-194.9 5.3 54z" clip-rule="evenodd"/>
      <path id="_124" fill="#82aaff" fill-rule="evenodd" d="m1250 1250 1761.4-151.7 4 54.1z" clip-rule="evenodd"/>
      <path id="_125" fill="#81aaff" fill-rule="evenodd" d="m1250 1250 1764.6-108.4 2.6 54.2z" clip-rule="evenodd"/>
      <path id="_126" fill="#80a9ff" fill-rule="evenodd" d="m1250 1250 1766.7-65.1 1.3 54.2z" clip-rule="evenodd"/>
      <path id="_127" fill="#7fa8ff" fill-rule="evenodd" d="m1250 1250 1767.7-21.7v54.2z" clip-rule="evenodd"/>
      <path id="_128" fill="#7ea7ff" fill-rule="evenodd" d="m1250 1250 1767.7 21.7-1.3 54.2z" clip-rule="evenodd"/>
      <path id="_129" fill="#7da7ff" fill-rule="evenodd" d="m1250 1250 1766.7 65.1-2.7 54.1z" clip-rule="evenodd"/>
      <path id="_130" fill="#7ca6ff" fill-rule="evenodd" d="m1250 1250 1764.6 108.4-4 54.1z" clip-rule="evenodd"/>
      <path id="_131" fill="#7ba5ff" fill-rule="evenodd" d="m1250 1250 1761.4 151.7-5.3 54z" clip-rule="evenodd"/>
      <path id="_132" fill="#7aa5ff" fill-rule="evenodd" d="m1250 1250 1757.1 194.8-6.6 53.9z" clip-rule="evenodd"/>
      <path id="_133" fill="#79a4ff" fill-rule="evenodd" d="m1250 1250 1751.8 237.9-8 53.7z" clip-rule="evenodd"/>
      <path id="_134" fill="#78a3ff" fill-rule="evenodd" d="m1250 1250 1745.4 280.8-9.2 53.5z" clip-rule="evenodd"/>
      <path id="_135" fill="#77a3ff" fill-rule="evenodd" d="m1250 1250 1738 323.6-10.6 53.2z" clip-rule="evenodd"/>
      <path id="_136" fill="#76a2ff" fill-rule="evenodd" d="m1250 1250 1729.5 366.1-11.8 53z" clip-rule="evenodd"/>
      <path id="_137" fill="#75a1ff" fill-rule="evenodd" d="m1250 1250 1720.1 408.5-13.2 52.6z" clip-rule="evenodd"/>
      <path id="_138" fill="#74a1ff" fill-rule="evenodd" d="m1250 1250 1709.5 450.6-14.4 52.2z" clip-rule="evenodd"/>
      <path id="_139" fill="#73a0ff" fill-rule="evenodd" d="m1250 1250 1697.9 492.4-15.7 51.9z" clip-rule="evenodd"/>
      <path id="_140" fill="#729fff" fill-rule="evenodd" d="m1250 1250 1685.3 533.9-17 51.5z" clip-rule="evenodd"/>
      <path id="_141" fill="#719fff" fill-rule="evenodd" d="m1250 1250 1671.7 575.1-18.2 51.1z" clip-rule="evenodd"/>
      <path id="_142" fill="#709eff" fill-rule="evenodd" d="m1250 1250 1657.1 616-19.5 50.6z" clip-rule="evenodd"/>
      <path id="_143" fill="#6f9dff" fill-rule="evenodd" d="m1250 1250 1641.5 656.4-20.8 50.2z" clip-rule="evenodd"/>
      <path id="_144" fill="#6e9dff" fill-rule="evenodd" d="m1250 1250 1624.9 696.5-22 49.6z" clip-rule="evenodd"/>
      <path id="_145" fill="#6d9cff" fill-rule="evenodd" d="m1250 1250 1607.3 736.2-23.2 49z" clip-rule="evenodd"/>
      <path id="_146" fill="#6c9bff" fill-rule="evenodd" d="m1250 1250 1588.8 775.4-24.4 48.5z" clip-rule="evenodd"/>
      <path id="_147" fill="#6b9bff" fill-rule="evenodd" d="m1250 1250 1569.2 814.2-25.5 47.8z" clip-rule="evenodd"/>
      <path id="_148" fill="#6a9aff" fill-rule="evenodd" d="m1250 1250 1548.8 852.4-26.7 47.3z" clip-rule="evenodd"/>
      <path id="_149" fill="#6999ff" fill-rule="evenodd" d="m1250 1250 1527.4 890.2-27.9 46.5z" clip-rule="evenodd"/>
      <path id="_150" fill="#6899ff" fill-rule="evenodd" d="m1250 1250 1505.1 927.4-29 45.8z" clip-rule="evenodd"/>
      <path id="_151" fill="#6798ff" fill-rule="evenodd" d="m1250 1250 1481.9 964.1-30.2 45.1z" clip-rule="evenodd"/>
      <path id="_152" fill="#6697ff" fill-rule="evenodd" d="m1250 1250 1457.8 1000.2-31.2 44.3z" clip-rule="evenodd"/>
      <path id="_153" fill="#6597ff" fill-rule="evenodd" d="m1250 1250 1432.8 1035.6-32.3 43.6z" clip-rule="evenodd"/>
      <path id="_154" fill="#6496ff" fill-rule="evenodd" d="m1250 1250 1407 1070.5-33.4 42.7z" clip-rule="evenodd"/>
      <path id="_155" fill="#6395ff" fill-rule="evenodd" d="m1250 1250 1380.3 1104.7-34.4 41.9z" clip-rule="evenodd"/>
      <path id="_156" fill="#6294ff" fill-rule="evenodd" d="m1250 1250 1352.7 1138.2-35.4 41.1z" clip-rule="evenodd"/>
      <path id="_157" fill="#6194ff" fill-rule="evenodd" d="m1250 1250 1324.4 1171.1-36.4 40.2z" clip-rule="evenodd"/>
      <path id="_158" fill="#6093ff" fill-rule="evenodd" d="m1250 1250 1295.3 1203.2-37.4 39.3z" clip-rule="evenodd"/>
      <path id="_159" fill="#5f92ff" fill-rule="evenodd" d="m1250 1250 1265.3 1234.6-38.3 38.4z" clip-rule="evenodd"/>
      <path id="_160" fill="#5e92ff" fill-rule="evenodd" d="m1250 1250 1234.6 1265.3-39.2 37.4z" clip-rule="evenodd"/>
      <path id="_161" fill="#5d91ff" fill-rule="evenodd" d="m1250 1250 1203.2 1295.3-40.2 36.4z" clip-rule="evenodd"/>
      <path id="_162" fill="#5c90ff" fill-rule="evenodd" d="m1250 1250 1171.1 1324.4-41.1 35.4z" clip-rule="evenodd"/>
      <path id="_163" fill="#5b90ff" fill-rule="evenodd" d="m1250 1250 1138.2 1352.7-41.9 34.4z" clip-rule="evenodd"/>
      <path id="_164" fill="#5a8fff" fill-rule="evenodd" d="m1250 1250 1104.7 1380.3-42.8 33.3z" clip-rule="evenodd"/>
      <path id="_165" fill="#598eff" fill-rule="evenodd" d="m1250 1250 1070.5 1407-43.6 32.3z" clip-rule="evenodd"/>
      <path id="_166" fill="#588eff" fill-rule="evenodd" d="m1250 1250 1035.6 1432.8-44.3 31.2z" clip-rule="evenodd"/>
      <path id="_167" fill="#578dff" fill-rule="evenodd" d="m1250 1250 1000.2 1457.8-45.2 30.1z" clip-rule="evenodd"/>
      <path id="_168" fill="#568cff" fill-rule="evenodd" d="m1250 1250 964.1 1481.9-45.9 29z" clip-rule="evenodd"/>
      <path id="_169" fill="#558cff" fill-rule="evenodd" d="m1250 1250 927.4 1505.1-46.5 27.9z" clip-rule="evenodd"/>
      <path id="_170" fill="#548bff" fill-rule="evenodd" d="m1250 1250 890.2 1527.4-47.2 26.7z" clip-rule="evenodd"/>
      <path id="_171" fill="#538aff" fill-rule="evenodd" d="m1250 1250 852.4 1548.8-47.8 25.5z" clip-rule="evenodd"/>
      <path id="_172" fill="#528aff" fill-rule="evenodd" d="m1250 1250 814.2 1569.2-48.5 24.4z" clip-rule="evenodd"/>
      <path id="_173" fill="#5189ff" fill-rule="evenodd" d="m1250 1250 775.4 1588.8-49 23.1z" clip-rule="evenodd"/>
      <path id="_174" fill="#5088ff" fill-rule="evenodd" d="m1250 1250 736.2 1607.3-49.6 22z" clip-rule="evenodd"/>
      <path id="_175" fill="#4f88ff" fill-rule="evenodd" d="m1250 1250 696.5 1624.9-50.1 20.7z" clip-rule="evenodd"/>
      <path id="_176" fill="#4e87ff" fill-rule="evenodd" d="m1250 1250 656.4 1641.5-50.6 19.5z" clip-rule="evenodd"/>
      <path id="_177" fill="#4d86ff" fill-rule="evenodd" d="m1250 1250 616 1657.1-51.1 18.3z" clip-rule="evenodd"/>
      <path id="_178" fill="#4c86ff" fill-rule="evenodd" d="m1250 1250 575.1 1671.7-51.5 17z" clip-rule="evenodd"/>
      <path id="_179" fill="#4b85ff" fill-rule="evenodd" d="m1250 1250 533.9 1685.3-51.9 15.8z" clip-rule="evenodd"/>
      <path id="_180" fill="#4a84ff" fill-rule="evenodd" d="m1250 1250 492.4 1697.9-52.3 14.5z" clip-rule="evenodd"/>
      <path id="_181" fill="#4984ff" fill-rule="evenodd" d="m1250 1250 450.6 1709.5-52.7 13.2z" clip-rule="evenodd"/>
      <path id="_182" fill="#4883ff" fill-rule="evenodd" d="m1250 1250 408.5 1720.1-52.9 11.8z" clip-rule="evenodd"/>
      <path id="_183" fill="#4782ff" fill-rule="evenodd" d="m1250 1250 366.1 1729.5-53.2 10.6z" clip-rule="evenodd"/>
      <path id="_184" fill="#4681ff" fill-rule="evenodd" d="m1250 1250 323.6 1738-53.4 9.3z" clip-rule="evenodd"/>
      <path id="_185" fill="#4581ff" fill-rule="evenodd" d="m1250 1250 280.8 1745.4-53.6 8z" clip-rule="evenodd"/>
      <path id="_186" fill="#4480ff" fill-rule="evenodd" d="m1250 1250 237.9 1751.8-53.8 6.6z" clip-rule="evenodd"/>
      <path id="_187" fill="#437fff" fill-rule="evenodd" d="m1250 1250 194.8 1757.1-53.9 5.3z" clip-rule="evenodd"/>
      <path id="_188" fill="#427fff" fill-rule="evenodd" d="m1250 1250 151.7 1761.4-54.1 4z" clip-rule="evenodd"/>
      <path id="_189" fill="#417eff" fill-rule="evenodd" d="m1250 1250 108.4 1764.6-54.2 2.6z" clip-rule="evenodd"/>
      <path id="_190" fill="#407dff" fill-rule="evenodd" d="m1250 1250 65.1 1766.7-54.3 1.3z" clip-rule="evenodd"/>
      <path id="_191" fill="#3f7dff" fill-rule="evenodd" d="m1250 1250 21.7 1767.7h-54.3z" clip-rule="evenodd"/>
      <path id="_192" fill="#3e7cff" fill-rule="evenodd" d="m1250 1250-21.7 1767.7-54.2-1.3z" clip-rule="evenodd"/>
      <path id="_193" fill="#3d7bff" fill-rule="evenodd" d="m1250 1250-65.1 1766.7-54.2-2.7z" clip-rule="evenodd"/>
      <path id="_194" fill="#3c7bff" fill-rule="evenodd" d="m1250 1250-108.4 1764.6-54.1-4z" clip-rule="evenodd"/>
      <path id="_195" fill="#3b7aff" fill-rule="evenodd" d="m1250 1250-151.7 1761.4-54-5.3z" clip-rule="evenodd"/>
      <path id="_196" fill="#3a79ff" fill-rule="evenodd" d="m1250 1250-194.9 1757.1-53.8-6.6z" clip-rule="evenodd"/>
      <path id="_197" fill="#3979ff" fill-rule="evenodd" d="m1250 1250-237.9 1751.8-53.7-8z" clip-rule="evenodd"/>
      <path id="_198" fill="#3878ff" fill-rule="evenodd" d="M1250 1250 969.1 2995.4l-53.4-9.2z" clip-rule="evenodd"/>
      <path id="_199" fill="#3777ff" fill-rule="evenodd" d="M1250 1250 926.4 2988l-53.2-10.6z" clip-rule="evenodd"/>
      <path id="_200" fill="#3677ff" fill-rule="evenodd" d="M1250 1250 883.9 2979.5l-53-11.8z" clip-rule="evenodd"/>
      <path id="_201" fill="#3576ff" fill-rule="evenodd" d="M1250 1250 841.5 2970.1l-52.6-13.2z" clip-rule="evenodd"/>
      <path id="_202" fill="#3475ff" fill-rule="evenodd" d="M1250 1250 799.4 2959.5l-52.3-14.4z" clip-rule="evenodd"/>
      <path id="_203" fill="#3375ff" fill-rule="evenodd" d="M1250 1250 757.6 2947.9l-51.9-15.7z" clip-rule="evenodd"/>
      <path id="_204" fill="#3274ff" fill-rule="evenodd" d="M1250 1250 716.1 2935.3l-51.5-17z" clip-rule="evenodd"/>
      <path id="_205" fill="#3173ff" fill-rule="evenodd" d="M1250 1250 674.9 2921.7l-51.1-18.2z" clip-rule="evenodd"/>
      <path id="_206" fill="#3073ff" fill-rule="evenodd" d="M1250 1250 634 2907.1l-50.6-19.5z" clip-rule="evenodd"/>
      <path id="_207" fill="#2f72ff" fill-rule="evenodd" d="M1250 1250 593.5 2891.5l-50.1-20.8z" clip-rule="evenodd"/>
      <path id="_208" fill="#2e71ff" fill-rule="evenodd" d="M1250 1250 553.4 2874.9l-49.5-22z" clip-rule="evenodd"/>
      <path id="_209" fill="#2d71ff" fill-rule="evenodd" d="M1250 1250 513.8 2857.3l-49-23.2z" clip-rule="evenodd"/>
      <path id="_210" fill="#2c70ff" fill-rule="evenodd" d="M1250 1250 474.6 2838.8l-48.5-24.4z" clip-rule="evenodd"/>
      <path id="_211" fill="#2b6fff" fill-rule="evenodd" d="M1250 1250 435.8 2819.2l-47.8-25.5z" clip-rule="evenodd"/>
      <path id="_212" fill="#2a6eff" fill-rule="evenodd" d="M1250 1250 397.6 2798.8l-47.3-26.7z" clip-rule="evenodd"/>
      <path id="_213" fill="#296eff" fill-rule="evenodd" d="M1250 1250 359.8 2777.4l-46.5-27.9z" clip-rule="evenodd"/>
      <path id="_214" fill="#286dff" fill-rule="evenodd" d="M1250 1250 322.6 2755.1l-45.9-29z" clip-rule="evenodd"/>
      <path id="_215" fill="#276cff" fill-rule="evenodd" d="M1250 1250 285.9 2731.9l-45.1-30.2z" clip-rule="evenodd"/>
      <path id="_216" fill="#266cff" fill-rule="evenodd" d="M1250 1250 249.8 2707.8l-44.3-31.2z" clip-rule="evenodd"/>
      <path id="_217" fill="#256bff" fill-rule="evenodd" d="M1250 1250 214.4 2682.8l-43.6-32.3z" clip-rule="evenodd"/>
      <path id="_218" fill="#246aff" fill-rule="evenodd" d="M1250 1250 179.5 2657l-42.8-33.4z" clip-rule="evenodd"/>
      <path id="_219" fill="#236aff" fill-rule="evenodd" d="M1250 1250 145.3 2630.3l-41.9-34.4z" clip-rule="evenodd"/>
      <path id="_220" fill="#2269ff" fill-rule="evenodd" d="M1250 1250 111.8 2602.7l-41.1-35.4z" clip-rule="evenodd"/>
      <path id="_221" fill="#2168ff" fill-rule="evenodd" d="M1250 1250 78.9 2574.4 38.7 2538z" clip-rule="evenodd"/>
      <path id="_222" fill="#2068ff" fill-rule="evenodd" d="M1250 1250 46.8 2545.3l-39.3-37.4z" clip-rule="evenodd"/>
      <path id="_223" fill="#1f67ff" fill-rule="evenodd" d="M1250 1250 15.4 2515.3-23 2477z" clip-rule="evenodd"/>
      <path id="_224" fill="#1e66ff" fill-rule="evenodd" d="M1250 1250-15.4 2484.6l-37.3-39.2z" clip-rule="evenodd"/>
      <path id="_225" fill="#1d66ff" fill-rule="evenodd" d="M1250 1250-45.3 2453.2l-36.4-40.2z" clip-rule="evenodd"/>
      <path id="_226" fill="#1c65ff" fill-rule="evenodd" d="M1250 1250-74.4 2421.1l-35.4-41.1z" clip-rule="evenodd"/>
      <path id="_227" fill="#1b64ff" fill-rule="evenodd" d="M1250 1250-102.7 2388.2l-34.4-41.9z" clip-rule="evenodd"/>
      <path id="_228" fill="#1a64ff" fill-rule="evenodd" d="M1250 1250-130.3 2354.7l-33.3-42.8z" clip-rule="evenodd"/>
      <path id="_229" fill="#1963ff" fill-rule="evenodd" d="M1250 1250-157 2320.5l-32.3-43.6z" clip-rule="evenodd"/>
      <path id="_230" fill="#1862ff" fill-rule="evenodd" d="M1250 1250-182.8 2285.6l-31.2-44.3z" clip-rule="evenodd"/>
      <path id="_231" fill="#1762ff" fill-rule="evenodd" d="M1250 1250-207.8 2250.2l-30.1-45.2z" clip-rule="evenodd"/>
      <path id="_232" fill="#1661ff" fill-rule="evenodd" d="m1250 1250-1481.9 964.1-29-45.9z" clip-rule="evenodd"/>
      <path id="_233" fill="#1560ff" fill-rule="evenodd" d="m1250 1250-1505.1 927.4-27.9-46.5z" clip-rule="evenodd"/>
      <path id="_234" fill="#1460ff" fill-rule="evenodd" d="m1250 1250-1527.4 890.2-26.7-47.2z" clip-rule="evenodd"/>
      <path id="_235" fill="#135fff" fill-rule="evenodd" d="m1250 1250-1548.8 852.4-25.6-47.8z" clip-rule="evenodd"/>
      <path id="_236" fill="#125eff" fill-rule="evenodd" d="m1250 1250-1569.3 814.2-24.3-48.5z" clip-rule="evenodd"/>
      <path id="_237" fill="#115eff" fill-rule="evenodd" d="m1250 1250-1588.8 775.4-23.1-49z" clip-rule="evenodd"/>
      <path id="_238" fill="#105dff" fill-rule="evenodd" d="m1250 1250-1607.3 736.2-22-49.6z" clip-rule="evenodd"/>
      <path id="_239" fill="#0f5cff" fill-rule="evenodd" d="m1250 1250-1624.9 696.5-20.8-50.1z" clip-rule="evenodd"/>
      <path id="_240" fill="#0e5bff" fill-rule="evenodd" d="m1250 1250-1641.5 656.4-19.5-50.6z" clip-rule="evenodd"/>
      <path id="_241" fill="#0d5bff" fill-rule="evenodd" d="m1250 1250-1657.1 616-18.3-51.1z" clip-rule="evenodd"/>
      <path id="_242" fill="#0c5aff" fill-rule="evenodd" d="m1250 1250-1671.8 575.1-16.9-51.5z" clip-rule="evenodd"/>
      <path id="_243" fill="#0b59ff" fill-rule="evenodd" d="m1250 1250-1685.4 533.9-15.7-51.9z" clip-rule="evenodd"/>
      <path id="_244" fill="#0a59ff" fill-rule="evenodd" d="m1250 1250-1698 492.4-14.4-52.3z" clip-rule="evenodd"/>
      <path id="_245" fill="#0958ff" fill-rule="evenodd" d="m1250 1250-1709.5 450.6-13.2-52.7z" clip-rule="evenodd"/>
      <path id="_246" fill="#0857ff" fill-rule="evenodd" d="m1250 1250-1720.1 408.5-11.8-52.9z" clip-rule="evenodd"/>
      <path id="_247" fill="#0757ff" fill-rule="evenodd" d="m1250 1250-1729.6 366.1-10.5-53.2z" clip-rule="evenodd"/>
      <path id="_248" fill="#0656ff" fill-rule="evenodd" d="m1250 1250-1738 323.6-9.3-53.4z" clip-rule="evenodd"/>
      <path id="_249" fill="#0555ff" fill-rule="evenodd" d="m1250 1250-1745.4 280.8-8-53.6z" clip-rule="evenodd"/>
      <path id="_250" fill="#0455ff" fill-rule="evenodd" d="m1250 1250-1751.8 237.9-6.6-53.8z" clip-rule="evenodd"/>
      <path id="_251" fill="#0354ff" fill-rule="evenodd" d="m1250 1250-1757.1 194.8-5.3-53.9z" clip-rule="evenodd"/>
      <path id="_252" fill="#0253ff" fill-rule="evenodd" d="m1250 1250-1761.4 151.7-4-54.1z" clip-rule="evenodd"/>
      <path id="_253" fill="#0153ff" fill-rule="evenodd" d="m1250 1250-1764.6 108.4-2.6-54.2z" clip-rule="evenodd"/>
      <path id="_254" fill="#0052ff" fill-rule="evenodd" d="m1250 1250-1766.7 65.1-1.3-54.3z" clip-rule="evenodd"/>
      <path id="_255" fill="#fff" fill-rule="evenodd" d="m1250 1250-1767.8 21.7v-43.4z" clip-rule="evenodd"/>
    </g>
  </g>
</svg>