<svg width="56" height="56" viewBox="0 0 56 56" fill="none" xmlns="http://www.w3.org/2000/svg">
<circle cx="28" cy="28" r="24.5" fill="white"/>
<circle cx="28" cy="28" r="24.5" fill="black"/>
<g clip-path="url(#clip0_232_18676)">
<path d="M40.9946 20.3542L40.1433 27.9982L40.9946 35.646" stroke="#D1D3D4" stroke-width="0.7175" stroke-miterlimit="10"/>
<path d="M15.0055 20.3542L15.6843 27.9982L15.0055 35.646" stroke="#D1D3D4" stroke-width="0.7175" stroke-miterlimit="10"/>
<path d="M40.1431 27.998L34.0706 38.7161" stroke="#D1D3D4" stroke-width="0.7175" stroke-miterlimit="10"/>
<path d="M15.8567 27.998L21.9292 38.7161" stroke="#D1D3D4" stroke-width="0.7175" stroke-miterlimit="10"/>
<path d="M28.0019 43.2935L21.9293 38.7161L15.0055 35.6458" stroke="#D1D3D4" stroke-width="0.7175" stroke-miterlimit="10"/>
<path d="M28.0017 43.2935L34.0706 38.7161L40.9944 35.6458" stroke="#D1D3D4" stroke-width="0.7175" stroke-miterlimit="10"/>
<path d="M21.9292 17.2837L15.8567 27.998" stroke="#D1D3D4" stroke-width="0.7175" stroke-miterlimit="10"/>
<path d="M28.0019 12.7063L21.9293 17.2837L15.0055 20.354" stroke="#D1D3D4" stroke-width="0.7175" stroke-miterlimit="10"/>
<path d="M34.0706 17.2837L40.1431 27.998" stroke="#D1D3D4" stroke-width="0.7175" stroke-miterlimit="10"/>
<path d="M28.0017 12.7063L34.0706 17.2837L40.9944 20.354" stroke="#D1D3D4" stroke-width="0.7175" stroke-miterlimit="10"/>
<path d="M28.0017 12.7063V43.2935" stroke="#D1D3D4" stroke-width="0.7175" stroke-miterlimit="10"/>
<path d="M15.0055 35.646L40.9946 20.3542" stroke="#D1D3D4" stroke-width="0.7175" stroke-miterlimit="10"/>
<path d="M40.9946 35.646L15.0055 20.3542" stroke="#D1D3D4" stroke-width="0.7175" stroke-miterlimit="10"/>
<path d="M34.0709 17.2837L21.9294 38.7161" stroke="#D1D3D4" stroke-width="0.7175" stroke-miterlimit="10"/>
<path d="M15.8567 27.998H40.1432" stroke="#D1D3D4" stroke-width="0.7175" stroke-miterlimit="10"/>
<path d="M34.0709 38.7161L21.9294 17.2837" stroke="#D1D3D4" stroke-width="0.7175" stroke-miterlimit="10"/>
<path d="M31.2492 27.2277L32.0601 26.4985C32.1812 26.39 32.2106 26.2068 32.1298 26.0609L31.6969 25.298C31.6162 25.1559 31.4474 25.0886 31.2933 25.141L30.2585 25.4962C30.7429 25.9488 31.0951 26.5471 31.2492 27.224V27.2277Z" fill="black"/>
<path d="M32.0344 29.4567L31.2528 28.7537C31.1024 29.4231 30.7612 30.0177 30.2878 30.4739L31.2675 30.8105C31.4216 30.8629 31.5904 30.7993 31.6711 30.6534L32.1041 29.8905C32.1848 29.7484 32.1555 29.5652 32.0344 29.453V29.4567Z" fill="black"/>
<path d="M15.0054 37.4634C15.9903 37.4634 16.7886 36.6497 16.7886 35.6459C16.7886 34.6421 15.9903 33.8284 15.0054 33.8284C14.0206 33.8284 13.2222 34.6421 13.2222 35.6459C13.2222 36.6497 14.0206 37.4634 15.0054 37.4634Z" fill="white"/>
<path d="M40.9947 22.1719C41.9795 22.1719 42.7779 21.3582 42.7779 20.3544C42.7779 19.3506 41.9795 18.5369 40.9947 18.5369C40.0098 18.5369 39.2114 19.3506 39.2114 20.3544C39.2114 21.3582 40.0098 22.1719 40.9947 22.1719Z" fill="white"/>
<path d="M15.8568 29.4677C16.6532 29.4677 17.2988 28.8097 17.2988 27.998C17.2988 27.1863 16.6532 26.5283 15.8568 26.5283C15.0604 26.5283 14.4148 27.1863 14.4148 27.998C14.4148 28.8097 15.0604 29.4677 15.8568 29.4677Z" fill="white"/>
<path d="M40.1434 29.4677C40.9398 29.4677 41.5854 28.8097 41.5854 27.998C41.5854 27.1863 40.9398 26.5283 40.1434 26.5283C39.347 26.5283 38.7014 27.1863 38.7014 27.998C38.7014 28.8097 39.347 29.4677 40.1434 29.4677Z" fill="white"/>
<path d="M28.0021 14.5239C28.987 14.5239 29.7854 13.7102 29.7854 12.7064C29.7854 11.7026 28.987 10.8889 28.0021 10.8889C27.0173 10.8889 26.2189 11.7026 26.2189 12.7064C26.2189 13.7102 27.0173 14.5239 28.0021 14.5239Z" fill="white"/>
<path d="M28.3889 32.6666C30.7514 32.6666 32.6666 30.7514 32.6666 28.3889C32.6666 26.0263 30.7514 24.1111 28.3889 24.1111C26.0263 24.1111 24.1111 26.0263 24.1111 28.3889C24.1111 30.7514 26.0263 32.6666 28.3889 32.6666Z" fill="#D1D3D4"/>
<path d="M28.0019 45.1111C28.9867 45.1111 29.7851 44.2974 29.7851 43.2936C29.7851 42.2898 28.9867 41.4761 28.0019 41.4761C27.017 41.4761 26.2186 42.2898 26.2186 43.2936C26.2186 44.2974 27.017 45.1111 28.0019 45.1111Z" fill="white"/>
<path d="M40.9947 37.4634C41.9795 37.4634 42.7779 36.6497 42.7779 35.6459C42.7779 34.6421 41.9795 33.8284 40.9947 33.8284C40.0098 33.8284 39.2114 34.6421 39.2114 35.6459C39.2114 36.6497 40.0098 37.4634 40.9947 37.4634Z" fill="white"/>
<path d="M15.0054 22.1716C15.9903 22.1716 16.7886 21.3579 16.7886 20.3541C16.7886 19.3503 15.9903 18.5366 15.0054 18.5366C14.0206 18.5366 13.2222 19.3503 13.2222 20.3541C13.2222 21.3579 14.0206 22.1716 15.0054 22.1716Z" fill="white"/>
<path d="M34.0708 18.7534C34.8672 18.7534 35.5128 18.0954 35.5128 17.2837C35.5128 16.472 34.8672 15.814 34.0708 15.814C33.2744 15.814 32.6288 16.472 32.6288 17.2837C32.6288 18.0954 33.2744 18.7534 34.0708 18.7534Z" fill="white"/>
<path d="M21.9291 40.186C22.7255 40.186 23.3711 39.528 23.3711 38.7163C23.3711 37.9046 22.7255 37.2466 21.9291 37.2466C21.1327 37.2466 20.4871 37.9046 20.4871 38.7163C20.4871 39.528 21.1327 40.186 21.9291 40.186Z" fill="white"/>
<path d="M34.0708 40.186C34.8672 40.186 35.5128 39.528 35.5128 38.7163C35.5128 37.9046 34.8672 37.2466 34.0708 37.2466C33.2744 37.2466 32.6288 37.9046 32.6288 38.7163C32.6288 39.528 33.2744 40.186 34.0708 40.186Z" fill="white"/>
<path d="M21.9291 18.7536C22.7255 18.7536 23.3711 18.0956 23.3711 17.2839C23.3711 16.4722 22.7255 15.8142 21.9291 15.8142C21.1327 15.8142 20.4871 16.4722 20.4871 17.2839C20.4871 18.0956 21.1327 18.7536 21.9291 18.7536Z" fill="white"/>
</g>
<defs>
<clipPath id="clip0_232_18676">
<rect width="29.5556" height="34.2222" fill="white" transform="translate(13.2222 10.8889)"/>
</clipPath>
</defs>
</svg>