<svg width="56" height="56" viewBox="0 0 56 56" fill="none" xmlns="http://www.w3.org/2000/svg">
<circle cx="28" cy="28" r="25" fill="#EEECEC"/>
<circle cx="28" cy="28" r="25" fill="url(#paint0_linear_623_5279)"/>
<path d="M27.9683 15.3425V5.29994V5.28564L22.9305 10.2901L21.9683 11.255L11.3785 21.7642C10.6312 22.5056 10.623 23.7146 11.3592 24.4661L18.3875 31.6414L27.9683 41.4369V41.4226V32.7595C27.9683 31.8436 27.613 30.9634 26.9777 30.3058L22.6953 25.8722C21.2679 24.3946 21.2872 22.042 22.7371 20.5879L27.9673 15.3425H27.9683Z" fill="#EEECEC"/>
<path d="M28.9988 26.4518C28.339 25.7901 27.9684 24.8936 27.9684 23.9583V15.3759V15.3616L33.0062 20.366L33.9684 21.331L44.5582 31.8402C45.3055 32.5815 45.3137 33.7905 44.5776 34.542L37.5492 41.7173L27.9684 51.5128V51.4985V41.4069L33.2414 35.9481C34.6689 34.4705 34.6495 32.1179 33.1997 30.6639L28.9988 26.4508V26.4518Z" fill="#EEECEC"/>
<defs>
<linearGradient id="paint0_linear_623_5279" x1="53" y1="53" x2="3.06996" y2="41.3666" gradientUnits="userSpaceOnUse">
<stop stop-color="#017BFF"/>
<stop offset="1" stop-color="#5524E1"/>
</linearGradient>
</defs>
</svg>
